<svg xmlns="http://www.w3.org/2000/svg" xmlns:xlink="http://www.w3.org/1999/xlink" width="252" height="252"><defs><linearGradient id="l"><stop offset="0" stop-color="#afc" stop-opacity="0"/><stop offset="1" stop-color="#1f241c"/></linearGradient><linearGradient id="c"><stop offset="0" stop-color="#fff" stop-opacity=".075"/><stop offset=".217" stop-color="#0ff" stop-opacity=".245"/><stop offset=".633" stop-color="#0ff" stop-opacity=".462"/><stop offset="1" stop-color="#002b22"/></linearGradient><linearGradient id="b"><stop offset="0" stop-color="#0ff" stop-opacity=".004"/><stop offset=".747" stop-color="#1a1a1a" stop-opacity=".194"/><stop offset="1" stop-color="#0ff" stop-opacity=".53"/></linearGradient><linearGradient id="g"><stop offset="0" stop-color="#0ff" stop-opacity=".016"/><stop offset="1" stop-color="#1a1a1a"/></linearGradient><linearGradient id="a"><stop offset="0" stop-color="#1a1a1a"/><stop offset=".664" stop-color="#2c89a0" stop-opacity="0"/><stop offset="1" stop-color="#1a1a1a"/></linearGradient><radialGradient xlink:href="#d" id="v" cx="124.215" cy="231" fx="124.215" fy="231" r="61.171" gradientTransform="matrix(2.3074 -.21488 .05047 .54192 -172.272 113.424)" gradientUnits="userSpaceOnUse"/><linearGradient id="d"><stop offset="0" stop-color="#054" stop-opacity="0"/><stop offset="1" stop-color="#054"/></linearGradient><linearGradient xlink:href="#b" id="u" gradientUnits="userSpaceOnUse" gradientTransform="translate(.952 4.327)" x1="88.359" y1="110.42" x2="164.454" y2="105.1"/><linearGradient gradientTransform="translate(.952 4.327)" xlink:href="#e" id="t" x1="86.425" y1="110.904" x2="173.644" y2="113.806" gradientUnits="userSpaceOnUse"/><linearGradient id="e"><stop offset="0" stop-color="#0ff" stop-opacity=".53"/><stop offset=".253" stop-color="#1a1a1a" stop-opacity=".194"/><stop offset="1" stop-color="#0ff" stop-opacity=".004"/></linearGradient><linearGradient gradientTransform="translate(.952 4.327)" xlink:href="#f" id="s" gradientUnits="userSpaceOnUse" x1="198.436" y1="188.635" x2="156.423" y2="150.049"/><linearGradient id="f"><stop offset="0" stop-color="#0ff" stop-opacity=".466"/><stop offset="1" stop-color="#0ff" stop-opacity="0"/></linearGradient><linearGradient gradientTransform="translate(.952 4.327)" xlink:href="#g" id="r" gradientUnits="userSpaceOnUse" x1="185.377" y1="115.599" x2="141.429" y2="123.446"/><linearGradient xlink:href="#h" id="q" gradientUnits="userSpaceOnUse" gradientTransform="translate(.952 4.327)" x1="55.082" y1="188.035" x2="84.365" y2="164.318"/><linearGradient id="h"><stop offset="0" stop-color="#0ff" stop-opacity=".486"/><stop offset="1" stop-color="#0ff" stop-opacity="0"/></linearGradient><radialGradient xlink:href="#i" id="p" cx="161.543" cy="235.937" fx="161.543" fy="235.937" r="61.171" gradientTransform="matrix(.36062 3.18254 -1.7487 .19815 483.382 -348.338)" gradientUnits="userSpaceOnUse"/><linearGradient id="i"><stop offset="0" stop-color="#054" stop-opacity=".395"/><stop offset="1" stop-color="#054"/></linearGradient><linearGradient gradientTransform="translate(.952 4.327)" xlink:href="#j" id="o" gradientUnits="userSpaceOnUse" x1="70.076" y1="117.417" x2="109.033" y2="121.754"/><linearGradient id="j"><stop offset="0" stop-color="#0ff" stop-opacity="0"/><stop offset="1" stop-color="#1a1a1a"/></linearGradient><linearGradient xlink:href="#k" id="n" x1="124.093" y1="-75.454" x2="125.37" y2="60.797" gradientUnits="userSpaceOnUse"/><linearGradient id="k"><stop offset="0"/><stop offset="1" stop-color="#0ff" stop-opacity="0"/></linearGradient><radialGradient xlink:href="#l" id="m" cx="126.484" cy="126" fx="126.484" fy="126" r="126.484" gradientTransform="matrix(1.73451 .0648 -.06225 1.66647 -85.06 -92.171)" gradientUnits="userSpaceOnUse"/></defs><rect width="252.967" height="252" ry="1.073" fill="#fff" fill-opacity=".988" fill-rule="evenodd"/><rect width="252.967" height="252" ry="1.073" fill="url(#m)" fill-rule="evenodd"/><path d="M124.01 31.396c-8.967 0-17.228 3.048-24.002 8.043L82.54 190.728l.174.078c.018-.318-.128-.725-.056-1.012.232-.93.736-1.706 1.455-2.35.718-.643 1.651-1.156 2.738-1.556 1.087-.4 2.328-.69 3.666-.89l22.104 1.247s3.627.048 9.033-.449c2.702-.249 5.848-.633 9.209-1.228 3.36-.596 6.934-1.4 10.49-2.49 0 0 13.933-4.734 22.103-7.663 1.338-.187 2.58-.257 3.666-.172 1.087.085 2.02.325 2.739.76.359.218.665.485.91.805.03.039.038.096.066.136L149.986 40.89c-7.084-5.913-16.137-9.494-25.976-9.494z" fill="url(#n)"/><path d="M100.008 39.439c-.938.691-1.941 1.297-2.816 2.066a40.755 40.755 0 0 0-8.94 11.223 40.404 40.404 0 0 0-2.883 6.74 40.737 40.737 0 0 0-1.646 7.334l-18.6 144.988c.257-.505.66-1.004 1.18-1.484.537-.496 1.183-.973 1.873-1.418 1.38-.89 2.936-1.654 4.147-2.197 1.21-.543 2.078-.864 2.078-.864 2.233-1.076 4.101-1.873 5.654-2.468 1.553-.596 2.79-.99 3.76-1.264 1.939-.548 2.808-.611 2.994-.826.186-.215-.31-.582-1.102-1.737a16.995 16.995 0 0 1-1.359-2.4c-.494-1.05-1.013-2.378-1.51-4.06-.257-.873-.165-1.555-.125-2.266l-.174-.078z" fill="url(#o)"/><path d="M90.516 184.997c-5.351.806-9.167 3.028-7.678 8.075 3.97 13.46 9.43 4.147-8.438 12.755 0 0-13.854 5.125-8.226 9.121 26.237 13.458 108.752 1.331 120.997-19.86-.208-1.895-2.495-3.476-7.6-4.52-17.868-3.423-12.408 4.307-8.437-10.305 1.489-5.48-2.327-6.595-7.679-5.848-8.17 2.929-22.103 7.662-22.103 7.662-14.222 4.36-28.733 4.169-28.733 4.169l-22.103-1.25z" fill="url(#p)"/><path d="M100.008 39.439c-.938.691-1.941 1.297-2.816 2.066a40.756 40.756 0 0 0-8.94 11.223 40.404 40.404 0 0 0-2.883 6.74 40.737 40.737 0 0 0-1.646 7.334l-18.6 144.988c.257-.505.66-1.004 1.18-1.484.537-.496 1.183-.973 1.873-1.418 1.38-.89 2.936-1.654 4.147-2.197 1.21-.543 2.078-.864 2.078-.864 2.233-1.076 4.101-1.873 5.654-2.468 1.553-.596 2.79-.99 3.76-1.264 1.939-.548 2.808-.611 2.994-.826.186-.215-.31-.582-1.102-1.737a16.995 16.995 0 0 1-1.359-2.4c-.494-1.05-1.013-2.378-1.51-4.06-.257-.873-.165-1.555-.125-2.266l-.174-.078z" fill="url(#q)"/><path d="M149.987 40.89l20.85 135.055c.201.292.376.609.478.988.232.863.19 1.96-.182 3.33-.496 1.826-1.015 3.304-1.51 4.498a24.327 24.327 0 0 1-1.359 2.795c-.791 1.384-1.288 1.894-1.102 2.055.187.16 1.056-.027 2.995-.041.969-.007 2.206.027 3.76.171 1.552.145 3.422.399 5.656.827 1.276.26 2.375.556 3.31.88.936.325 1.706.68 2.324 1.061.618.381 1.083.79 1.407 1.22.28.373.405.771.48 1.176L164.295 66.802a40.737 40.737 0 0 0-1.646-7.334 40.404 40.404 0 0 0-6.87-12.768 40.756 40.756 0 0 0-4.953-5.195c-.26-.23-.573-.393-.84-.615z" fill="url(#r)"/><path d="M149.987 40.89l20.85 135.055c.201.292.376.609.478.988.232.863.19 1.96-.182 3.33-.496 1.826-1.015 3.304-1.51 4.498a24.327 24.327 0 0 1-1.359 2.795c-.791 1.384-1.288 1.894-1.102 2.055.187.16 1.056-.027 2.995-.041.969-.007 2.206.027 3.76.171 1.552.145 3.422.399 5.656.827 1.276.26 2.375.556 3.31.88.936.325 1.706.68 2.324 1.061.618.381 1.083.79 1.407 1.22.28.373.405.771.48 1.176L164.295 66.802a40.737 40.737 0 0 0-1.646-7.334 40.404 40.404 0 0 0-6.87-12.768 40.756 40.756 0 0 0-4.953-5.195c-.26-.23-.573-.393-.84-.615z" fill="url(#s)"/><path d="M124.01 31.396c-8.967 0-17.228 3.048-24.002 8.043L82.54 190.728l.174.078c.018-.318-.128-.725-.056-1.012.232-.93.736-1.706 1.455-2.35.718-.643 1.651-1.156 2.738-1.556 1.087-.4 2.328-.69 3.666-.89l22.104 1.247s3.627.048 9.033-.449c2.702-.249 5.848-.633 9.209-1.228 3.36-.596 6.934-1.4 10.49-2.49 0 0 13.933-4.734 22.103-7.663 1.338-.187 2.58-.257 3.666-.172 1.087.085 2.02.325 2.739.76.359.218.665.485.91.805.03.039.038.096.066.136L149.986 40.89c-7.084-5.913-16.137-9.494-25.976-9.494z" fill="url(#t)"/><path d="M124.01 31.396c-8.967 0-17.228 3.048-24.002 8.043L82.54 190.728l.174.078c.018-.318-.128-.725-.056-1.012.232-.93.736-1.706 1.455-2.35.718-.643 1.651-1.156 2.738-1.556 1.087-.4 2.328-.69 3.666-.89l22.104 1.247s3.627.048 9.033-.449c2.702-.249 5.848-.633 9.209-1.228 3.36-.596 6.934-1.4 10.49-2.49 0 0 13.933-4.734 22.103-7.663 1.338-.187 2.58-.257 3.666-.172 1.087.085 2.02.325 2.739.76.359.218.665.485.91.805.03.039.038.096.066.136L149.986 40.89c-7.084-5.913-16.137-9.494-25.976-9.494z" fill="url(#u)"/><path d="M90.516 184.997c-5.351.805-9.167 3.028-7.678 8.075 3.97 13.46 9.43 4.147-8.438 12.754 0 0-13.854 5.126-8.226 9.122 26.237 13.458 108.752 1.331 120.997-19.86-.208-1.895-2.495-3.476-7.6-4.52-17.868-3.423-12.408 4.307-8.437-10.305 1.489-5.48-2.327-6.595-7.679-5.848-8.17 2.929-22.103 7.662-22.103 7.662-14.222 4.36-28.733 4.169-28.733 4.169l-22.103-1.25z" fill="url(#v)"/><path d="M141 97a7.593 7.593 0 0 1-7.593-7.592V74.592a7.593 7.593 0 1 1 15.186 0v14.816c0 4.193-3.4 7.593-7.593 7.593zM111 97a7.593 7.593 0 0 1-7.593-7.592V74.592a7.593 7.593 0 1 1 15.186 0v14.816c0 4.193-3.4 7.593-7.593 7.593z" opacity=".541" fill="#002b22"/><path d="M110.986 76.473a4.31 4.463 0 0 0-4.31 4.465 4.31 4.463 0 0 0 4.31 4.462 4.31 4.463 0 0 0 4.309-4.463 4.31 4.463 0 0 0-4.309-4.464zm30 0a4.31 4.463 0 0 0-4.31 4.465 4.31 4.463 0 0 0 4.31 4.462 4.31 4.463 0 0 0 4.309-4.463 4.31 4.463 0 0 0-4.309-4.464z" opacity=".541" fill="#afe" fill-rule="evenodd"/></svg>