<?xml version="1.0" encoding="UTF-8" standalone="no"?>
<svg
   width="64"
   height="64"
   version="1.1"
   viewBox="0 0 16.933 16.933"
   id="svg14"
   sodipodi:docname="akregator.svg"
   inkscape:version="1.3.2 (091e20ef0f, 2023-11-25)"
   xmlns:inkscape="http://www.inkscape.org/namespaces/inkscape"
   xmlns:sodipodi="http://sodipodi.sourceforge.net/DTD/sodipodi-0.dtd"
   xmlns="http://www.w3.org/2000/svg"
   xmlns:svg="http://www.w3.org/2000/svg"
   xmlns:rdf="http://www.w3.org/1999/02/22-rdf-syntax-ns#"
   xmlns:cc="http://creativecommons.org/ns#"
   xmlns:dc="http://purl.org/dc/elements/1.1/">
  <sodipodi:namedview
     id="namedview14"
     pagecolor="#ffffff"
     bordercolor="#000000"
     borderopacity="0.25"
     inkscape:showpageshadow="2"
     inkscape:pageopacity="0.0"
     inkscape:pagecheckerboard="0"
     inkscape:deskcolor="#d1d1d1"
     inkscape:zoom="7.6875"
     inkscape:cx="26.666667"
     inkscape:cy="32"
     inkscape:window-width="1366"
     inkscape:window-height="696"
     inkscape:window-x="0"
     inkscape:window-y="0"
     inkscape:window-maximized="1"
     inkscape:current-layer="svg14" />
  <defs
     id="defs6">
    <linearGradient
       id="linearGradient2670-5"
       x1="115.54"
       x2="116.74"
       y1="32.849"
       y2="19.81"
       gradientTransform="matrix(1 0 0 1 -113.61 -17.535)"
       gradientUnits="userSpaceOnUse">
      <stop
         stop-color="#fe6f06"
         offset="0"
         id="stop1" />
      <stop
         stop-color="#ff9002"
         offset="1"
         id="stop2" />
    </linearGradient>
    <linearGradient
       id="linearGradient938-3-6"
       x1="80.368"
       x2="82.141"
       y1="13.177"
       y2="14.704"
       gradientTransform="matrix(0.99327,0.11114,-0.11114,0.99327,-64.444,-11.23)"
       gradientUnits="userSpaceOnUse">
      <stop
         stop-color="#fee2a2"
         offset="0"
         id="stop3" />
      <stop
         stop-color="#f0a602"
         offset="1"
         id="stop4" />
    </linearGradient>
    <linearGradient
       id="linearGradient3181"
       x1="121.63"
       x2="121.63"
       y1="9.125"
       y2="6.4109"
       gradientTransform="matrix(1.9521,0,0,1.9521,-230.02,-10.703)"
       gradientUnits="userSpaceOnUse">
      <stop
         stop-color="#fe650b"
         offset="0"
         id="stop5" />
      <stop
         stop-color="#fe8e00"
         offset="1"
         id="stop6" />
    </linearGradient>
  </defs>
  <metadata
     id="metadata6">
    <rdf:RDF>
      <cc:Work
         rdf:about="">
        <dc:format>image/svg+xml</dc:format>
        <dc:type
           rdf:resource="http://purl.org/dc/dcmitype/StillImage" />
        <dc:title />
      </cc:Work>
    </rdf:RDF>
  </metadata>
  <g
     transform="matrix(0.90531,0,0,0.90531,-1.0953243,1.665809)"
     id="g14">
    <rect
       transform="rotate(-0.057549)"
       x="3.2505"
       y="0.25027001"
       width="14.544"
       height="14.544"
       ry="1.2131"
       fill="#fe9001"
       stroke-width="0.99946"
       id="rect7" />
    <path
       d="M 16.836,0.25871 C 16.756799,0.24267 16.67485,0.2343 16.59083,0.2344 l -12.118,0.01239 c -0.67209,6.4029e-4 -1.2127,0.54195 -1.2121,1.214 l 0.0124,12.118 c 6.403e-4,0.6721 0.542,1.2122 1.214,1.2116 l 3.7896,-0.0036 c 3.5541,-0.5625 8.7437,-2.9602 9.5319,-8.6267 l 0.008,7.4041 -0.012,-12.118 c -0.001,-0.58806 -0.41542,-1.0757 -0.96933,-1.1879 z"
       fill="#fafafa"
       stroke-width="0.99946"
       id="path7" />
    <g
       fill="#cdcdcd"
       id="g10">
      <rect
         x="11.5"
         y="9.2284002"
         width="4.2094998"
         height="0.51449001"
         ry="0.20928"
         style="paint-order:stroke fill markers"
         id="rect8" />
      <rect
         x="11.5"
         y="10.334"
         width="4.2094998"
         height="0.51449001"
         ry="0.20928"
         style="paint-order:stroke fill markers"
         id="rect9" />
      <rect
         x="11.5"
         y="11.439"
         width="3.0353999"
         height="0.51449001"
         ry="0.20928"
         style="paint-order:stroke fill markers"
         id="rect10" />
    </g>
    <path
       d="m 17.806,6.1251 c 0,0 -0.28892,3.0633 -3.1504,4.2143 -2.3641,0.95075 0.63344,2.7752 -6.387,4.4132 9.0771,-1.5737 9.6033,-8.5847 9.6033,-8.5847 z"
       fill="url(#linearGradient938-3-6)"
       stroke-width="0.99946"
       id="path10"
       style="fill:url(#linearGradient938-3-6)" />
    <g
       fill="#cdcdcd"
       id="g13">
      <rect
         x="11.5"
         y="2.9978001"
         width="4.2094998"
         height="0.51449001"
         ry="0.20928"
         style="paint-order:stroke fill markers"
         id="rect11" />
      <rect
         x="11.5"
         y="4.1027999"
         width="4.2094998"
         height="0.51449001"
         ry="0.20928"
         style="paint-order:stroke fill markers"
         id="rect12" />
      <rect
         x="11.5"
         y="5.2077999"
         width="3.0353999"
         height="0.51449001"
         ry="0.20928"
         style="paint-order:stroke fill markers"
         id="rect13" />
    </g>
    <circle
       cx="7.4675002"
       cy="4.4576998"
       r="2.648"
       fill="url(#linearGradient3181)"
       stroke-width="1.9522"
       style="fill:url(#linearGradient3181);paint-order:stroke fill markers"
       id="circle13" />
    <path
       d="M 5.436,3.7465 C 5.62268,3.55982 5.82655,3.40426 6.04761,3.2798 6.26867,3.15535 6.49875,3.06201 6.73783,2.99979 6.97691,2.93756 7.22009,2.906445 7.46737,2.906434 c 0.24726,4.3e-6 0.49043,0.031118 0.72951,0.09334 0.23908,0.062251 0.46916,0.15558 0.69022,0.28004 0.22106,0.12444 0.42492,0.28001 0.61161,0.4667 0.058952,0.058952 0.088416,0.13016 0.088426,0.21369 1.24e-5,0.083526 -0.02948,0.15473 -0.088429,0.21369 -0.058954,0.058954 -0.13017,0.08844 -0.2137,0.088448 -0.083505,-8.7e-6 -0.15473,-0.02948 -0.21369,-0.088429 -0.14739,-0.14739 -0.30869,-0.27019 -0.4839,-0.36846 C 8.412217,3.707219 8.230437,3.633533 8.042107,3.584403 7.853787,3.535273 7.662217,3.510698 7.467327,3.510711 7.272457,3.5107142 7.080877,3.53527 6.892547,3.5844 6.704237,3.633528 6.522477,3.70721 6.347237,3.80546 6.172017,3.90371 6.010717,4.02652 5.863337,4.17389 5.804388,4.232839 5.733157,4.262316 5.649637,4.262316 5.566121,4.2623152 5.494887,4.232839 5.435937,4.17389 5.376985,4.114938 5.347508,4.04371 5.347511,3.96019 c 0,-0.083508 0.029475,-0.15474 0.088426,-0.21369 z M 6.24412,4.55462 C 6.41279,4.38595 6.60356,4.25987 6.81644,4.17635 7.02932,4.092837 7.24628,4.05108 7.46734,4.05108 c 0.22108,-2e-7 0.43804,0.041749 0.6509,0.12526 0.2129,0.083526 0.40365,0.2096 0.57232,0.37827 0.058952,0.058952 0.088413,0.13016 0.088429,0.21369 0,0.083516 -0.02948,0.15473 -0.088447,0.2137 -0.058949,0.058949 -0.13017,0.088434 -0.21369,0.088429 -0.083513,3e-7 -0.15474,-0.029472 -0.21369,-0.088424 -0.10972,-0.10972 -0.23376,-0.192 -0.37214,-0.24686 -0.13837,-0.054856 -0.27961,-0.082286 -0.4237,-0.082283 -0.14411,-3.7e-6 -0.28535,0.027424 -0.4237,0.082283 -0.13836,0.054864 -0.26241,0.13715 -0.37211,0.24687 -0.058949,0.058949 -0.13018,0.088429 -0.21369,0.088429 -0.083518,-3.9e-6 -0.15475,-0.02948 -0.2137,-0.088429 -0.058952,-0.058952 -0.088426,-0.13018 -0.088426,-0.2137 -7.7e-6,-0.083521 0.029467,-0.15475 0.088418,-0.2137 z m 1.5155,0.72951 C 7.802199,5.326709 7.833722,5.373779 7.85419,5.42537 7.874671,5.476964 7.884895,5.52976 7.884898,5.58381 7.884886,5.637835 7.874249,5.69106 7.852965,5.74347 7.831674,5.795868 7.800554,5.84253 7.759615,5.88347 7.717041,5.926044 7.669966,5.957572 7.618395,5.978048 7.566817,5.998524 7.513985,6.008737 7.459965,6.008753 7.405927,6.0087538 7.353115,5.998519 7.301525,5.978045 7.249942,5.957569 7.202864,5.926052 7.160285,5.883472 7.119359,5.842546 7.088234,5.795874 7.066961,5.743482 7.045657,5.691065 7.035018,5.637852 7.035026,5.583822 c 3e-7,-0.054039 0.010239,-0.10684 0.030702,-0.15843 0.020473,-0.051575 0.051991,-0.098661 0.094567,-0.14123 0.040939,-0.040939 0.087611,-0.072049 0.14001,-0.09334 0.052403,-0.021283 0.10562,-0.03193 0.15966,-0.03193 0.054031,-8.2e-6 0.10726,0.010644 0.15966,0.031935 0.052393,0.02128 0.09906,0.052388 0.13999,0.093321 z"
       fill="#ffffff"
       stroke-width="0.13791"
       id="path13" />
    <path
       d="M 5.436,9.9365 C 5.62268,9.74982 5.82655,9.59426 6.04761,9.4698 6.26867,9.34535 6.49875,9.25201 6.73783,9.18979 6.97691,9.12756 7.22009,9.096445 7.46737,9.096434 c 0.24726,4.3e-6 0.49043,0.031118 0.72951,0.09334 0.23908,0.062251 0.46916,0.15558 0.69022,0.28004 0.22106,0.12444 0.42492,0.28001 0.61161,0.4667 0.058952,0.058952 0.088416,0.13016 0.088426,0.21369 1.24e-5,0.08353 -0.02948,0.15473 -0.088429,0.21368 -0.058954,0.05896 -0.13017,0.08844 -0.2137,0.08845 -0.083505,-9e-6 -0.15473,-0.02948 -0.21369,-0.08843 -0.14739,-0.14739 -0.30869,-0.27019 -0.4839,-0.36846 -0.1752,-0.098234 -0.35698,-0.17192 -0.54531,-0.22105 -0.18832,-0.04913 -0.37989,-0.073705 -0.57478,-0.073692 -0.19487,3.2e-6 -0.38645,0.024559 -0.57478,0.073689 -0.18831,0.049128 -0.37007,0.12281 -0.54531,0.22106 -0.17522,0.098251 -0.33652,0.22106 -0.4839,0.36843 -0.058949,0.05895 -0.13018,0.08843 -0.2137,0.08843 -0.083516,-10e-7 -0.15475,-0.02948 -0.2137,-0.08843 -0.058952,-0.05895 -0.088429,-0.13018 -0.088426,-0.2137 0,-0.08351 0.029475,-0.15474 0.088426,-0.21369 z m 0.80812,0.80812 c 0.16867,-0.16867 0.35944,-0.29475 0.57232,-0.37828 0.21288,-0.08351 0.42984,-0.12527 0.6509,-0.12527 0.22108,-1e-6 0.43804,0.04175 0.6509,0.12526 0.2129,0.08353 0.40365,0.2096 0.57232,0.37828 0.058952,0.05895 0.088413,0.13016 0.088429,0.21368 0,0.08352 -0.02948,0.15473 -0.088447,0.2137 -0.058949,0.05895 -0.13017,0.08844 -0.21369,0.08843 -0.083513,10e-7 -0.15474,-0.02947 -0.21369,-0.08842 -0.10972,-0.10972 -0.23376,-0.192 -0.37214,-0.24686 -0.13837,-0.05486 -0.27961,-0.08229 -0.4237,-0.08228 -0.14411,-3e-6 -0.28535,0.02742 -0.4237,0.08228 -0.13836,0.05486 -0.26241,0.13715 -0.37211,0.24687 -0.058949,0.05895 -0.13018,0.08843 -0.21369,0.08843 -0.083518,-4e-6 -0.15475,-0.02948 -0.2137,-0.08843 -0.058952,-0.05895 -0.088426,-0.13018 -0.088426,-0.2137 -7.7e-6,-0.08352 0.029467,-0.15476 0.088418,-0.2137 z m 1.5155,0.72951 c 0.042579,0.04258 0.074102,0.08965 0.09457,0.14124 0.020481,0.05159 0.030705,0.10439 0.030708,0.15844 -1.2e-5,0.05402 -0.010649,0.10725 -0.031933,0.15966 -0.021291,0.0524 -0.052411,0.09906 -0.09335,0.14 -0.042574,0.04258 -0.089649,0.0741 -0.14122,0.09458 -0.051578,0.02048 -0.10441,0.03069 -0.15843,0.03071 -0.054038,10e-7 -0.10685,-0.01023 -0.15844,-0.03071 C 7.249942,12.14757 7.202864,12.11606 7.160285,12.07348 7.119359,12.03255 7.088234,11.98588 7.066961,11.93349 7.045657,11.88107 7.035018,11.82786 7.035026,11.77383 c 3e-7,-0.05404 0.010239,-0.10684 0.030702,-0.15843 0.020473,-0.05157 0.051991,-0.09866 0.094567,-0.14124 0.040939,-0.04094 0.087611,-0.07205 0.14001,-0.09334 0.052403,-0.02128 0.10562,-0.03193 0.15966,-0.03193 0.054031,-9e-6 0.10726,0.01064 0.15966,0.03194 0.052393,0.02128 0.09906,0.05239 0.13999,0.09332 z"
       fill="#cdcdcd"
       stroke-width="0.13791"
       id="path14" />
  </g>
</svg>
