<svg xmlns="http://www.w3.org/2000/svg" xmlns:xlink="http://www.w3.org/1999/xlink" width="64" height="64" version="1.0"><defs><linearGradient id="b"><stop offset="0" stop-color="#f9f06b"/><stop offset=".239" stop-color="#f5d859"/><stop offset=".597" stop-color="#e66100"/><stop offset=".834" stop-color="#e01b24"/><stop offset="1" stop-color="#e01b24"/></linearGradient><linearGradient id="a"><stop offset="0" stop-color="#424048"/><stop offset=".047" stop-color="#f6f5f4"/><stop offset=".097" stop-color="#949390"/><stop offset=".9" stop-color="#d5d3cf"/><stop offset=".95" stop-color="#f6f5f4"/><stop offset="1" stop-color="#424048"/></linearGradient><linearGradient xlink:href="#a" id="c" x1="177" x2="600" y1="619.964" y2="619.964" gradientTransform="matrix(.25 0 0 .24306 -32 93.564)" gradientUnits="userSpaceOnUse"/><radialGradient xlink:href="#b" id="d" cx="64.972" cy="226" r="44.972" fx="64.972" fy="226" gradientTransform="matrix(1.17689 0 0 1.20378 -11.493 -46.054)" gradientUnits="userSpaceOnUse"/></defs><g transform="matrix(.5 0 0 .5 0 -86)"><rect width="106" height="18" x="12" y="270" fill="url(#c)" rx="9" ry="9" style="fill:url(#c);marker:none"/><path fill="url(#d)" d="M48 180h31.945c8.864 0 14.352 7.29 16 16l14 76H20l12-76c1.382-8.756 7.136-16 16-16z" style="fill:url(#d);marker:none"/><path fill="#fff" d="M56 180c-8.864 0-14.618 7.244-16 16l-12 76h10l12-76c1.382-8.756 7.136-16 16-16z" opacity=".081" style="marker:none"/><path fill="#f6f5f4" d="M21 269.823a8.975 8.975 0 0 0-8.771 7 8.975 8.975 0 0 0 8.771 7h88a8.975 8.975 0 0 0 8.771-7 8.975 8.975 0 0 0-8.771-7z" style="marker:none"/><rect width="8" height="40" x="60" y="200" fill="#fff" rx="4" ry="4" style="marker:none"/><rect width="8" height="8" x="60" y="244" fill="#fff" rx="4" ry="4" style="marker:none"/></g></svg>