<?xml version="1.0" encoding="UTF-8" standalone="no"?>
<svg
   width="64"
   height="64"
   version="1"
   id="svg20"
   sodipodi:docname="cs-cat-hardware.svg"
   inkscape:version="1.3.2 (091e20ef0f, 2023-11-25)"
   xmlns:inkscape="http://www.inkscape.org/namespaces/inkscape"
   xmlns:sodipodi="http://sodipodi.sourceforge.net/DTD/sodipodi-0.dtd"
   xmlns="http://www.w3.org/2000/svg"
   xmlns:svg="http://www.w3.org/2000/svg">
  <defs
     id="defs20" />
  <sodipodi:namedview
     id="namedview20"
     pagecolor="#ffffff"
     bordercolor="#000000"
     borderopacity="0.25"
     inkscape:showpageshadow="2"
     inkscape:pageopacity="0.0"
     inkscape:pagecheckerboard="0"
     inkscape:deskcolor="#d1d1d1"
     inkscape:zoom="6.859375"
     inkscape:cx="32"
     inkscape:cy="31.927107"
     inkscape:window-width="1366"
     inkscape:window-height="696"
     inkscape:window-x="0"
     inkscape:window-y="0"
     inkscape:window-maximized="1"
     inkscape:current-layer="svg20" />
  <g
     id="g20"
     transform="translate(-2.729285,-1.8095524)">
    <path
       style="opacity:0.2;stroke-width:1.09772"
       d="m 15.710867,15.682887 c -1.62243,0 -2.927619,1.355684 -2.927619,3.039586 v 33.436549 c 0,1.683902 1.305189,3.040684 2.927619,3.040684 h 5.85414 v -6.58632 h 13.172639 v 6.58632 h 27.809637 c 1.620234,0 2.926521,-1.356782 2.926521,-3.040684 V 18.722473 c 0,-1.685 -1.306287,-3.040684 -2.926521,-3.040684 z"
       id="path1" />
    <path
       style="fill:#419d45;stroke-width:1.09772"
       d="m 15.710867,14.585167 c -1.62243,0 -2.927619,1.355684 -2.927619,3.039586 v 33.436549 c 0,1.683902 1.305189,3.040684 2.927619,3.040684 h 5.85414 v -6.586319 h 13.172639 v 6.586319 h 27.809637 c 1.620234,0 2.926521,-1.356782 2.926521,-3.040684 V 17.624753 c 0,-1.685 -1.306287,-3.040684 -2.926521,-3.040684 z"
       id="path2" />
    <rect
       style="fill:#4e4e4e;stroke-width:1.09772"
       width="13.172639"
       height="13.172639"
       x="32.542206"
       y="25.561268"
       rx="2.6345279"
       ry="2.6345279"
       id="rect2" />
    <path
       style="opacity:0.2;fill:none;stroke:#000000;stroke-width:4.39088;stroke-linecap:round;stroke-linejoin:round"
       d="m 6.2225054,11.317254 h 4.3707916 v 46.08338"
       id="path3" />
    <path
       style="fill:none;stroke:#b7b7b7;stroke-width:4.39088;stroke-linecap:round;stroke-linejoin:round"
       d="M 6.2225054,10.219535 H 10.593297 V 56.302914"
       id="path4" />
    <g
       style="opacity:0.2"
       transform="matrix(1.0977199,0,0,1.0977199,-0.389391,0.31371001)"
       id="g7">
      <rect
         width="4"
         height="8"
         x="34"
         y="44"
         id="rect4" />
      <rect
         width="4"
         height="8"
         x="40"
         y="44"
         id="rect5" />
      <rect
         width="4"
         height="8"
         x="46"
         y="44"
         id="rect6" />
      <rect
         width="4"
         height="8"
         x="52"
         y="44"
         id="rect7" />
    </g>
    <g
       id="g11"
       transform="matrix(1.0977199,0,0,1.0977199,-0.389391,-0.78400991)">
      <rect
         style="fill:#f8c44e"
         width="4"
         height="8"
         x="34"
         y="44"
         id="rect8" />
      <rect
         style="fill:#f8c44e"
         width="4"
         height="8"
         x="40"
         y="44"
         id="rect9" />
      <rect
         style="fill:#f8c44e"
         width="4"
         height="8"
         x="46"
         y="44"
         id="rect10" />
      <rect
         style="fill:#f8c44e"
         width="4"
         height="8"
         x="52"
         y="44"
         id="rect11" />
    </g>
    <g
       id="g19"
       transform="matrix(1.0977199,0,0,1.0977199,-0.389391,-0.78400991)">
      <rect
         style="fill:#b7b7b7"
         width="2"
         height="4"
         x="32"
         y="21"
         id="rect12" />
      <rect
         style="fill:#b7b7b7"
         width="2"
         height="4"
         x="38"
         y="21"
         id="rect13" />
      <rect
         style="fill:#b7b7b7"
         width="2"
         height="4"
         x="32"
         y="35"
         id="rect14" />
      <rect
         style="fill:#b7b7b7"
         width="2"
         height="4"
         x="38"
         y="35"
         id="rect15" />
      <rect
         style="fill:#b7b7b7"
         width="2"
         height="4"
         x="26"
         y="-45"
         transform="rotate(90)"
         id="rect16" />
      <rect
         style="fill:#b7b7b7"
         width="2"
         height="4"
         x="32"
         y="-45"
         transform="rotate(90)"
         id="rect17" />
      <rect
         style="fill:#b7b7b7"
         width="2"
         height="4"
         x="26"
         y="-31"
         transform="rotate(90)"
         id="rect18" />
      <rect
         style="fill:#b7b7b7"
         width="2"
         height="4"
         x="32"
         y="-31"
         transform="rotate(90)"
         id="rect19" />
    </g>
    <path
       style="opacity:0.2;fill:#ffffff;stroke-width:1.09772"
       d="M 6.2226152,8.0234361 A 2.1956594,2.1956594 0 0 0 4.0507763,10.753026 2.1956594,2.1956594 0 0 1 6.2226152,9.121156 h 4.3717798 a 2.1956594,2.1956594 0 0 1 2.195439,2.195001 v -1.09772 A 2.1956594,2.1956594 0 0 0 10.594395,8.0234361 Z"
       id="path19" />
    <path
       style="opacity:0.2;fill:#ffffff;stroke-width:1.09772"
       d="m 62.547283,14.584069 -46.835318,0.0022 c -1.62243,0 -2.928717,1.354587 -2.928717,3.038489 v 1.09772 c 0,-1.683902 1.306287,-3.038489 2.928717,-3.038489 l 46.835318,-0.0022 c 1.620234,0 2.926521,1.355684 2.926521,3.040684 v -1.09772 c 0,-1.685 -1.306287,-3.040684 -2.926521,-3.040684 z"
       id="path20" />
  </g>
</svg>
