<?xml version="1.0" encoding="UTF-8" standalone="no"?>
<svg
   width="64"
   height="64"
   version="1.1"
   id="svg6"
   sodipodi:docname="balena-etcher.svg"
   inkscape:version="1.3.2 (1:1.3.2+202311252150+091e20ef0f)"
   xmlns:inkscape="http://www.inkscape.org/namespaces/inkscape"
   xmlns:sodipodi="http://sodipodi.sourceforge.net/DTD/sodipodi-0.dtd"
   xmlns="http://www.w3.org/2000/svg"
   xmlns:svg="http://www.w3.org/2000/svg">
  <sodipodi:namedview
     id="namedview6"
     pagecolor="#ffffff"
     bordercolor="#000000"
     borderopacity="0.25"
     inkscape:showpageshadow="2"
     inkscape:pageopacity="0.0"
     inkscape:pagecheckerboard="0"
     inkscape:deskcolor="#d1d1d1"
     inkscape:zoom="6.640625"
     inkscape:cx="32"
     inkscape:cy="31.924706"
     inkscape:window-width="1366"
     inkscape:window-height="696"
     inkscape:window-x="0"
     inkscape:window-y="0"
     inkscape:window-maximized="1"
     inkscape:current-layer="svg6" />
  <defs
     id="defs2">
    <linearGradient
       id="linearGradient913"
       x1="399.57"
       x2="399.57"
       y1="545.8"
       y2="517.8"
       gradientTransform="matrix(2.1429 0 0 2.1429 -753.55 -1107.5)"
       gradientUnits="userSpaceOnUse">
      <stop
         stop-color="#3889e9"
         offset="0"
         id="stop1" />
      <stop
         stop-color="#5ea5fb"
         offset="1"
         id="stop2" />
    </linearGradient>
  </defs>
  <circle
     cx="104.83"
     cy="32.044"
     r="0"
     fill="url(#linearGradient913)"
     stroke-width="1.5715"
     id="circle2" />
  <path
     d="m31.653 3.0019a6.468 6.4807 0 0 0-3.3873 0.86454l-19.032 11.009a6.468 6.4807 0 0 0-3.2343 5.613v22.02a6.468 6.4807 0 0 0 3.234 5.6125l19.032 11.01a6.468 6.4807 0 0 0 6.468 0l19.032-11.01a6.468 6.4807 0 0 0 3.2343-5.613v-22.02a6.468 6.4807 0 0 0-3.2343-5.613l-19.032-11.009a6.468 6.4807 0 0 0-3.0813-0.86454z"
     fill="#c8f178"
     id="path2" />
  <path
     d="m31.561 9.0008c-0.47696-0.011756-0.94971 0.10819-1.3686 0.35413l-16.898 9.9332c-0.75409 0.44324-1.295 1.4027-1.2949 2.2805v19.872c-1e-6 0.87784 0.54957 1.8398 1.2949 2.278l16.9 9.9358c0.78497 0.46144 1.8245 0.46144 2.6095 0l16.9-9.9358c0.74529-0.43806 1.295-1.4002 1.2949-2.278v-19.874c5.7e-5 -0.8777-0.54963-1.8399-1.2949-2.278l-16.898-9.9332a1.8873 1.9291 0 0 0-0.0025 0c-0.3838-0.22535-0.80621-0.34392-1.2408-0.35413a1.8873 1.9291 0 0 0-0.0025 0z"
     fill="#86bd1f"
     id="path3" />
  <path
     d="m7.7736 16.036a6.468 6.4806 0 0 0-1.4499 2.4492l23.76 13.838v27.517a6.468 6.4806 0 0 0 1.2645 0.15864 6.468 6.4806 0 0 0 1.5688-0.1642v-27.511l23.762-13.841a6.468 6.4806 0 0 0-1.4554-2.4464l-23.724 13.816z"
     fill="#c8f178"
     id="path4" />
</svg>
