<svg xmlns="http://www.w3.org/2000/svg" xmlns:xlink="http://www.w3.org/1999/xlink" width="64" height="64" viewBox="0 0 16.933 16.933"><defs><linearGradient id="b"><stop offset="0" style="stop-color:#b588e1;stop-opacity:.67000002"/><stop offset="1" style="stop-color:#9b61d4;stop-opacity:.69999999"/></linearGradient><linearGradient xlink:href="#a" id="c" x1="15.061" x2="15.061" y1="8.904" y2="19.672" gradientTransform="matrix(1.10127 0 0 1.3 1.623 -1.702)" gradientUnits="userSpaceOnUse"/><linearGradient id="a"><stop offset="0" style="stop-color:#7151a7;stop-opacity:1"/><stop offset="1" style="stop-color:#634793;stop-opacity:1"/></linearGradient><linearGradient xlink:href="#b" id="e" x1="7.479" x2="30" y1="34" y2="34" gradientTransform="translate(96.271 139.965) scale(.26458)" gradientUnits="userSpaceOnUse"/><filter id="d" width="1.12" height="1.12" x="-.06" y="-.06" style="color-interpolation-filters:sRGB"><feGaussianBlur stdDeviation=".75"/></filter></defs><g transform="translate(-96.29 -139.965)"><g style="fill:#000;fill-opacity:1" transform="translate(101.566 140.158) scale(.24571)"><path d="M-4.05 33.478a2.716 3.206 0 0 0-.271 1.294v7.805c0 5.046 10.805 9.095 24.226 9.095 13.425 0 24.23-4.056 24.23-9.102v-7.793c0-.437-.113-.877-.272-1.294C42.192 37.9 32.15 41.28 19.91 41.28c-12.251 0-22.29-3.38-23.962-7.803z" style="fill:#b588e1;fill-opacity:1;stroke-width:2.22213"/><path d="M-4.05 23.471a2.716 3.206 0 0 0-.271 1.301v7.801c0 5.046 10.805 9.102 24.226 9.102 13.425 0 24.23-4.06 24.23-9.102v-7.798c0-.442-.113-.879-.272-1.304-1.671 4.423-11.713 7.806-23.952 7.806-12.251 0-22.29-3.383-23.962-7.799z" style="fill:#a769e5;fill-opacity:1;stroke-width:2.22213"/><rect width="48.456" height="26.002" x="-4.321" y="5.673" rx="24.228" ry="9.102" style="fill:url(#c);fill-opacity:1;stroke-width:2.22213"/><path d="M-4.05 43.473a2.716 3.206 0 0 0-.271 1.294v7.805c0 5.046 10.805 9.095 24.226 9.095 13.425 0 24.23-4.056 24.23-9.102v-7.793c0-.437-.113-.877-.272-1.295-1.671 4.419-11.713 7.799-23.952 7.799-12.251 0-22.29-3.38-23.962-7.803z" style="fill:#e8c0ff;fill-opacity:1;stroke-width:2.22213"/></g><rect width="30" height="30" x="5" y="18" rx="6" ry="6" style="opacity:.25;fill:#000;fill-opacity:1;stroke:none;stroke-width:5.7;stroke-linecap:round;stroke-linejoin:round;stroke-miterlimit:4;stroke-dasharray:none;stroke-opacity:1;filter:url(#d)" transform="translate(96.227 139.806) scale(.2734)"/><rect width="7.938" height="7.938" x="97.594" y="144.727" rx="1.587" ry="1.587" style="fill:url(#e);fill-opacity:1;stroke:none;stroke-width:1.50812;stroke-linecap:round;stroke-linejoin:round;stroke-miterlimit:4;stroke-dasharray:none;stroke-opacity:1;opacity:1"/><text xml:space="preserve" x="99.586" y="150.842" style="font-style:normal;font-weight:400;font-size:5.65454px;line-height:1.25;font-family:sans-serif;letter-spacing:0;word-spacing:0;fill:#fff;fill-opacity:1;stroke:none;stroke-width:.141363"><tspan x="99.586" y="150.842" style="fill:#fff;fill-opacity:1;stroke-width:.141363">B</tspan></text></g></svg>