<?xml version="1.0" encoding="UTF-8" standalone="no"?>
<svg
   height="64"
   viewBox="0 0 2.4576686 2.4576"
   width="64"
   version="1.1"
   id="svg19"
   sodipodi:docname="Office Icon.svg"
   inkscape:version="1.3.2 (091e20ef0f, 2023-11-25)"
   xmlns:inkscape="http://www.inkscape.org/namespaces/inkscape"
   xmlns:sodipodi="http://sodipodi.sourceforge.net/DTD/sodipodi-0.dtd"
   xmlns:xlink="http://www.w3.org/1999/xlink"
   xmlns="http://www.w3.org/2000/svg"
   xmlns:svg="http://www.w3.org/2000/svg">
  <defs
     id="defs19">
    <linearGradient
       id="linearGradient19"
       gradientUnits="userSpaceOnUse"
       x1="61.486"
       x2="61.486"
       y1="-4.8870001"
       y2="88.780998">
      <stop
         offset="0"
         stop-color="#ffb900"
         id="stop11-3" />
      <stop
         offset=".166"
         stop-color="#ef8400"
         id="stop12-6" />
      <stop
         offset=".313"
         stop-color="#e25c01"
         id="stop13-7" />
      <stop
         offset=".429"
         stop-color="#db4401"
         id="stop14-5" />
      <stop
         offset=".5"
         stop-color="#d83b01"
         id="stop15-3" />
    </linearGradient>
    <linearGradient
       id="linearGradient20"
       gradientUnits="userSpaceOnUse"
       x1="45.823002"
       x2="35.098999"
       xlink:href="#b"
       y1="-4.8099999"
       y2="11.039" />
    <linearGradient
       id="linearGradient21">
      <stop
         offset="0"
         stop-opacity=".4"
         id="stop3-5" />
      <stop
         offset="1"
         stop-opacity="0"
         id="stop4-6" />
    </linearGradient>
    <linearGradient
       id="linearGradient22"
       gradientUnits="userSpaceOnUse"
       x1="44.737999"
       x2="-5.901"
       y1="-3.312"
       y2="71.527">
      <stop
         offset="0"
         stop-color="#800600"
         id="stop5-2" />
      <stop
         offset=".6"
         stop-color="#c72127"
         id="stop6-9" />
      <stop
         offset=".728"
         stop-color="#c13959"
         id="stop7-1" />
      <stop
         offset=".847"
         stop-color="#bc4b81"
         id="stop8-2" />
      <stop
         offset=".942"
         stop-color="#b95799"
         id="stop9-7" />
      <stop
         offset="1"
         stop-color="#b85ba2"
         id="stop10-0" />
    </linearGradient>
    <linearGradient
       id="linearGradient23"
       gradientUnits="userSpaceOnUse"
       x1="63.514999"
       x2="33.002998"
       xlink:href="#b"
       y1="87.297997"
       y2="84.535004" />
    <linearGradient
       id="linearGradient24"
       gradientUnits="userSpaceOnUse"
       x1="16.941999"
       x2="85.670998"
       y1="83.360001"
       y2="89.583">
      <stop
         offset="0"
         stop-color="#f32b44"
         id="stop16" />
      <stop
         offset=".6"
         stop-color="#a4070a"
         id="stop17" />
    </linearGradient>
  </defs>
  <sodipodi:namedview
     id="namedview19"
     pagecolor="#ffffff"
     bordercolor="#000000"
     borderopacity="0.25"
     inkscape:showpageshadow="2"
     inkscape:pageopacity="0.0"
     inkscape:pagecheckerboard="0"
     inkscape:deskcolor="#d1d1d1"
     inkscape:zoom="7.6875"
     inkscape:cx="32"
     inkscape:cy="32"
     inkscape:window-width="1366"
     inkscape:window-height="696"
     inkscape:window-x="0"
     inkscape:window-y="0"
     inkscape:window-maximized="1"
     inkscape:current-layer="svg19" />
  <linearGradient
     id="a"
     gradientUnits="userSpaceOnUse"
     x1="16.941999"
     x2="85.670998"
     y1="83.360001"
     y2="89.583"
     gradientTransform="matrix(0.02293382,0,0,0.02293382,0.03840197,-24.384713)">
    <stop
       offset="0"
       stop-color="#f32b44"
       id="stop1" />
    <stop
       offset=".6"
       stop-color="#a4070a"
       id="stop2" />
  </linearGradient>
  <linearGradient
     id="b">
    <stop
       offset="0"
       stop-opacity=".4"
       id="stop3" />
    <stop
       offset="1"
       stop-opacity="0"
       id="stop4" />
  </linearGradient>
  <linearGradient
     id="c"
     gradientUnits="userSpaceOnUse"
     x1="63.514999"
     x2="33.002998"
     xlink:href="#b"
     y1="87.297997"
     y2="84.535004"
     gradientTransform="matrix(0.02293382,0,0,0.02293382,0.03840197,-24.384713)" />
  <linearGradient
     id="d"
     gradientUnits="userSpaceOnUse"
     x1="44.737999"
     x2="-5.901"
     y1="-3.312"
     y2="71.527"
     gradientTransform="matrix(0.02293382,0,0,0.02293382,0.03840197,-24.384713)">
    <stop
       offset="0"
       stop-color="#800600"
       id="stop5" />
    <stop
       offset=".6"
       stop-color="#c72127"
       id="stop6" />
    <stop
       offset=".728"
       stop-color="#c13959"
       id="stop7" />
    <stop
       offset=".847"
       stop-color="#bc4b81"
       id="stop8" />
    <stop
       offset=".942"
       stop-color="#b95799"
       id="stop9" />
    <stop
       offset="1"
       stop-color="#b85ba2"
       id="stop10" />
  </linearGradient>
  <linearGradient
     id="e"
     gradientUnits="userSpaceOnUse"
     x1="45.823002"
     x2="35.098999"
     xlink:href="#b"
     y1="-4.8099999"
     y2="11.039"
     gradientTransform="matrix(0.02293382,0,0,0.02293382,0.03840197,-24.384713)" />
  <linearGradient
     id="f"
     gradientUnits="userSpaceOnUse"
     x1="61.486"
     x2="61.486"
     y1="-4.8870001"
     y2="88.780998"
     gradientTransform="matrix(0.02293382,0,0,0.02293382,0.03840197,-24.384713)">
    <stop
       offset="0"
       stop-color="#ffb900"
       id="stop11" />
    <stop
       offset=".166"
       stop-color="#ef8400"
       id="stop12" />
    <stop
       offset=".313"
       stop-color="#e25c01"
       id="stop13" />
    <stop
       offset=".429"
       stop-color="#db4401"
       id="stop14" />
    <stop
       offset=".5"
       stop-color="#d83b01"
       id="stop15" />
  </linearGradient>
  <g
     id="g24"
     transform="translate(0.28714784,24.512698)">
    <path
       d="m 0.47742411,-22.651879 c -0.0624717,0 -0.11340775,0.04864 -0.11340775,0.109004 0,0.04103 0.0236448,0.07619 0.0588252,0.09495 l 0.43844879,0.23498 a 0.23186093,0.23186093 0 0 0 0.11395816,0.02988 c 0.026695,0 0.0521744,-0.0047 0.0758193,-0.01289 l 0.1497807,-0.0416 v -0.414896 c 6.193e-4,5.74e-4 -0.72285102,5.74e-4 -0.7234473,5.74e-4 z"
       fill="url(#a)"
       id="path15"
       style="fill:url(#a);stroke-width:0.0229338" />
    <path
       d="m 0.47742411,-22.651879 c -0.0624717,0 -0.11340775,0.04864 -0.11340775,0.109004 0,0.04103 0.0236448,0.07619 0.0588252,0.09495 l 0.43844879,0.23498 a 0.23186093,0.23186093 0 0 0 0.11395816,0.02988 c 0.026695,0 0.0521744,-0.0047 0.0758193,-0.01289 l 0.1497807,-0.0416 v -0.414896 c 6.193e-4,5.74e-4 -0.72285102,5.74e-4 -0.7234473,5.74e-4 z"
       fill="url(#c)"
       id="path16"
       style="fill:url(#c);stroke-width:0.0229338" />
    <path
       d="m 1.0414355,-24.375929 a 0.22860432,0.22860432 0 0 0 -0.0636872,-0.0088 c -0.0357768,0 -0.0715535,0.007 -0.10370674,0.02344 -0.006651,0.0029 -0.71315009,0.386756 -0.71315009,0.386756 -0.009701,0.0047 -0.0188057,0.01055 -0.0272912,0.01642 -0.001193,5.73e-4 -0.001812,0.0012 -0.003027,0.0018 -0.005458,0.0041 -0.0103202,0.0082 -0.0157555,0.01229 -0.002431,0.0018 -0.004862,0.0041 -0.006674,0.0059 -0.003027,0.0029 -0.006077,0.0058 -0.0084855,0.0088 -0.0084855,0.0088 -0.02304849,0.02752 -0.02304849,0.02752 a 0.20984446,0.20984446 0 0 0 -0.03820774,0.121343 v 1.019637 c 0,0.06039 0.05093601,0.109028 0.11340774,0.109028 0.0157555,0 0.0303185,-0.0029 0.043666,-0.0088 l 0.20193228,-0.109578 c 0.0363731,-0.01757 0.065499,-0.04747 0.0806583,-0.0844 0.003624,-0.0076 0.006651,-0.01697 0.008486,-0.02637 5.9628e-4,-0.0023 0.001215,-0.0053 0.001215,-0.0076 0,-0.0011 5.9628e-4,-0.0029 5.9628e-4,-0.0041 6.1921e-4,-0.0041 0.001215,-0.0088 0.001215,-0.01289 0,-0.0035 6.1922e-4,-0.0065 6.1922e-4,-0.01 v -0.542661 -0.169366 c 0,-0.04747 0.0212138,-0.09024 0.0545825,-0.120127 0,0 -0.0157785,0.01406 0,0 0.0157555,-0.01406 0.036373,-0.02637 0.060637,-0.03456 0.0242411,-0.0088 0.59793054,-0.209203 0.59793054,-0.209203 v -0.338136 z"
       fill="url(#d)"
       id="path17"
       style="fill:url(#d);stroke-width:0.0229338" />
    <path
       d="m 1.0414355,-24.375929 a 0.22860432,0.22860432 0 0 0 -0.0636872,-0.0088 c -0.0357768,0 -0.0715535,0.007 -0.10370674,0.02344 -0.006651,0.0029 -0.71315009,0.386756 -0.71315009,0.386756 -0.009701,0.0047 -0.0188057,0.01055 -0.0272912,0.01642 -0.001193,5.73e-4 -0.001812,0.0012 -0.003027,0.0018 -0.005458,0.0041 -0.0103202,0.0082 -0.0157555,0.01229 -0.002431,0.0018 -0.004862,0.0041 -0.006674,0.0059 -0.003027,0.0029 -0.006077,0.0058 -0.0084855,0.0088 -0.0084855,0.0088 -0.02304849,0.02752 -0.02304849,0.02752 a 0.20984446,0.20984446 0 0 0 -0.03820774,0.121343 v 1.019637 c 0,0.06039 0.05093601,0.109028 0.11340774,0.109028 0.0157555,0 0.0303185,-0.0029 0.043666,-0.0088 l 0.20193228,-0.109578 c 0.0363731,-0.01757 0.065499,-0.04747 0.0806583,-0.0844 0.003624,-0.0076 0.006651,-0.01697 0.008486,-0.02637 5.9628e-4,-0.0023 0.001215,-0.0053 0.001215,-0.0076 0,-0.0011 5.9628e-4,-0.0029 5.9628e-4,-0.0041 6.1921e-4,-0.0041 0.001215,-0.0088 0.001215,-0.01289 0,-0.0035 6.1922e-4,-0.0065 6.1922e-4,-0.01 v -0.542661 -0.169366 c 0,-0.04747 0.0212138,-0.09024 0.0545825,-0.120127 0,0 -0.0157785,0.01406 0,0 0.0157555,-0.01406 0.036373,-0.02637 0.060637,-0.03456 0.0242411,-0.0088 0.59793054,-0.209203 0.59793054,-0.209203 v -0.338136 z"
       fill="url(#e)"
       id="path18"
       style="fill:url(#e);stroke-width:0.0229338" />
    <path
       d="m 1.6872978,-24.193216 -0.6361383,-0.17987 c 0.092171,0.03458 0.1497579,0.112514 0.1497579,0.20746 0,0 -5.734e-4,1.724623 0,1.766225 6.192e-4,0.09375 -0.061233,0.174045 -0.1497579,0.203928 0.019402,-0.0053 0.6361383,-0.176981 0.6361383,-0.176981 0.091552,-0.02812 0.15767,-0.110174 0.15767,-0.208009 v -1.404743 c 5.963e-4,-0.09724 -0.066118,-0.179893 -0.15767,-0.20801 z"
       fill="url(#f)"
       id="path19"
       style="fill:url(#f);stroke-width:0.0229338" />
  </g>
</svg>
