<?xml version="1.0" encoding="UTF-8" standalone="no"?>
<svg
   width="64"
   height="64"
   version="1.1"
   viewBox="0 0 16.933 16.933"
   id="svg20"
   sodipodi:docname="gedit.svg"
   inkscape:version="1.3.2 (091e20ef0f, 2023-11-25)"
   xmlns:inkscape="http://www.inkscape.org/namespaces/inkscape"
   xmlns:sodipodi="http://sodipodi.sourceforge.net/DTD/sodipodi-0.dtd"
   xmlns="http://www.w3.org/2000/svg"
   xmlns:svg="http://www.w3.org/2000/svg"
   xmlns:rdf="http://www.w3.org/1999/02/22-rdf-syntax-ns#"
   xmlns:cc="http://creativecommons.org/ns#"
   xmlns:dc="http://purl.org/dc/elements/1.1/">
  <sodipodi:namedview
     id="namedview20"
     pagecolor="#ffffff"
     bordercolor="#000000"
     borderopacity="0.25"
     inkscape:showpageshadow="2"
     inkscape:pageopacity="0.0"
     inkscape:pagecheckerboard="0"
     inkscape:deskcolor="#d1d1d1"
     inkscape:zoom="7.6875"
     inkscape:cx="32"
     inkscape:cy="34.471545"
     inkscape:window-width="1366"
     inkscape:window-height="696"
     inkscape:window-x="0"
     inkscape:window-y="0"
     inkscape:window-maximized="1"
     inkscape:current-layer="g20" />
  <defs
     id="defs3">
    <filter
       id="filter1066-6"
       x="-0.063922505"
       y="-0.056531058"
       width="1.127845"
       height="1.1130621"
       color-interpolation-filters="sRGB">
      <feGaussianBlur
         stdDeviation="0.22705935"
         id="feGaussianBlur1" />
    </filter>
    <filter
       id="filter1100-7"
       x="-0.12197176"
       y="-0.11847621"
       width="1.2439435"
       height="1.2369524"
       color-interpolation-filters="sRGB">
      <feGaussianBlur
         stdDeviation="0.47586465"
         id="feGaussianBlur2" />
    </filter>
    <linearGradient
       id="linearGradient938-3"
       x1="80.095299"
       x2="81.438843"
       y1="13.038444"
       y2="14.277016"
       gradientTransform="matrix(0.96156,0,0,0.96156,-61.884,0.28327)"
       gradientUnits="userSpaceOnUse">
      <stop
         stop-color="#fafafa"
         offset="0"
         id="stop2" />
      <stop
         stop-color="#90a0b3"
         offset="1"
         id="stop3" />
    </linearGradient>
    <linearGradient
       id="linearGradient4400"
       x1="624"
       x2="688"
       y1="369.23999"
       y2="369.23999"
       gradientTransform="matrix(0.02303391,0.02303391,-0.024982,0.024982,3.5747416,-12.340194)"
       gradientUnits="userSpaceOnUse">
      <stop
         stop-color="#5884f4"
         offset="0"
         id="stop7" />
      <stop
         stop-color="#5884f4"
         offset=".278"
         id="stop8" />
      <stop
         stop-color="#2f5fdd"
         offset=".278"
         id="stop9" />
      <stop
         stop-color="#2f5fdd"
         offset=".70735"
         id="stop10" />
      <stop
         stop-color="#234db8"
         offset=".70936"
         id="stop11" />
      <stop
         stop-color="#234db8"
         offset="1"
         id="stop12" />
    </linearGradient>
  </defs>
  <metadata
     id="metadata3">
    <rdf:RDF>
      <cc:Work
         rdf:about="">
        <dc:format>image/svg+xml</dc:format>
        <dc:type
           rdf:resource="http://purl.org/dc/dcmitype/StillImage" />
        <dc:title />
      </cc:Work>
    </rdf:RDF>
  </metadata>
  <g
     transform="translate(-3.3923 -1.9749)"
     id="g20">
    <g
       id="g21"
       transform="rotate(6.6752403,11.440875,6.9554552)">
      <rect
         transform="rotate(-6.4422)"
         x="3.5868001"
         y="4.4446998"
         width="13.992"
         height="13.992"
         ry="1.1671"
         fill="#f3f3f3"
         stroke-width="0.96156"
         id="rect3" />
      <path
         d="m 15.244,14.785 4.0212,-0.45567"
         fill="none"
         stroke="#dcdcdc"
         stroke-width="0.17808"
         id="path3" />
      <path
         d="m 17.342,12.411 1.6908,-0.1916"
         fill="none"
         stroke="#dcdcdc"
         stroke-width="0.17808"
         id="path4" />
      <path
         transform="matrix(1.0331,0,0,0.96964,-41.091,-1.0905)"
         d="m 57.818,9.8288 c 0,0 0.05354,3.0782 -2.6636,4.5408 -2.2449,1.2084 0.9386,2.689 -5.8599,5.0989 8.8505,-2.5748 8.5235,-9.6396 8.5235,-9.6396 z"
         fill="#141414"
         filter="url(#filter1066-6)"
         opacity="0.3"
         id="path5" />
      <path
         transform="matrix(0.8359,0,0,0.91429,-30.267,-1.0618)"
         d="m 57.594,9.7322 c -0.15355,5.725 -5.0519,8.6864 -8.5234,9.6397 l 8.2859,-0.93608 c 0.6682,-0.07545 1.1451,-0.67434 1.0697,-1.3425 z"
         fill="#9cb8d7"
         filter="url(#filter1100-7)"
         opacity="0.2"
         id="path6" />
      <path
         transform="matrix(1.0038,0,0,0.93538,-39.356,-0.63975)"
         d="m 57.818,9.8288 c 0,0 0.05354,3.0782 -2.6636,4.5408 -2.2449,1.2084 0.9386,2.689 -5.8599,5.0989 8.8505,-2.5748 8.5235,-9.6396 8.5235,-9.6396 z"
         fill="#141414"
         filter="url(#filter1066-6)"
         opacity="0.3"
         id="path7" />
      <path
         d="M 17.053,2.572 C 16.97563,2.56514 16.8963,2.56591 16.81598,2.57498 l -11.585,1.3083 c -0.64251,0.072548 -1.1015,0.64791 -1.029,1.2904 l 1.3083,11.585 c 0.072549,0.64251 0.64791,1.1011 1.2904,1.0286 l 3.6229,-0.40894 c 3.3379,-0.91806 8.0432,-3.7658 8.1908,-9.268 l 0.8,7.0782 -1.3078,-11.585 C 18.0431,3.04135 17.59429,2.61948 17.05278,2.57154 Z"
         fill="#fafafa"
         stroke-width="0.96156"
         id="path8" />
      <path
         d="M 4.875,11.624 18.779,10.0539"
         fill="none"
         stroke="#dcdcdc"
         stroke-width="0.17808"
         id="path9" />
      <path
         d="m 5.1837,13.755 10.932,-1.2388"
         fill="none"
         stroke="#dcdcdc"
         stroke-width="0.17808"
         id="path10" />
      <path
         d="m 18.613,8.0767 c 0,0 0.05148,2.9599 -2.5613,4.3663 -2.1586,1.1619 0.90252,2.5857 -5.6346,4.9029 8.5103,-2.4758 8.2634,-9.2353 8.2634,-9.2353 z"
         fill="url(#linearGradient938-3)"
         stroke-width="0.96156"
         id="path11"
         style="fill:url(#linearGradient938-3)" />
      <g
         fill="none"
         id="g19">
        <path
           d="m 5.4,15.948 9.3166,-1.0558"
           stroke="#dcdcdc"
           stroke-width="0.17821"
           id="path12" />
        <path
           d="m 18.614,8.1285 c 0,0 -0.18136,3.0076 -2.4096,4.2396 -2.5636,1.4174 0.93317,2.6841 -5.8204,4.9777"
           stroke="#fafafa"
           stroke-width="0.1272"
           id="path13" />
        <path
           d="M 4.6529,9.3982 18.5569,7.8281"
           stroke="#dcdcdc"
           stroke-width="0.17808"
           id="path14" />
        <path
           d="M 5.4,15.949"
           stroke="#000000"
           stroke-width="0.2544px"
           id="path15" />
        <g
           stroke-width="0.17808"
           id="g18">
          <path
             d="M 4.4378,7.1983 18.3418,5.6282"
             stroke="#dcdcdc"
             id="path16" />
          <path
             d="M 4.2099,5.1004 18.0489,3.5303"
             stroke="#dcdcdc"
             id="path17" />
          <path
             d="M 8.2692,17.617 6.6991,3.713"
             stroke="#ff5050"
             id="path18" />
        </g>
      </g>
    </g>
  </g>
</svg>
