<?xml version="1.0" encoding="UTF-8" standalone="no"?>
<svg
   width="48"
   height="48"
   version="1.1"
   viewBox="0 0 12.69975 12.69975"
   id="svg20"
   sodipodi:docname="preferences-system-network.svg"
   inkscape:version="1.3.2 (091e20ef0f, 2023-11-25)"
   xmlns:inkscape="http://www.inkscape.org/namespaces/inkscape"
   xmlns:sodipodi="http://sodipodi.sourceforge.net/DTD/sodipodi-0.dtd"
   xmlns:xlink="http://www.w3.org/1999/xlink"
   xmlns="http://www.w3.org/2000/svg"
   xmlns:svg="http://www.w3.org/2000/svg"
   xmlns:rdf="http://www.w3.org/1999/02/22-rdf-syntax-ns#"
   xmlns:cc="http://creativecommons.org/ns#"
   xmlns:dc="http://purl.org/dc/elements/1.1/">
  <metadata
     id="metadata26">
    <rdf:RDF>
      <cc:Work
         rdf:about="">
        <dc:format>image/svg+xml</dc:format>
        <dc:type
           rdf:resource="http://purl.org/dc/dcmitype/StillImage" />
      </cc:Work>
    </rdf:RDF>
  </metadata>
  <defs
     id="defs24">
    <radialGradient
       inkscape:collect="always"
       xlink:href="#linearGradient978"
       id="radialGradient982"
       cx="-310.4812"
       cy="6.7150335"
       fx="-310.4812"
       fy="6.7150335"
       r="43.832691"
       gradientTransform="matrix(0.99117422,0,0,1.0402353,-156.9521,242.21744)"
       gradientUnits="userSpaceOnUse" />
    <linearGradient
       inkscape:collect="always"
       id="linearGradient978">
      <stop
         style="stop-color:#215b92;stop-opacity:1"
         offset="0"
         id="stop974" />
      <stop
         style="stop-color:#2693db;stop-opacity:1"
         offset="1"
         id="stop976" />
    </linearGradient>
  </defs>
  <sodipodi:namedview
     pagecolor="#ffffff"
     bordercolor="#666666"
     borderopacity="1"
     objecttolerance="10"
     gridtolerance="10"
     guidetolerance="10"
     inkscape:pageopacity="0"
     inkscape:pageshadow="2"
     inkscape:window-width="1366"
     inkscape:window-height="696"
     id="namedview22"
     showgrid="false"
     inkscape:zoom="9.7916667"
     inkscape:cx="24"
     inkscape:cy="24"
     inkscape:window-x="0"
     inkscape:window-y="0"
     inkscape:window-maximized="1"
     inkscape:current-layer="g64933"
     inkscape:document-rotation="0"
     inkscape:pagecheckerboard="0"
     inkscape:snap-global="false"
     inkscape:showpageshadow="2"
     inkscape:deskcolor="#d1d1d1" />
  <circle
     cx="-330.35001"
     cy="-328.38"
     r="0"
     fill="#5e4aa6"
     stroke-width="0.26458"
     id="circle2" />
  <circle
     cx="-65.740997"
     cy="5.3371"
     r="0"
     fill="#5e4aa6"
     fill-rule="evenodd"
     stroke-width="0.40965"
     id="circle4" />
  <g
     id="g64933"
     transform="matrix(0.11926735,0,0,0.11926735,61.715267,-23.267505)">
    <g
       id="g832"
       transform="translate(0.91027181,0.35412873)">
      <path
         id="path1"
         style="opacity:0.804;fill:#1b1e20;fill-opacity:1;stroke-width:0.102205"
         d="m -508.09504,247.97346 a 43.445828,45.596311 0 0 0 0.0779,2.17853 43.445828,45.596311 0 0 0 0.36365,3.38837 43.445828,45.596311 0 0 0 0.60388,3.35026 43.445828,45.596311 0 0 0 0.84102,3.29393 43.445828,45.596311 0 0 0 1.07306,3.21802 43.445828,45.596311 0 0 0 1.29943,3.12564 43.445828,45.596311 0 0 0 1.51813,3.01466 43.445828,45.596311 0 0 0 1.72814,2.88719 43.445828,45.596311 0 0 0 1.92943,2.74335 43.445828,45.596311 0 0 0 2.11947,2.58461 43.445828,45.596311 0 0 0 2.2972,2.41095 43.445828,45.596311 0 0 0 2.4626,2.22413 43.445828,45.596311 0 0 0 2.61423,2.025 43.445828,45.596311 0 0 0 2.75101,1.81419 43.445828,45.596311 0 0 0 2.87237,1.5928 43.445828,45.596311 0 0 0 2.97789,1.36398 43.445828,45.596311 0 0 0 3.06649,1.12617 43.445828,45.596311 0 0 0 3.13874,0.88241 43.445828,45.596311 0 0 0 3.192,0.63393 43.445828,45.596311 0 0 0 3.22885,0.38176 43.445828,45.596311 0 0 0 3.2468,0.12741 43.445828,45.596311 0 0 0 3.24625,-0.12741 43.445828,45.596311 0 0 0 3.22889,-0.38176 43.445828,45.596311 0 0 0 3.19199,-0.63393 43.445828,45.596311 0 0 0 3.13872,-0.88241 43.445828,45.596311 0 0 0 3.06651,-1.12617 43.445828,45.596311 0 0 0 2.97789,-1.36398 43.445828,45.596311 0 0 0 2.87237,-1.5928 43.445828,45.596311 0 0 0 2.75098,-1.81419 43.445828,45.596311 0 0 0 2.61425,-2.025 43.445828,45.596311 0 0 0 2.46263,-2.22413 43.445828,45.596311 0 0 0 2.29719,-2.41095 43.445828,45.596311 0 0 0 2.11943,-2.58461 43.445828,45.596311 0 0 0 1.92944,-2.74335 43.445828,45.596311 0 0 0 1.72866,-2.88719 43.445828,45.596311 0 0 0 1.51814,-3.01466 43.445828,45.596311 0 0 0 1.29891,-3.12564 43.445828,45.596311 0 0 0 1.07306,-3.21802 43.445828,45.596311 0 0 0 0.84102,-3.29393 43.445828,45.596311 0 0 0 0.60388,-3.35026 43.445828,45.596311 0 0 0 0.36365,-3.38837 43.445828,45.596311 0 0 0 0.0914,-2.55443 43.445828,45.596311 0 0 0 -43.41504,-43.99128 43.445828,45.596311 0 0 0 -43.40226,44.36718 z" />
      <path
         id="path52316"
         style="opacity:0.804;fill:url(#radialGradient982);fill-opacity:1;stroke-width:0.102205"
         d="m -508.09504,247.97346 a 43.445828,45.596311 0 0 0 0.0779,2.17853 43.445828,45.596311 0 0 0 0.36365,3.38837 43.445828,45.596311 0 0 0 0.60388,3.35026 43.445828,45.596311 0 0 0 0.84102,3.29393 43.445828,45.596311 0 0 0 1.07306,3.21802 43.445828,45.596311 0 0 0 1.29943,3.12564 43.445828,45.596311 0 0 0 1.51813,3.01466 43.445828,45.596311 0 0 0 1.72814,2.88719 43.445828,45.596311 0 0 0 1.92943,2.74335 43.445828,45.596311 0 0 0 2.11947,2.58461 43.445828,45.596311 0 0 0 2.2972,2.41095 43.445828,45.596311 0 0 0 2.4626,2.22413 43.445828,45.596311 0 0 0 2.61423,2.025 43.445828,45.596311 0 0 0 2.75101,1.81419 43.445828,45.596311 0 0 0 2.87237,1.5928 43.445828,45.596311 0 0 0 2.97789,1.36398 43.445828,45.596311 0 0 0 3.06649,1.12617 43.445828,45.596311 0 0 0 3.13874,0.88241 43.445828,45.596311 0 0 0 3.192,0.63393 43.445828,45.596311 0 0 0 3.22885,0.38176 43.445828,45.596311 0 0 0 3.2468,0.12741 43.445828,45.596311 0 0 0 3.24625,-0.12741 43.445828,45.596311 0 0 0 3.22889,-0.38176 43.445828,45.596311 0 0 0 3.19199,-0.63393 43.445828,45.596311 0 0 0 3.13872,-0.88241 43.445828,45.596311 0 0 0 3.06651,-1.12617 43.445828,45.596311 0 0 0 2.97789,-1.36398 43.445828,45.596311 0 0 0 2.87237,-1.5928 43.445828,45.596311 0 0 0 2.75098,-1.81419 43.445828,45.596311 0 0 0 2.61425,-2.025 43.445828,45.596311 0 0 0 2.46263,-2.22413 43.445828,45.596311 0 0 0 2.29719,-2.41095 43.445828,45.596311 0 0 0 2.11943,-2.58461 43.445828,45.596311 0 0 0 1.92944,-2.74335 43.445828,45.596311 0 0 0 1.72866,-2.88719 43.445828,45.596311 0 0 0 1.51814,-3.01466 43.445828,45.596311 0 0 0 1.29891,-3.12564 43.445828,45.596311 0 0 0 1.07306,-3.21802 43.445828,45.596311 0 0 0 0.84102,-3.29393 43.445828,45.596311 0 0 0 0.60388,-3.35026 43.445828,45.596311 0 0 0 0.36365,-3.38837 43.445828,45.596311 0 0 0 0.0914,-2.55443 43.445828,45.596311 0 0 0 -43.41504,-43.99128 43.445828,45.596311 0 0 0 -43.40226,44.36718 z" />
      <path
         id="path63510"
         style="fill:#66a2db;fill-opacity:1;stroke:none;stroke-width:0.259963px;stroke-linecap:butt;stroke-linejoin:miter;stroke-opacity:1"
         d="m -430.30316,221.44402 a 43.068286,43.60436 0 0 1 0.58035,0.7621 43.068286,43.60436 0 0 1 1.73496,2.66007 43.068286,43.60436 0 0 1 1.53845,2.78143 43.068286,43.60436 0 0 1 0.95558,2.07004 l 0.89565,0.20616 c 1.96212,0.35083 2.67656,1.44766 2.03503,3.35464 -0.34317,0.49336 -0.70152,0.97386 -1.07387,1.44247 -5.4965,6.91775 -14.04395,11.24966 -21.87608,16.18787 -19.56606,7.84531 -35.73332,16.00833 -57.93541,13.44095 a 43.068286,43.60436 0 0 0 1.38306,2.64941 43.068286,43.60436 0 0 0 1.71314,2.76108 43.068286,43.60436 0 0 0 1.91268,2.62353 43.068286,43.60436 0 0 0 1.79536,2.1122 c 0.94953,-0.0623 1.89892,-0.13443 2.84033,-0.21376 16.17243,-1.36305 30.94759,-6.16065 45.57952,-12.07005 10.47443,-4.5792 19.84334,-9.66057 26.48686,-15.97867 2.55663,-2.43137 4.71104,-5.04531 6.36759,-7.88523 2.14891,-4.48243 2.58569,-8.69698 -2.32038,-13.37644 -4.13028,-2.88965 -8.22488,-2.99095 -12.61282,-3.5278 z m -66.3411,53.05195 c -0.62055,-0.68451 -1.21928,-1.38894 -1.79536,-2.1122 -0.66966,-0.85007 -1.30765,-1.72516 -1.91268,-2.62353 -0.60485,-0.8984 -1.1763,-1.81942 -1.71314,-2.76108 -0.49084,-0.86684 -0.95217,-1.75051 -1.38306,-2.64941 -0.6397,-0.0739 -1.28259,-0.1537 -1.93249,-0.24574 -2.14676,-0.24537 -5.61492,-2.35541 -0.84387,-4.76567 -0.94427,-3.49427 -1.45767,-6.96526 -1.59228,-10.45749 -4.21799,4.13975 -9.95573,9.58808 -8.30005,16.61489 2.14295,9.09473 10.83917,9.5664 19.47293,9.00023 z" />
    </g>
  </g>
</svg>
