<?xml version="1.0" encoding="UTF-8" standalone="no"?>
<svg
   clip-rule="evenodd"
   fill-rule="evenodd"
   stroke-linejoin="round"
   stroke-miterlimit="2"
   viewBox="0 0 48 48"
   version="1.1"
   id="svg15"
   sodipodi:docname="preferences-system-sound.svg"
   inkscape:version="1.3.2 (091e20ef0f, 2023-11-25)"
   xmlns:inkscape="http://www.inkscape.org/namespaces/inkscape"
   xmlns:sodipodi="http://sodipodi.sourceforge.net/DTD/sodipodi-0.dtd"
   xmlns:xlink="http://www.w3.org/1999/xlink"
   xmlns="http://www.w3.org/2000/svg"
   xmlns:svg="http://www.w3.org/2000/svg">
  <defs
     id="defs15" />
  <sodipodi:namedview
     id="namedview15"
     pagecolor="#ffffff"
     bordercolor="#000000"
     borderopacity="0.25"
     inkscape:showpageshadow="2"
     inkscape:pageopacity="0.0"
     inkscape:pagecheckerboard="0"
     inkscape:deskcolor="#d1d1d1"
     inkscape:zoom="10.25"
     inkscape:cx="24"
     inkscape:cy="24"
     inkscape:window-width="1366"
     inkscape:window-height="696"
     inkscape:window-x="0"
     inkscape:window-y="0"
     inkscape:window-maximized="1"
     inkscape:current-layer="svg15" />
  <radialGradient
     id="a"
     cx="0"
     cy="0"
     r="1"
     gradientTransform="matrix(21.9694,0.360886,-0.424949,25.8693,19.6135,29.8352)"
     gradientUnits="userSpaceOnUse">
    <stop
       stop-color="#333"
       offset="0"
       id="stop1" />
    <stop
       stop-color="#1a1a1a"
       offset="1"
       id="stop2" />
  </radialGradient>
  <radialGradient
     id="b"
     cx="0"
     cy="0"
     r="1"
     gradientTransform="matrix(5.28149,-1.2275,1.98776,8.5526,20.0205,29.2992)"
     gradientUnits="userSpaceOnUse">
    <stop
       stop-color="#b3b3b3"
       offset="0"
       id="stop3" />
    <stop
       stop-color="#666"
       offset="1"
       id="stop4" />
  </radialGradient>
  <linearGradient
     id="c">
    <stop
       stop-color="#b3b3b3"
       offset="0"
       id="stop5" />
    <stop
       stop-color="#f2f2f2"
       offset="1"
       id="stop6" />
  </linearGradient>
  <linearGradient
     id="d"
     x2="1"
     gradientTransform="matrix(-10.854182,-29.143844,29.143844,-10.854182,268.24826,-48.984004)"
     gradientUnits="userSpaceOnUse"
     xlink:href="#c" />
  <linearGradient
     id="e"
     x2="1"
     gradientTransform="matrix(-0.61340583,-19.54741,19.54741,-0.61340583,434.66921,28.819509)"
     gradientUnits="userSpaceOnUse">
    <stop
       stop-color="#016986"
       offset="0"
       id="stop7"
       style="stop-color:#0e71de;stop-opacity:1;" />
    <stop
       stop-color="#1fcafc"
       offset="1"
       id="stop8"
       style="stop-color:#25c9ff;stop-opacity:1;" />
  </linearGradient>
  <linearGradient
     id="f"
     x2="1"
     gradientTransform="matrix(-18.668953,-40.710341,40.710341,-18.668953,74.760942,26.68469)"
     gradientUnits="userSpaceOnUse"
     xlink:href="#c" />
  <g
     id="g15"
     transform="matrix(0.93281804,0,0,0.93281804,3.1158025,-0.02834105)">
    <g
       fill-rule="nonzero"
       id="g10"
       transform="matrix(0.9235244,0,0,0.9235244,0.23132274,3.5943638)">
      <path
         d="m 19.058,1.772 c -1.799,0.037 -3.306,0.701 -4.429,1.951 -0.527,0.412 -0.991,0.923 -1.385,1.528 -0.771,1.23 -1.256,2.819 -1.436,4.699 -0.145,0.362 -0.281,0.726 -0.605,1.432 -0.555,2.016 -0.871,4.159 -1.186,8.05 -0.053,0.661 -0.084,1.001 -0.125,1.257 -0.105,-0.045 -0.928,0.777 -1.262,1.267 -0.115,0.169 -0.216,0.356 -0.316,0.543 -0.243,0.172 -0.466,0.329 -0.989,0.672 -0.789,0.519 -1.631,1.106 -1.872,1.305 -1.305,1.081 -2.092,2.679 -2.364,4.8 -0.109,0.85 -0.075,2.439 0.07,3.273 0.196,1.128 0.418,1.919 0.841,2.998 1.774,4.531 5.558,8.013 9.274,8.535 0.512,0.072 1.447,0.059 1.956,-0.028 0.806,-0.137 1.351,-0.351 3.4,-1.329 0.191,-0.091 0.35,-0.154 0.523,-0.23 0.035,0.005 0.071,0.014 0.106,0.018 0.399,0.05 1.206,0.028 1.619,-0.044 0.498,-0.086 1.085,-0.269 1.14,-0.351 0.347,0.149 0.928,0.413 1.847,0.861 4.218,2.058 5.757,2.628 9.009,3.333 0.418,0.091 1.077,0.24 1.462,0.332 0.618,0.148 1.373,0.28 1.882,0.332 0.373,0.038 1.206,0.03 1.614,-0.016 0.488,-0.056 0.926,-0.157 1.345,-0.282 1.067,-0.278 1.99,-0.824 2.746,-1.625 0.581,-0.432 1.086,-0.98 1.51,-1.638 3.793,-5.954 0.264,-19.607 -7.818,-30.252 L 35.592,13.129 C 30.206,6.048 23.852,1.684 19.058,1.772 Z m 1.207,3.244 C 24.4,4.94 29.879,8.774 34.523,14.994 l 0.024,0.026 c 6.973,9.352 10.016,21.347 6.743,26.576 -0.183,0.288 -0.384,0.552 -0.601,0.791 C 36.766,45.408 29.419,41.629 23.31,33.449 16.336,24.101 13.286,12.104 16.553,6.868 16.737,6.577 16.939,6.31 17.158,6.069 18.02,5.399 19.068,5.043 20.264,5.016 Z"
         fill-opacity="0.67"
         id="path8" />
      <path
         d="M 34.609,13.557 C 41.755,23.199 44.874,35.566 41.52,40.958 38.166,46.349 29.526,42.856 22.378,33.219 15.23,23.581 12.104,11.211 15.452,5.812 18.8,0.412 27.437,3.896 34.588,13.529"
         fill="url(#a)"
         id="path9"
         style="fill:url(#a)" />
      <path
         d="m 25.151,25.617 c 2.293,4.25 2.385,8.717 0.204,9.896 -2.182,1.18 -5.865,-1.346 -8.16,-5.595 -2.295,-4.249 -2.39,-8.718 -0.21,-9.901 2.18,-1.183 5.862,1.339 8.159,5.588"
         fill="url(#b)"
         id="path10"
         style="fill:url(#b)" />
    </g>
    <path
       d="m 9.4009965,21.986352 c 0.033247,-0.236422 0.055411,-0.584591 0.1015877,-1.159023 0.2890632,-3.593433 0.5781258,-5.571623 1.0888348,-7.433448 1.586615,-3.4863044 0.302916,-2.682838 1.860902,5.04152 0.441445,2.110253 0.913366,3.687633 1.545056,5.159731 1.484104,3.461369 2.657904,5.726775 4.246366,8.194432 3.73935,5.810815 8.451172,10.322232 12.675372,12.136957 3.176001,1.276311 7.462077,0.584591 7.793623,0.578127 -1.036195,1.042659 -2.146271,1.569068 -3.678398,1.744537 -0.374028,0.04341 -1.139629,0.05172 -1.481333,0.01662 -0.467304,-0.04802 -1.159947,-0.171776 -1.727914,-0.307534 -0.352787,-0.08496 -0.955848,-0.222569 -1.340034,-0.30661 -2.985755,-0.652008 -4.399671,-1.178417 -8.271085,-3.078107 -0.66309,-0.326004 -1.286469,-0.623379 -1.67712,-0.801619 9.23e-4,-0.0018 9.23e-4,-0.0028 0.0018,-0.0037 0.0074,-0.02678 -0.368486,-0.253046 -0.834866,-0.504244 C 18.467236,40.599987 17.435659,40.00616 16.834444,39.611815 13.628891,37.510797 10.826918,33.420508 9.7306947,29.24156 9.2744737,27.505334 9.1968976,26.314911 9.3492792,23.415044 c 0.040635,-0.750825 0.0628,-1.379745 0.051717,-1.428692 z"
       fill="url(#d)"
       id="path11"
       style="fill:url(#d);stroke-width:0.923524" />
    <path
       d="m 7.9113517,23.692102 c -0.3814156,0.736972 -0.6335378,1.625403 -0.7508254,2.645897 -0.079423,0.694491 -0.0314,2.195218 0.09697,2.999607 0.4599152,2.88232 1.7944079,5.836675 3.7411977,8.279397 0.509785,0.638155 1.609703,1.75562 2.235852,2.270023 1.505345,1.234752 3.137213,2.023442 4.633322,2.24047 -0.145917,0.06557 -0.299222,0.135758 -0.458068,0.212411 -1.881219,0.903206 -2.381769,1.099917 -3.121512,1.22644 -0.467304,0.08035 -1.327105,0.09235 -1.797179,0.02586 C 9.0805336,43.110126 5.6062348,39.89349 3.9780612,35.709001 3.590181,34.713442 3.3870056,33.982011 3.2069184,32.941199 3.0739309,32.170056 3.042531,30.704423 3.1422717,29.919427 c 0.2493515,-1.958795 0.9724712,-3.435511 2.1712058,-4.433841 0.2197988,-0.183781 0.9937123,-0.72589 1.7177554,-1.205199 0.3934214,-0.25951 0.6704787,-0.443292 0.8801188,-0.588285 z"
       fill="url(#e)"
       id="path12"
       style="fill:url(#e);stroke-width:0.923524" />
    <path
       d="m 17.159525,5.1107908 c -2.018824,0.037864 -3.634068,0.9383008 -4.695198,2.6200388 -3.4779929,5.5051294 -0.231805,18.1195484 7.192408,27.9467724 7.423289,9.827223 16.396252,13.389256 19.878863,7.890592 3.48261,-5.497741 0.242887,-18.107543 -7.177632,-27.939384 l -0.02032,-0.02955 C 27.393099,9.0597812 21.560119,5.0295207 17.159525,5.1107908 Z m 1.750079,2.4030105 c 3.795685,-0.070188 8.825199,3.4706047 13.089111,9.2140027 l 0.02032,0.02493 c 6.400945,8.636806 9.19553,19.715404 6.190382,24.544514 C 35.204268,46.126357 27.465134,42.997456 21.062339,34.36435 14.659544,25.731244 11.860342,14.651721 14.859949,9.8161477 15.775162,8.3385086 17.167837,7.5470482 18.909604,7.5138013 Z"
       fill="#333333"
       fill-rule="nonzero"
       id="path13"
       style="stroke-width:0.923524" />
    <path
       d="m 17.801375,4.5188117 c -2.018825,0.037865 -3.634069,0.9383008 -4.696122,2.6200387 -3.4770695,5.5051286 -0.230881,18.1195486 7.193331,27.9467716 7.42329,9.827224 16.396253,13.389257 19.878863,7.891516 3.482611,-5.498664 0.242887,-18.108466 -7.177631,-27.940307 l -0.02032,-0.02955 C 28.034948,8.467802 22.201968,4.4375415 17.801375,4.5188117 Z m 1.750078,2.403934 c 3.795686,-0.071111 8.825199,3.4696813 13.089112,9.2140033 l 0.02032,0.02401 c 6.400948,8.636801 9.194609,19.715399 6.189461,24.544508 -3.004225,4.829109 -10.74336,1.700209 -17.146154,-6.932897 -6.402795,-8.633106 -9.201998,-19.712629 -6.20239,-24.5482025 0.915212,-1.477639 2.307887,-2.2690994 4.049654,-2.3014228 z"
       fill="url(#f)"
       fill-rule="nonzero"
       id="path14"
       style="fill:url(#f);stroke-width:0.923524" />
    <path
       d="M 17.986079,42.143196 C 16.457647,41.952026 14.779603,41.155025 13.234546,39.887026 12.608397,39.372623 11.508479,38.255158 10.998694,37.617003 9.0519043,35.174281 7.7174116,32.219926 7.2574964,29.337606 7.1291265,28.533217 7.0811032,27.03249 7.1605263,26.337999 7.3073667,25.057071 7.6675412,23.983936 8.2281205,23.158305 8.5402718,22.697466 9.3261911,21.9097 9.400073,21.983582 c 0.012929,0.01293 -0.00924,0.657549 -0.050794,1.431462 -0.1523816,2.899867 -0.074806,4.09029 0.3814155,5.826516 1.0962235,4.178948 3.8981965,8.269237 7.1037495,10.370255 0.601215,0.394345 1.632792,0.988172 2.869391,1.652186 0.46638,0.251198 0.842254,0.477462 0.834866,0.504244 -0.02217,0.07203 -0.596597,0.253046 -1.067594,0.335239 -0.378645,0.06557 -1.119312,0.08589 -1.485028,0.03971 z"
       fill="#2b2d30"
       fill-rule="nonzero"
       id="path15"
       style="stroke-width:0.923524" />
  </g>
</svg>
