<?xml version="1.0" encoding="UTF-8" standalone="no"?>
<svg
   width="64"
   height="64"
   version="1"
   id="svg16"
   sodipodi:docname="preferences-system-windos.svg"
   inkscape:version="1.3.2 (091e20ef0f, 2023-11-25)"
   xml:space="preserve"
   xmlns:inkscape="http://www.inkscape.org/namespaces/inkscape"
   xmlns:sodipodi="http://sodipodi.sourceforge.net/DTD/sodipodi-0.dtd"
   xmlns:xlink="http://www.w3.org/1999/xlink"
   xmlns="http://www.w3.org/2000/svg"
   xmlns:svg="http://www.w3.org/2000/svg"><defs
     id="defs20"><linearGradient
       id="linearGradient3"
       inkscape:collect="always"><stop
         style="stop-color:#ffffff;stop-opacity:1"
         offset="0"
         id="stop3" /><stop
         style="stop-color:#dee7f3;stop-opacity:1;"
         offset="0.54505742"
         id="stop5" /><stop
         style="stop-color:#c2d2e7;stop-opacity:1;"
         offset="1"
         id="stop4" /></linearGradient><radialGradient
       inkscape:collect="always"
       xlink:href="#linearGradient3"
       id="radialGradient4"
       cx="7.8461866"
       cy="23.041828"
       fx="7.8461866"
       fy="23.041828"
       r="16"
       gradientTransform="matrix(-0.48302025,1.1594651,-2.0614694,-0.69882604,81.829491,24.673555)"
       gradientUnits="userSpaceOnUse" /><radialGradient
       inkscape:collect="always"
       xlink:href="#linearGradient3"
       id="radialGradient5"
       gradientUnits="userSpaceOnUse"
       gradientTransform="matrix(-0.28383251,0.78360494,-1.2113611,-0.4722898,81.132936,33.953437)"
       cx="7.8461866"
       cy="23.041828"
       fx="7.8461866"
       fy="23.041828"
       r="16" /><radialGradient
       inkscape:collect="always"
       xlink:href="#linearGradient3"
       id="radialGradient7"
       gradientUnits="userSpaceOnUse"
       gradientTransform="matrix(-0.38216527,1.0169539,-1.6310331,-0.61293252,56.924343,41.820307)"
       cx="7.8461866"
       cy="23.041828"
       fx="7.8461866"
       fy="23.041828"
       r="16" /></defs><sodipodi:namedview
     id="namedview18"
     pagecolor="#ffffff"
     bordercolor="#666666"
     borderopacity="1.0"
     inkscape:pageshadow="2"
     inkscape:pageopacity="0.0"
     inkscape:pagecheckerboard="0"
     showgrid="false"
     inkscape:zoom="7.6875"
     inkscape:cx="32"
     inkscape:cy="32"
     inkscape:window-width="1366"
     inkscape:window-height="696"
     inkscape:window-x="0"
     inkscape:window-y="0"
     inkscape:window-maximized="1"
     inkscape:current-layer="svg16"
     inkscape:showpageshadow="2"
     inkscape:deskcolor="#d1d1d1" /><g
     id="g1"
     transform="translate(-0.46218298,1.3622298)"><path
       style="fill:#636e73;stroke-width:1.27603"
       d="m 12.616389,5.4710254 c -1.190904,0 -2.149098,0.8641177 -2.149098,1.9391137 V 11.530751 H 53.459609 V 7.4101391 c 0,-1.074996 -0.957939,-1.9391137 -2.149632,-1.9391137 H 12.616923 Z"
       id="path12" /><path
       opacity="0.2"
       d="m 10.467291,37.466384 v 1.211942 c 0,1.074997 0.958194,1.939112 2.149098,1.939112 h 38.693056 c 1.191693,0 2.14963,-0.864115 2.14963,-1.939112 v -1.211942 c 0,1.074994 -0.957937,1.939111 -2.14963,1.939111 H 12.616389 c -1.191438,0 -2.149632,-0.864117 -2.149632,-1.939111 z"
       id="path14"
       style="stroke-width:1.27603" /><path
       style="opacity:1;fill:url(#radialGradient4);stroke-width:1.27603"
       d="m 10.467291,11.409559 v 26.056825 c 0,1.074994 0.958194,1.939111 2.149098,1.939111 h 38.694403 c 1.190346,0 2.148283,-0.864117 2.148283,-1.939111 V 11.409559 H 10.466757 Z"
       id="path10" /><path
       style="fill:#636e73;stroke-width:0.804138"
       d="m 40.461901,20.975733 c -0.699785,0 -1.262864,0.584001 -1.262864,1.310514 v 2.784852 h 25.263146 v -2.784852 c 0,-0.726513 -0.562903,-1.310514 -1.26317,-1.310514 H 40.462205 Z"
       id="path2" /><path
       opacity="0.2"
       d="m 39.199037,42.599257 v 0.819069 c 0,0.726519 0.563079,1.310519 1.262864,1.310519 h 22.736807 c 0.700267,0 1.263171,-0.584 1.263171,-1.310519 v -0.819069 c 0,0.726515 -0.562904,1.310513 -1.263171,1.310513 H 40.461901 c -0.700114,0 -1.263171,-0.583998 -1.263171,-1.310513 z"
       id="path3"
       style="stroke-width:0.804138" /><path
       style="opacity:1;fill:url(#radialGradient5);stroke-width:0.804138"
       d="m 39.199037,24.989189 v 17.610068 c 0,0.726515 0.563079,1.310513 1.262864,1.310513 h 22.737595 c 0.699479,0 1.262383,-0.583998 1.262383,-1.310513 V 24.989189 H 39.19873 Z"
       id="path4" /><path
       style="fill:#636e73;stroke-width:1.06298"
       d="m 2.1629659,24.977984 c -0.9422302,0 -1.70035081,0.757906 -1.70035081,1.700776 v 3.614148 H 34.478099 V 26.67876 c 0,-0.94287 -0.757917,-1.700776 -1.700784,-1.700776 H 2.1633981 Z"
       id="path5" /><path
       opacity="0.2"
       d="m 0.46261509,53.04076 v 1.062982 c 0,0.942866 0.75812061,1.700773 1.70035081,1.700773 H 32.776884 c 0.942891,0 1.700782,-0.757907 1.700782,-1.700773 V 53.04076 c 0,0.942864 -0.757891,1.700776 -1.700782,1.700776 H 2.1629659 c -0.9426624,0 -1.70078293,-0.757912 -1.70078293,-1.700776 z"
       id="path6"
       style="stroke-width:1.06298" /><path
       style="opacity:1;fill:url(#radialGradient7);stroke-width:1.06298"
       d="M 0.46261509,30.186608 V 53.04076 c 0,0.942864 0.75812061,1.700776 1.70035081,1.700776 H 32.77795 c 0.941825,0 1.699716,-0.757912 1.699716,-1.700776 V 30.186608 H 0.46218297 Z"
       id="path7" /></g></svg>
