<?xml version="1.0" encoding="UTF-8" standalone="no"?>
<svg
   width="64"
   height="64"
   version="1.1"
   viewBox="0 0 16.933 16.933"
   id="svg36"
   sodipodi:docname="utilities-system-monitor.svg"
   inkscape:version="1.3.2 (091e20ef0f, 2023-11-25)"
   xmlns:inkscape="http://www.inkscape.org/namespaces/inkscape"
   xmlns:sodipodi="http://sodipodi.sourceforge.net/DTD/sodipodi-0.dtd"
   xmlns="http://www.w3.org/2000/svg"
   xmlns:svg="http://www.w3.org/2000/svg"
   xmlns:rdf="http://www.w3.org/1999/02/22-rdf-syntax-ns#"
   xmlns:cc="http://creativecommons.org/ns#"
   xmlns:dc="http://purl.org/dc/elements/1.1/">
  <sodipodi:namedview
     id="namedview38"
     pagecolor="#ffffff"
     bordercolor="#666666"
     borderopacity="1.0"
     inkscape:pageshadow="2"
     inkscape:pageopacity="0.0"
     inkscape:pagecheckerboard="0"
     showgrid="false"
     inkscape:zoom="7.6875"
     inkscape:cx="32"
     inkscape:cy="32"
     inkscape:window-width="1366"
     inkscape:window-height="696"
     inkscape:window-x="0"
     inkscape:window-y="0"
     inkscape:window-maximized="1"
     inkscape:current-layer="g34"
     inkscape:snap-global="false"
     inkscape:showpageshadow="2"
     inkscape:deskcolor="#d1d1d1" />
  <defs
     id="defs22">
    <linearGradient
       id="linearGradient1229"
       x1="17"
       x2="17"
       y1="7"
       y2="51"
       gradientTransform="matrix(0.31612384,0,0,0.31612384,14.723165,5.0245112)"
       gradientUnits="userSpaceOnUse">
      <stop
         stop-color="#6c7378"
         offset="0"
         id="stop2" />
      <stop
         stop-color="#42464a"
         offset="1"
         id="stop4" />
    </linearGradient>
    <linearGradient
       id="linearGradient1242"
       x1="-9"
       x2="45"
       y1="50"
       y2="50"
       gradientTransform="matrix(.26458 0 0 .26458 14.857 5.7152)"
       gradientUnits="userSpaceOnUse">
      <stop
         stop-color="#a1aab3"
         offset="0"
         id="stop7" />
      <stop
         stop-color="#818990"
         offset="1"
         id="stop9" />
    </linearGradient>
    <linearGradient
       id="linearGradient1255"
       x1="-9"
       x2="45"
       y1="6.9456"
       y2="50.946"
       gradientTransform="matrix(.20578 0 0 .19843 19.09 10.687)"
       gradientUnits="userSpaceOnUse">
      <stop
         stop-color="#3ccbf4"
         offset="0"
         id="stop12" />
      <stop
         stop-color="#1594df"
         offset="1"
         id="stop14" />
    </linearGradient>
    <linearGradient
       id="linearGradient1257"
       x1="-6.6522"
       x2="42.652"
       y1="50"
       y2="50"
       gradientTransform="matrix(.22538 0 0 .19843 18.737 10.687)"
       gradientUnits="userSpaceOnUse">
      <stop
         stop-color="#50e5ff"
         offset="0"
         id="stop17" />
      <stop
         stop-color="#29b1eb"
         offset="1"
         id="stop19" />
    </linearGradient>
    <linearGradient
       id="linear2"
       gradientUnits="userSpaceOnUse"
       x1="9.6572914"
       y1="-204.41667"
       x2="9.6572914"
       y2="-208.64999"
       gradientTransform="matrix(1.3099078,0,0,1.3099078,5.3184828,282.44154)">
      <stop
         offset="0"
         style="stop-color:rgb(0%,0%,0%);stop-opacity:0.2;"
         id="stop14-3" />
      <stop
         offset="1"
         style="stop-color:rgb(100%,100%,100%);stop-opacity:0;"
         id="stop16" />
    </linearGradient>
    <radialGradient
       id="radial0"
       gradientUnits="userSpaceOnUse"
       cx="32"
       cy="32"
       fx="32"
       fy="32"
       r="20"
       gradientTransform="matrix(0.34808409,0,0,0.26106307,9.2402033,5.7280816)">
      <stop
         offset="0"
         style="stop-color:#00df5a;stop-opacity:1;"
         id="stop2-7" />
      <stop
         offset="1"
         style="stop-color:#5f892e;stop-opacity:0;"
         id="stop4-5" />
    </radialGradient>
  </defs>
  <metadata
     id="metadata24">
    <rdf:RDF>
      <cc:Work
         rdf:about="">
        <dc:format>image/svg+xml</dc:format>
        <dc:type
           rdf:resource="http://purl.org/dc/dcmitype/StillImage" />
      </cc:Work>
    </rdf:RDF>
  </metadata>
  <g
     transform="matrix(0.93333,0,0,0.93333,-10.586,-4.763)"
     stroke-linecap="round"
     stroke-linejoin="round"
     id="g34">
    <rect
       x="11.878314"
       y="7.2201014"
       width="17.070305"
       height="13.908827"
       ry="0.64942908"
       fill="url(#linearGradient1229)"
       stroke-width="0.638377"
       style="fill:url(#linearGradient1229);paint-order:stroke fill markers"
       id="rect26" />
    <path
       style="fill:none;stroke:#ff6e42;stroke-width:1.16028;stroke-linecap:round;stroke-linejoin:round;stroke-miterlimit:4;stroke-opacity:0.2"
       d="m 23.275097,9.7310064 c -0.114819,0.00108 -0.217552,0.071042 -0.262875,0.1782739 l -2.672574,6.4102407 -2.607609,-4.700046 c -0.05137,-0.09363 -0.152588,-0.151074 -0.259854,-0.149561 -0.108777,0.0033 -0.205466,0.06501 -0.253812,0.163167 l -1.078698,2.157398 h -1.562148 v 0.0011 h -0.435105 c -0.08007,0 -0.145035,0.06501 -0.145035,0.145044 v 0.290067 c 0,0.08003 0.06496,0.145033 0.145035,0.145033 h 0.435105 c 0.0015,0 0.003,-0.0011 0.006,-0.0011 h 1.732867 c 0.110286,0.0011 0.211509,-0.05887 0.261365,-0.157115 l 0.914023,-1.831076 2.634803,4.74084 c 0.05288,0.0967 0.157122,0.1541 0.26892,0.148059 0.110286,-0.0066 0.208487,-0.074 0.250789,-0.176772 l 2.674084,-6.416281 2.02898,3.547312 c 0.05136,0.08913 0.146546,0.145033 0.25079,0.145033 h 1.154237 c 0.0031,0 0.0045,0.0011 0.006,0.0011 h 0.435106 c 0.08008,0 0.145035,-0.06501 0.145035,-0.145033 V 13.9366 c 0,-0.08003 -0.06497,-0.145044 -0.145035,-0.145044 h -0.435106 v -0.0011 H 25.767872 L 23.531915,9.8760395 c -0.04835,-0.083101 -0.135971,-0.1374793 -0.23115,-0.1450331 -0.0091,0 -0.01662,0 -0.02569,0 z m 0,0"
       id="path16" />
    <path
       style="fill:url(#radial0);fill-rule:nonzero;stroke:none;stroke-width:0.38676"
       d="m 15.737807,8.2806674 v 1.1602802 h -1.16028 v 0.5801404 h 1.16028 v 2.32056 h -1.16028 v 0.580141 h 1.16028 v 2.32056 h -1.16028 v 0.58014 h 1.16028 v 2.320561 h -1.16028 v 0.58014 h 1.16028 v 1.16028 h 0.58014 v -1.16028 h 2.320561 v 1.16028 h 0.58014 v -1.16028 h 2.320561 v 1.16028 h 0.58014 v -1.16028 h 2.32056 v 1.16028 h 0.58014 v -1.16028 h 1.160281 v -0.58014 h -1.160281 v -2.320561 h 1.160281 v -0.58014 h -1.160281 v -2.32056 h 1.160281 v -0.580141 h -1.160281 v -2.32056 H 26.18033 V 9.4409476 H 25.020049 V 8.2806674 h -0.58014 v 1.1602802 h -2.32056 V 8.2806674 h -0.58014 V 9.4409476 H 19.218648 V 8.2806674 h -0.58014 V 9.4409476 H 16.317947 V 8.2806674 Z m 0.58014,1.7404206 h 2.320561 v 2.32056 h -2.320561 z m 2.900701,0 h 2.320561 v 2.32056 h -2.320561 z m 2.900701,0 h 2.32056 v 2.32056 h -2.32056 z m -5.801402,2.900701 h 2.320561 v 2.32056 h -2.320561 z m 2.900701,0 h 2.320561 v 2.32056 h -2.320561 z m 2.900701,0 h 2.32056 v 2.32056 h -2.32056 z m -5.801402,2.9007 h 2.320561 v 2.320561 h -2.320561 z m 2.900701,0 h 2.320561 v 2.320561 h -2.320561 z m 2.900701,0 h 2.32056 v 2.320561 h -2.32056 z m 0,0"
       id="path18" />
    <path
       style="fill:#ffcc7f;fill-opacity:1;fill-rule:nonzero;stroke:none;stroke-width:0.38676"
       d="m 23.275096,9.7310177 c -0.114819,0.0015 -0.217552,0.071007 -0.262875,0.1782726 l -2.672573,6.4102457 -2.607609,-4.700041 c -0.05137,-0.09367 -0.152589,-0.151078 -0.259855,-0.149567 -0.108776,0.003 -0.205466,0.06496 -0.253811,0.163164 l -1.078698,2.157396 h -1.562148 v 0.0015 h -0.435105 c -0.08007,0 -0.145035,0.06496 -0.145035,0.145035 v 0.290071 c 0,0.08007 0.06496,0.145035 0.145035,0.145035 h 0.435105 c 0.0015,0 0.003,-0.0015 0.006,-0.0015 h 1.732867 c 0.110287,0.0015 0.211509,-0.05892 0.261365,-0.157121 l 0.914023,-1.831067 2.634803,4.740832 c 0.05288,0.09669 0.157121,0.1541 0.268919,0.148057 0.110287,-0.006 0.208488,-0.07403 0.25079,-0.176762 l 2.674084,-6.416289 2.028979,3.547315 c 0.05137,0.08914 0.146546,0.145035 0.25079,0.145035 h 1.154237 c 0.003,0 0.0045,0.0015 0.006,0.0015 h 0.435105 c 0.08007,0 0.145033,-0.06496 0.145033,-0.145035 v -0.290071 c 0,-0.08007 -0.06496,-0.145035 -0.145035,-0.145035 h -0.435105 v -0.0015 H 25.767887 L 23.53193,9.8760528 c -0.04834,-0.083093 -0.135971,-0.1374812 -0.23115,-0.1450351 -0.0091,0 -0.01662,0 -0.02569,0 z m 0,0"
       id="path20" />
    <path
       style="fill:#000000;fill-opacity:0.4;fill-rule:nonzero;stroke:none;stroke-width:0.38676"
       d="m 23.32042,10.678278 -2.674084,6.416289 c -0.0423,0.102734 -0.140502,0.170719 -0.250789,0.176762 -0.111798,0.006 -0.216042,-0.05137 -0.268919,-0.148057 l -2.634804,-4.740832 -0.914022,1.831067 c -0.04986,0.0982 -0.151079,0.158632 -0.261366,0.157121 H 14.58357 c -0.003,0 -0.0045,0.0015 -0.006,0.0015 h -0.435104 c -0.08007,0 -0.145035,-0.06496 -0.145035,-0.145035 v 0.145035 c 0,0.08007 0.06496,0.145035 0.145035,0.145035 h 0.435105 c 0.0015,0 0.003,-0.0015 0.006,-0.0015 h 1.732867 c 0.110287,0.0015 0.211509,-0.05892 0.261365,-0.157121 l 0.914023,-1.831067 2.634803,4.740832 c 0.05288,0.09669 0.157121,0.1541 0.268919,0.148057 0.110287,-0.006 0.208488,-0.07403 0.25079,-0.176762 l 2.674084,-6.416289 2.028979,3.547315 c 0.05137,0.08914 0.146546,0.145035 0.25079,0.145035 h 1.154237 c 0.003,0 0.0045,0.0015 0.006,0.0015 h 0.435105 c 0.08007,0 0.145033,-0.06496 0.145033,-0.145035 v -0.145035 c 0,0.08007 -0.06496,0.145035 -0.145035,0.145035 h -0.435105 c -0.0015,0 -0.003,-0.0015 -0.006,-0.0015 h -1.154235 c -0.104244,0 -0.199423,-0.0559 -0.25079,-0.145035 z m 0,0"
       id="path48" />
    <path
       style="fill:#ffffff;fill-opacity:0.4;fill-rule:nonzero;stroke:none;stroke-width:0.38676"
       d="m 23.275096,9.7310177 c -0.114819,0.0015 -0.217552,0.071007 -0.262875,0.1782726 l -2.672573,6.4102457 -2.607609,-4.700041 c -0.05137,-0.09367 -0.152589,-0.151078 -0.259855,-0.149567 -0.108776,0.003 -0.205466,0.06496 -0.253811,0.163164 l -1.078698,2.157396 h -1.562148 v 0.0015 h -0.435105 c -0.08007,0 -0.145035,0.06496 -0.145035,0.145035 v 0.145036 c 0,-0.08007 0.06496,-0.145036 0.145035,-0.145036 h 0.435105 v -0.0015 h 1.562148 l 1.078698,-2.157396 c 0.04835,-0.0982 0.145035,-0.160143 0.253811,-0.163164 0.107266,-0.0015 0.208488,0.0559 0.259855,0.149567 l 2.607609,4.700041 2.672573,-6.410246 c 0.04532,-0.1072653 0.148056,-0.1767615 0.262875,-0.1782722 0.0076,0 0.01662,0 0.02417,0 0.09669,0.00755 0.184315,0.061942 0.231149,0.1450352 l 2.237468,3.914435 h 0.992584 v 0.0015 h 0.435105 c 0.08007,0 0.145035,0.06496 0.145035,0.145036 v -0.145036 c 0,-0.08007 -0.06496,-0.145035 -0.145035,-0.145035 H 26.76047 v -0.0015 H 25.767887 L 23.530419,9.8760528 c -0.04683,-0.083093 -0.13446,-0.1374812 -0.23115,-0.1450351 -0.0076,0 -0.01662,0 -0.02417,0 z m 0,0"
       id="path50" />
  </g>
</svg>
