<?xml version="1.0" encoding="UTF-8" standalone="no"?>
<svg
   width="64"
   height="64"
   version="1.1"
   viewBox="0 0 16.933 16.933"
   id="svg36"
   sodipodi:docname="terminau.svg"
   inkscape:version="1.3.2 (091e20ef0f, 2023-11-25)"
   xmlns:inkscape="http://www.inkscape.org/namespaces/inkscape"
   xmlns:sodipodi="http://sodipodi.sourceforge.net/DTD/sodipodi-0.dtd"
   xmlns="http://www.w3.org/2000/svg"
   xmlns:svg="http://www.w3.org/2000/svg"
   xmlns:rdf="http://www.w3.org/1999/02/22-rdf-syntax-ns#"
   xmlns:cc="http://creativecommons.org/ns#"
   xmlns:dc="http://purl.org/dc/elements/1.1/">
  <sodipodi:namedview
     id="namedview38"
     pagecolor="#ffffff"
     bordercolor="#666666"
     borderopacity="1.0"
     inkscape:pageshadow="2"
     inkscape:pageopacity="0.0"
     inkscape:pagecheckerboard="0"
     showgrid="false"
     inkscape:zoom="7.6875"
     inkscape:cx="32"
     inkscape:cy="32"
     inkscape:window-width="1366"
     inkscape:window-height="696"
     inkscape:window-x="0"
     inkscape:window-y="0"
     inkscape:window-maximized="1"
     inkscape:current-layer="g34"
     inkscape:snap-global="false"
     inkscape:showpageshadow="2"
     inkscape:deskcolor="#d1d1d1" />
  <defs
     id="defs22">
    <linearGradient
       id="linearGradient1229"
       x1="17"
       x2="17"
       y1="7"
       y2="51"
       gradientTransform="matrix(0.26458,0,0,0.26458,14.857,5.7152)"
       gradientUnits="userSpaceOnUse">
      <stop
         stop-color="#6c7378"
         offset="0"
         id="stop2" />
      <stop
         stop-color="#42464a"
         offset="1"
         id="stop4" />
    </linearGradient>
    <linearGradient
       id="linearGradient1242"
       x1="-9"
       x2="45"
       y1="50"
       y2="50"
       gradientTransform="matrix(.26458 0 0 .26458 14.857 5.7152)"
       gradientUnits="userSpaceOnUse">
      <stop
         stop-color="#a1aab3"
         offset="0"
         id="stop7" />
      <stop
         stop-color="#818990"
         offset="1"
         id="stop9" />
    </linearGradient>
    <linearGradient
       id="linearGradient1255"
       x1="-9"
       x2="45"
       y1="6.9456"
       y2="50.946"
       gradientTransform="matrix(.20578 0 0 .19843 19.09 10.687)"
       gradientUnits="userSpaceOnUse">
      <stop
         stop-color="#3ccbf4"
         offset="0"
         id="stop12" />
      <stop
         stop-color="#1594df"
         offset="1"
         id="stop14" />
    </linearGradient>
    <linearGradient
       id="linearGradient1257"
       x1="-6.6522"
       x2="42.652"
       y1="50"
       y2="50"
       gradientTransform="matrix(.22538 0 0 .19843 18.737 10.687)"
       gradientUnits="userSpaceOnUse">
      <stop
         stop-color="#50e5ff"
         offset="0"
         id="stop17" />
      <stop
         stop-color="#29b1eb"
         offset="1"
         id="stop19" />
    </linearGradient>
    <linearGradient
       id="linear2"
       gradientUnits="userSpaceOnUse"
       x1="9.6572914"
       y1="-204.41667"
       x2="9.6572914"
       y2="-208.64999"
       gradientTransform="matrix(1.096328,0,0,1.096328,6.9857462,237.89952)">
      <stop
         offset="0"
         style="stop-color:rgb(0%,0%,0%);stop-opacity:0.2;"
         id="stop14-3" />
      <stop
         offset="1"
         style="stop-color:rgb(100%,100%,100%);stop-opacity:0;"
         id="stop16" />
    </linearGradient>
  </defs>
  <metadata
     id="metadata24">
    <rdf:RDF>
      <cc:Work
         rdf:about="">
        <dc:format>image/svg+xml</dc:format>
        <dc:type
           rdf:resource="http://purl.org/dc/dcmitype/StillImage" />
      </cc:Work>
    </rdf:RDF>
  </metadata>
  <g
     transform="matrix(0.93333,0,0,0.93333,-10.586,-4.763)"
     stroke-linecap="round"
     stroke-linejoin="round"
     id="g34">
    <g
       id="g5"
       transform="matrix(1.1948138,0,0,1.1948138,-3.0281832,-1.8040886)">
      <rect
         x="12.476"
         y="7.5528002"
         width="14.287"
         height="11.641"
         ry="0.54354"
         fill="url(#linearGradient1229)"
         stroke-width="0.53429"
         style="fill:url(#linearGradient1229);paint-order:stroke fill markers"
         id="rect26" />
      <path
         style="fill:#dedede;fill-opacity:1;fill-rule:nonzero;stroke:none;stroke-width:0.386794"
         d="m 15.397779,9.1501339 c -0.08007,0 -0.145035,0.06496 -0.145035,0.145034 v 0.4623 c -0.595248,0.104243 -0.978987,0.5227301 -0.978987,0.9880511 0,0.465321 0.383739,0.885318 0.978987,0.989562 v 0.846037 c -0.23115,-0.08763 -0.338415,-0.255323 -0.338415,-0.255323 -0.0423,-0.06345 -0.108776,-0.108775 -0.184316,-0.123883 -0.07554,-0.0151 -0.154099,0 -0.219063,0.0423 -0.06345,0.0423 -0.108776,0.108776 -0.123884,0.184313 -0.01511,0.07554 0,0.1541 0.0423,0.219064 0,0 0.287048,0.410933 0.823376,0.530285 v 0.468342 c 0,0.08158 0.06496,0.145035 0.145035,0.145035 h 0.29007 c 0.08007,0 0.145034,-0.06345 0.145034,-0.145035 v -0.459278 c 0.59676,-0.104243 0.978988,-0.524241 0.978988,-0.989562 0,-0.465321 -0.382228,-0.886828 -0.978988,-0.991072 v -0.844527 c 0.232661,0.08763 0.338416,0.255322 0.338416,0.255322 0.08913,0.132949 0.268919,0.167697 0.401868,0.07856 0.132948,-0.08763 0.169207,-0.265899 0.08158,-0.398846 0,0 -0.285537,-0.4124431 -0.821865,-0.5317961 v -0.469853 c 0,-0.08007 -0.06496,-0.145034 -0.145034,-0.145034 z m -0.145035,1.1920071 v 0.806758 c -0.305178,-0.07252 -0.398847,-0.255324 -0.398847,-0.40338 0,-0.148056 0.09367,-0.330861 0.398847,-0.403378 z m 0.580139,1.45035 c 0.305178,0.07101 0.398848,0.256833 0.398848,0.404889 0,0.149568 -0.09367,0.332371 -0.398848,0.403378 z m 1.305315,1.418624 c -0.08007,0 -0.145034,0.06496 -0.145034,0.145036 v 0.290069 c 0,0.08158 0.06497,0.145035 0.145034,0.145035 h 1.450351 c 0.08007,0 0.145035,-0.06345 0.145035,-0.145035 v -0.290069 c 0,-0.08007 -0.06496,-0.145036 -0.145035,-0.145036 z m 0,0"
         id="path27" />
      <path
         style="fill:url(#linear2);fill-rule:nonzero;stroke:none;stroke-width:0.386794"
         d="m 15.397779,9.1501339 c -0.08007,0 -0.145035,0.06496 -0.145035,0.145034 v 0.4623 c -0.595248,0.104243 -0.978987,0.5227301 -0.978987,0.9880511 0,0.465321 0.383739,0.885318 0.978987,0.989562 v 0.846037 c -0.23115,-0.08763 -0.338415,-0.255323 -0.338415,-0.255323 -0.0423,-0.06345 -0.108776,-0.108775 -0.184316,-0.123883 -0.07554,-0.0151 -0.154099,0 -0.219063,0.0423 -0.06345,0.0423 -0.108776,0.108776 -0.123884,0.184313 -0.01511,0.07554 0,0.1541 0.0423,0.219064 0,0 0.287048,0.410933 0.823376,0.530285 v 0.468342 c 0,0.08158 0.06496,0.145035 0.145035,0.145035 h 0.29007 c 0.08007,0 0.145034,-0.06345 0.145034,-0.145035 v -0.459278 c 0.59676,-0.104243 0.978988,-0.524241 0.978988,-0.989562 0,-0.465321 -0.382228,-0.886828 -0.978988,-0.991072 v -0.844527 c 0.232661,0.08763 0.338416,0.255322 0.338416,0.255322 0.08913,0.132949 0.268919,0.167697 0.401868,0.07856 0.132948,-0.08763 0.169207,-0.265899 0.08158,-0.398846 0,0 -0.285537,-0.4124431 -0.821865,-0.5317961 v -0.469853 c 0,-0.08007 -0.06496,-0.145034 -0.145034,-0.145034 z m -0.145035,1.1920071 v 0.806758 c -0.305178,-0.07252 -0.398847,-0.255324 -0.398847,-0.40338 0,-0.148056 0.09367,-0.330861 0.398847,-0.403378 z m 0.580139,1.45035 c 0.305178,0.07101 0.398848,0.256833 0.398848,0.404889 0,0.149568 -0.09367,0.332371 -0.398848,0.403378 z m 1.305315,1.418624 c -0.08007,0 -0.145034,0.06496 -0.145034,0.145036 v 0.290069 c 0,0.08158 0.06497,0.145035 0.145034,0.145035 h 1.450351 c 0.08007,0 0.145035,-0.06345 0.145035,-0.145035 v -0.290069 c 0,-0.08007 -0.06496,-0.145036 -0.145035,-0.145036 z m 0,0"
         id="path29" />
      <path
         style="fill:#000000;fill-opacity:0.4;fill-rule:nonzero;stroke:none;stroke-width:0.386794"
         d="m 15.252744,10.342141 c -0.305178,0.07252 -0.398847,0.255322 -0.398847,0.403378 0,0.02269 0.0076,0.04835 0.01209,0.07252 0.02719,-0.131438 0.129926,-0.27043 0.386758,-0.330861 z m 0.580139,0.01965 v 0.145036 c 0.232661,0.08762 0.338416,0.255322 0.338416,0.255322 0.08913,0.132947 0.268919,0.167695 0.401868,0.07856 0.102732,-0.06798 0.151078,-0.193379 0.119351,-0.312731 -0.01662,0.06799 -0.06043,0.128416 -0.119351,0.167696 -0.132949,0.08914 -0.312733,0.05439 -0.401868,-0.07856 0,0 -0.105755,-0.167696 -0.338416,-0.255323 z m -1.551572,0.456253 c -0.003,0.02418 -0.0076,0.04835 -0.0076,0.07252 0,0.46532 0.383739,0.885319 0.978985,0.989563 V 11.73508 c -0.565033,-0.09971 -0.933663,-0.481941 -0.971433,-0.917045 z m 1.551572,0.974455 v 0.145036 c 0.258345,0.06043 0.359566,0.200934 0.386761,0.332371 0.0046,-0.02417 0.01207,-0.04834 0.01207,-0.07252 0,-0.148056 -0.09367,-0.332371 -0.398847,-0.404889 z m 0.971434,0.477407 c -0.03778,0.435106 -0.406401,0.818844 -0.971434,0.917045 v 0.145035 c 0.59676,-0.104244 0.978988,-0.524242 0.978988,-0.989563 0,-0.02416 -0.0061,-0.04834 -0.0076,-0.07252 z m -2.412719,0.288557 c -0.02115,0.08007 -0.0076,0.164677 0.03928,0.234174 0,0 0.285537,0.410931 0.821865,0.530283 v -0.145043 c -0.536328,-0.119356 -0.821865,-0.530289 -0.821865,-0.530289 -0.01813,-0.02719 -0.03173,-0.05741 -0.03928,-0.08914 z m 0.861146,1.087765 v 0.145035 c 0,0.08158 0.06496,0.145034 0.145035,0.145034 h 0.29007 c 0.08007,0 0.145034,-0.06345 0.145034,-0.145034 v -0.145035 c 0,0.08158 -0.06496,0.145035 -0.145034,0.145035 h -0.29007 c -0.08007,0 -0.145035,-0.06345 -0.145035,-0.145035 z m 1.74042,0 v 0.145035 c 0,0.08158 0.06497,0.145034 0.145034,0.145034 h 1.450351 c 0.08007,0 0.145035,-0.06345 0.145035,-0.145034 v -0.145035 c 0,0.08158 -0.06496,0.145035 -0.145035,0.145035 h -1.450351 c -0.08007,0 -0.145034,-0.06345 -0.145034,-0.145035 z m 0,0"
         id="path31" />
      <path
         style="fill:#fdfdfd;fill-opacity:0.4;fill-rule:nonzero;stroke:none;stroke-width:0.386794"
         d="m 15.397779,9.1501339 c -0.08007,0 -0.145035,0.06496 -0.145035,0.145034 v 0.145036 c 0,-0.08007 0.06496,-0.145036 0.145035,-0.145036 h 0.29007 c 0.08007,0 0.145034,0.06496 0.145034,0.145036 v -0.145036 c 0,-0.08007 -0.06496,-0.145034 -0.145034,-0.145034 z m -0.145035,0.607334 c -0.595248,0.104243 -0.978987,0.5227301 -0.978987,0.9880511 0,0.02418 0.0045,0.04835 0.0076,0.07252 0.03777,-0.435105 0.4064,-0.817333 0.971436,-0.9155341 z m 0.580139,0.0076 v 0.145035 c 0.536328,0.1193511 0.821865,0.5302841 0.821865,0.5302841 0.01813,0.02717 0.0302,0.0559 0.03778,0.08611 0.02117,-0.07856 0.0076,-0.161653 -0.03778,-0.231149 0,0 -0.285537,-0.4109321 -0.821865,-0.5302841 z M 14.865984,10.81808 c -0.0045,0.02418 -0.01209,0.04835 -0.01209,0.07252 0,0.148057 0.09367,0.330863 0.39885,0.40187 v -0.145046 c -0.256833,-0.05892 -0.359567,-0.197913 -0.386761,-0.32935 z m 0.966899,0.388272 v 0.145033 c 0.565033,0.0982 0.933664,0.48345 0.971434,0.918555 0.0014,-0.02417 0.0076,-0.04834 0.0076,-0.07252 0,-0.465322 -0.382229,-0.886829 -0.978988,-0.991072 z m -1.167833,0.989559 c -0.05439,0.0014 -0.107266,0.01813 -0.1541,0.04834 -0.102733,0.06798 -0.151078,0.194889 -0.119352,0.31424 0.01662,-0.06949 0.06043,-0.129926 0.119352,-0.169205 0.06496,-0.0423 0.143524,-0.05741 0.219063,-0.0423 0.07554,0.0151 0.142014,0.06043 0.184316,0.123884 0,0 0.107265,0.167697 0.338415,0.25381 v -0.145035 c -0.23115,-0.08612 -0.338415,-0.253817 -0.338415,-0.253817 -0.0559,-0.08309 -0.149568,-0.131439 -0.249279,-0.129927 z m 1.554594,0.07403 c -0.02717,0.131439 -0.128416,0.270429 -0.386761,0.330861 v 0.145037 c 0.305178,-0.07101 0.398848,-0.253813 0.398848,-0.403381 0,-0.02269 -0.0076,-0.04834 -0.01207,-0.07252 z m 0.918554,0.941218 c -0.08007,0 -0.145034,0.06496 -0.145034,0.145036 v 0.145034 c 0,-0.08007 0.06497,-0.145034 0.145034,-0.145034 h 1.450351 c 0.08007,0 0.145035,0.06496 0.145035,0.145034 v -0.145037 c 0,-0.08007 -0.06496,-0.145036 -0.145035,-0.145036 z m 0,0"
         id="path33" />
    </g>
  </g>
</svg>
