<svg xmlns="http://www.w3.org/2000/svg" xmlns:xlink="http://www.w3.org/1999/xlink" width="64" height="64" viewBox="0 0 16.933 16.933"><defs><linearGradient xlink:href="#a" id="e" x1="342.632" x2="403.47" y1="348.095" y2="348.095" gradientTransform="matrix(.19285 0 0 .19285 -65.512 -59.933)" gradientUnits="userSpaceOnUse"/><linearGradient id="a"><stop offset="0" style="stop-color:#84d74b;stop-opacity:1"/><stop offset="1" style="stop-color:#43891a;stop-opacity:1"/></linearGradient><linearGradient id="b"><stop offset="0" style="stop-color:#8be542;stop-opacity:1"/><stop offset="1" style="stop-color:#8be542;stop-opacity:0"/></linearGradient><linearGradient id="c"><stop offset="0" style="stop-color:#3e9815;stop-opacity:1"/><stop offset=".496" style="stop-color:#3e9815;stop-opacity:.90980392"/><stop offset=".73" style="stop-color:#3e9815;stop-opacity:0"/><stop offset="1" style="stop-color:#3e9815;stop-opacity:0"/></linearGradient><linearGradient id="d"><stop offset="0" style="stop-color:#8dcd6f;stop-opacity:1"/><stop offset=".459" style="stop-color:#9ed87e;stop-opacity:1"/><stop offset="1" style="stop-color:#cbe0dc;stop-opacity:1"/></linearGradient><radialGradient xlink:href="#b" id="f" cx="376.144" cy="319.687" r="30.419" fx="376.144" fy="319.687" gradientTransform="matrix(.19285 0 0 .17478 -65.512 -53.645)" gradientUnits="userSpaceOnUse"/><radialGradient xlink:href="#c" id="g" cx="395.719" cy="364.467" r="30.419" fx="395.719" fy="364.467" gradientTransform="matrix(.13678 .12564 -.15286 .1664 12.388 -100.313)" gradientUnits="userSpaceOnUse"/><radialGradient xlink:href="#d" id="h" cx="388.601" cy="355.386" r="24.833" fx="388.601" fy="355.386" gradientTransform="matrix(.1649 -.12016 .08174 .11217 -83.697 15.585)" gradientUnits="userSpaceOnUse"/></defs><path d="M6.43 1.879a5.866 5.07 0 0 0-5.866 5.07A5.866 5.07 0 0 0 2.75 10.9l-.282 1.246a.29.29 0 0 0 .446.313l1.237-.837a5.866 5.07 0 0 0 2.279.399 5.866 5.07 0 0 0 5.866-5.07A5.866 5.07 0 0 0 6.43 1.878z" style="fill:url(#e);fill-opacity:1;stroke:none;stroke-width:.953095;stroke-linecap:square;stroke-miterlimit:4;stroke-dasharray:none;stroke-opacity:1"/><path d="M6.43 1.879a5.866 5.07 0 0 0-5.866 5.07A5.866 5.07 0 0 0 2.75 10.9l-.282 1.246a.29.29 0 0 0 .446.313l1.237-.837a5.866 5.07 0 0 0 2.279.399 5.866 5.07 0 0 0 5.866-5.07A5.866 5.07 0 0 0 6.43 1.878z" style="fill:url(#f);fill-opacity:1;stroke:none;stroke-width:.953095;stroke-linecap:square;stroke-miterlimit:4;stroke-dasharray:none;stroke-opacity:1"/><path d="M6.43 1.879a5.866 5.07 0 0 0-5.866 5.07A5.866 5.07 0 0 0 2.75 10.9l-.282 1.246a.29.29 0 0 0 .446.313l1.237-.837a5.866 5.07 0 0 0 2.279.399 5.866 5.07 0 0 0 5.866-5.07A5.866 5.07 0 0 0 6.43 1.878z" style="fill:url(#g);fill-opacity:1;stroke:none;stroke-width:.953095;stroke-linecap:square;stroke-miterlimit:4;stroke-dasharray:none;stroke-opacity:1"/><path d="M11.882 6.39a4.789 4.227 0 0 0-4.755 4.228 4.789 4.227 0 0 0 4.789 4.227 4.789 4.227 0 0 0 1.777-.302l1.066.72a.29.29 0 0 0 .446-.313l-.243-1.07a4.789 4.227 0 0 0 1.743-3.262 4.789 4.227 0 0 0-4.79-4.228 4.789 4.227 0 0 0-.033 0z" style="fill:url(#h);fill-opacity:1;stroke:none;stroke-width:.786275;stroke-linecap:square;stroke-miterlimit:4;stroke-dasharray:none;stroke-opacity:1"/><path d="M11.882 6.39a4.789 4.227 0 0 0-4.755 4.228 4.789 4.227 0 0 0 1.852 3.338 4.789 4.227 0 0 1-1.68-3.215 4.789 4.227 0 0 1 4.756-4.227 4.789 4.227 0 0 1 .033 0 4.789 4.227 0 0 1 2.936.887 4.789 4.227 0 0 0-3.108-1.01 4.789 4.227 0 0 0-.034 0z" style="fill:#fff;fill-opacity:.237218;stroke:none;stroke-width:.786275;stroke-linecap:square;stroke-miterlimit:4;stroke-dasharray:none;stroke-opacity:1"/><circle cx="5.017" cy="5.614" r=".68" style="fill:#2b4b2a;fill-opacity:.625803;stroke:none;stroke-width:.578539;stroke-linecap:square;stroke-linejoin:round;stroke-miterlimit:4;stroke-dasharray:none;stroke-opacity:1"/><circle cx="8.794" cy="5.614" r=".68" style="fill:#2b4b2a;fill-opacity:.625803;stroke:none;stroke-width:.578539;stroke-linecap:square;stroke-linejoin:round;stroke-miterlimit:4;stroke-dasharray:none;stroke-opacity:1"/><circle cx="10.498" cy="9.769" r=".605" style="fill:#6a8b82;fill-opacity:1;stroke:none;stroke-width:.633989;stroke-linecap:square;stroke-linejoin:round;stroke-miterlimit:4;stroke-dasharray:none;stroke-opacity:1"/><circle cx="13.689" cy="9.769" r=".605" style="fill:#70857f;fill-opacity:1;stroke:none;stroke-width:.633989;stroke-linecap:square;stroke-linejoin:round;stroke-miterlimit:4;stroke-dasharray:none;stroke-opacity:1"/></svg>