<?xml version="1.0" encoding="UTF-8" standalone="no"?>
<svg
   width="22"
   height="22"
   version="1.1"
   id="svg9"
   sodipodi:docname="klipper.svg"
   inkscape:version="1.1.2 (0a00cf5339, 2022-02-04)"
   xmlns:inkscape="http://www.inkscape.org/namespaces/inkscape"
   xmlns:sodipodi="http://sodipodi.sourceforge.net/DTD/sodipodi-0.dtd"
   xmlns="http://www.w3.org/2000/svg"
   xmlns:svg="http://www.w3.org/2000/svg">
  <sodipodi:namedview
     id="namedview11"
     pagecolor="#888888"
     bordercolor="#666666"
     borderopacity="1.0"
     inkscape:pageshadow="2"
     inkscape:pageopacity="0"
     inkscape:pagecheckerboard="0"
     showgrid="false"
     inkscape:zoom="20.248967"
     inkscape:cx="1.1852457"
     inkscape:cy="3.7779705"
     inkscape:window-width="1920"
     inkscape:window-height="1022"
     inkscape:window-x="0"
     inkscape:window-y="0"
     inkscape:window-maximized="1"
     inkscape:current-layer="svg9" />
  <defs
     id="defs3">
    <style
       id="current-color-scheme"
       type="text/css">.ColorScheme-Text { color:#ffffff; } .ColorScheme-Highlight { color:#4285f4; }</style>
  </defs>
  <path
     class="ColorScheme-Text"
     d="m 16,4 c 1.108,0 2,0.892 2,2 v 10 c 0,1.108 -0.892,2 -2,2 H 6 C 4.892,18 4,17.108 4,16 V 6 C 4,4.892 4.892,4 6,4 V 3 C 4.338,3 3,4.338 3,6 v 10 c 0,1.662 1.338,3 3,3 h 10 c 1.662,0 3,-1.338 3,-3 V 6 C 19,4.338 17.662,3 16,3 Z"
     fill="currentColor"
     id="path5"
     sodipodi:nodetypes="cssssssccsssssscc" />
  <rect
     style="fill:#ffffff;fill-opacity:1;stroke-width:2;stroke-linecap:round;stroke-linejoin:round"
     id="rect930"
     width="8.1807947"
     height="3.6128609"
     x="6.9096026"
     y="0.92735738"
     rx="0.97469503"
     ry="0.97469503" />
  <rect
     style="fill:#ffffff;fill-opacity:1;stroke-width:2;stroke-linecap:round;stroke-linejoin:round"
     id="rect1283"
     width="7.4672017"
     height="1.5411665"
     x="5.4681611"
     y="7.7515526"
     rx="0.77058327"
     ry="0.77058327" />
  <rect
     style="fill:#ffffff;fill-opacity:1;stroke-width:2;stroke-linecap:round;stroke-linejoin:round"
     id="rect1669"
     width="7.4672017"
     height="1.5411665"
     x="5.4681611"
     y="10.698462"
     rx="0.77058327"
     ry="0.77058327" />
</svg>
