<?xml version="1.0" encoding="UTF-8" standalone="no"?>
<svg
   xmlns:dc="http://purl.org/dc/elements/1.1/"
   xmlns:cc="http://creativecommons.org/ns#"
   xmlns:rdf="http://www.w3.org/1999/02/22-rdf-syntax-ns#"
   xmlns:svg="http://www.w3.org/2000/svg"
   xmlns="http://www.w3.org/2000/svg"
   xmlns:sodipodi="http://sodipodi.sourceforge.net/DTD/sodipodi-0.dtd"
   xmlns:inkscape="http://www.inkscape.org/namespaces/inkscape"
   id="svg4306"
   width="22"
   height="22"
   version="1.1"
   style="enable-background:new"
   sodipodi:docname="restore.svg"
   inkscape:version="0.92.4 (5da689c313, 2019-01-14)">
  <metadata
     id="metadata24">
    <rdf:RDF>
      <cc:Work
         rdf:about="">
        <dc:format>image/svg+xml</dc:format>
        <dc:type
           rdf:resource="http://purl.org/dc/dcmitype/StillImage" />
        <dc:title></dc:title>
      </cc:Work>
    </rdf:RDF>
  </metadata>
  <defs
     id="defs22" />
  <sodipodi:namedview
     pagecolor="#000000"
     bordercolor="#666666"
     borderopacity="1"
     objecttolerance="10"
     gridtolerance="10"
     guidetolerance="10"
     inkscape:pageopacity="0"
     inkscape:pageshadow="2"
     inkscape:window-width="1366"
     inkscape:window-height="704"
     id="namedview20"
     showgrid="false"
     inkscape:zoom="4.0980052"
     inkscape:cx="-34.143915"
     inkscape:cy="11"
     inkscape:window-x="0"
     inkscape:window-y="0"
     inkscape:window-maximized="1"
     inkscape:current-layer="svg4306" />
  <g
     id="active-center"
     inkscape:label="#g830"
     style="opacity:0.4;fill:#008000;enable-background:new">
    <circle
       inkscape:label=""
       id="15-7-5"
       cx="-11"
       cy="11"
       r="11"
       style="opacity:1;fill:#008000;fill-opacity:1;fill-rule:nonzero;stroke:none;stroke-width:0;stroke-linecap:square;stroke-linejoin:round;stroke-miterlimit:4;stroke-dasharray:none;stroke-dashoffset:478.43673706;stroke-opacity:0.4" />
  </g>
  <g
     id="inactive-center"
     inkscape:label="#g830"
     style="opacity:0.4;fill:#e6e6e6;enable-background:new"
     transform="translate(-22)">
    <circle
       inkscape:label=""
       id="15-7-5-70"
       cx="-11"
       cy="11"
       r="11"
       style="opacity:1;fill:#e6e6e6;fill-opacity:1;fill-rule:nonzero;stroke:none;stroke-width:0;stroke-linecap:square;stroke-linejoin:round;stroke-miterlimit:4;stroke-dasharray:none;stroke-dashoffset:478.43673706;stroke-opacity:0.4" />
  </g>
  <g
     id="hover-center"
     inkscape:label="#g828">
    <circle
       inkscape:label=""
       id="15-7-5-7"
       cx="11"
       cy="11"
       r="11"
       style="opacity:0.4;fill:#008000;fill-opacity:1;fill-rule:nonzero;stroke:none;stroke-width:0;stroke-linecap:square;stroke-linejoin:round;stroke-miterlimit:4;stroke-dasharray:none;stroke-dashoffset:478.43673706;stroke-opacity:0.4" />
    <path
       id="path4"
       class="ColorScheme-Text"
       d="M 9.25,4 11,5.75 12.75,4 Z M 6.625,6.625 v 2.625 5.25 0.875 h 8.75 V 14.5 6.625 H 7.5 Z M 4,9.25 v 3.5 L 5.75,11 Z m 3.5,0 h 7 v 5.25 h -7 z M 18,9.25 16.25,11 18,12.75 Z m -7,7 L 9.25,18 h 3.5 z"
       style="fill:#ffffff;fill-opacity:1;stroke:none;stroke-width:0.875"
       inkscape:connector-curvature="0" />
  </g>
  <g
     id="pressed-center"
     inkscape:label="#g884"
     transform="translate(22)">
    <circle
       inkscape:label=""
       id="15-7-5-7-6"
       cx="11"
       cy="11"
       r="11"
       style="opacity:0.01000001;fill:#008000;fill-opacity:1;fill-rule:nonzero;stroke:none;stroke-width:0;stroke-linecap:square;stroke-linejoin:round;stroke-miterlimit:4;stroke-dasharray:none;stroke-dashoffset:478.43673706;stroke-opacity:0.4" />
    <path
       id="path4-7"
       class="ColorScheme-Text"
       d="M 9.25,4 11,5.75 12.75,4 Z M 6.625,6.625 v 2.625 5.25 0.875 h 8.75 V 14.5 6.625 H 7.5 Z M 4,9.25 v 3.5 L 5.75,11 Z m 3.5,0 h 7 v 5.25 h -7 z M 18,9.25 16.25,11 18,12.75 Z m -7,7 L 9.25,18 h 3.5 z"
       style="fill:#e6e6e6;fill-opacity:1;stroke:none;stroke-width:0.875"
       inkscape:connector-curvature="0" />
  </g>
  <g
     style="enable-background:new"
     id="deactivated-center"
     inkscape:label="#g884"
     transform="translate(44)">
    <circle
       inkscape:label=""
       id="15-7-5-7-6-3"
       cx="11"
       cy="11"
       r="11"
       style="opacity:0.01000001;fill:#008000;fill-opacity:1;fill-rule:nonzero;stroke:none;stroke-width:0;stroke-linecap:square;stroke-linejoin:round;stroke-miterlimit:4;stroke-dasharray:none;stroke-dashoffset:478.43673706;stroke-opacity:0.4" />
    <path
       id="path4-7-5"
       class="ColorScheme-Text"
       d="M 9.25,4 11,5.75 12.75,4 Z M 6.625,6.625 v 2.625 5.25 0.875 h 8.75 V 14.5 6.625 H 7.5 Z M 4,9.25 v 3.5 L 5.75,11 Z m 3.5,0 h 7 v 5.25 h -7 z M 18,9.25 16.25,11 18,12.75 Z m -7,7 L 9.25,18 h 3.5 z"
       style="fill:#e6e6e6;fill-opacity:1;stroke:none;stroke-width:0.875"
       inkscape:connector-curvature="0" />
  </g>
</svg>
