<svg xmlns="http://www.w3.org/2000/svg" xmlns:xlink="http://www.w3.org/1999/xlink" width="252" height="252"><defs><linearGradient id="c"><stop offset="0" stop-color="#fff" stop-opacity=".075"/><stop offset=".217" stop-color="#0ff" stop-opacity=".245"/><stop offset=".633" stop-color="#0ff" stop-opacity=".462"/><stop offset="1" stop-color="#002b22"/></linearGradient><linearGradient id="b"><stop offset="0" stop-color="#0ff" stop-opacity=".004"/><stop offset=".747" stop-color="#1a1a1a" stop-opacity=".194"/><stop offset="1" stop-color="#0ff" stop-opacity=".53"/></linearGradient><linearGradient id="g"><stop offset="0" stop-color="#0ff" stop-opacity=".016"/><stop offset="1" stop-color="#1a1a1a"/></linearGradient><linearGradient id="a"><stop offset="0" stop-color="#1a1a1a"/><stop offset=".664" stop-color="#2c89a0" stop-opacity="0"/><stop offset="1" stop-color="#1a1a1a"/></linearGradient><radialGradient xlink:href="#d" id="t" cx="124.215" cy="231" fx="124.215" fy="231" r="61.171" gradientTransform="matrix(2.94153 -.27393 .06434 .69085 -254.245 109.968)" gradientUnits="userSpaceOnUse"/><linearGradient id="d"><stop offset="0" stop-color="#054" stop-opacity="0"/><stop offset="1" stop-color="#054"/></linearGradient><linearGradient xlink:href="#b" id="s" gradientUnits="userSpaceOnUse" gradientTransform="matrix(1.27483 0 0 1.27483 -33.415 -29.112)" x1="88.359" y1="110.42" x2="164.454" y2="105.1"/><linearGradient gradientTransform="matrix(1.27483 0 0 1.27483 -33.415 -29.112)" xlink:href="#e" id="r" x1="86.425" y1="110.904" x2="173.644" y2="113.806" gradientUnits="userSpaceOnUse"/><linearGradient id="e"><stop offset="0" stop-color="#0ff" stop-opacity=".53"/><stop offset=".253" stop-color="#1a1a1a" stop-opacity=".194"/><stop offset="1" stop-color="#0ff" stop-opacity=".004"/></linearGradient><linearGradient gradientTransform="matrix(1.27483 0 0 1.27483 -33.415 -29.112)" xlink:href="#f" id="q" gradientUnits="userSpaceOnUse" x1="198.436" y1="188.635" x2="156.423" y2="150.049"/><linearGradient id="f"><stop offset="0" stop-color="#0ff" stop-opacity=".466"/><stop offset="1" stop-color="#0ff" stop-opacity="0"/></linearGradient><linearGradient gradientTransform="matrix(1.27483 0 0 1.27483 -33.415 -29.112)" xlink:href="#g" id="p" gradientUnits="userSpaceOnUse" x1="185.377" y1="115.599" x2="141.429" y2="123.446"/><linearGradient xlink:href="#h" id="o" gradientUnits="userSpaceOnUse" gradientTransform="matrix(1.27483 0 0 1.27483 -33.415 -29.112)" x1="55.082" y1="188.035" x2="84.365" y2="164.318"/><linearGradient id="h"><stop offset="0" stop-color="#0ff" stop-opacity=".486"/><stop offset="1" stop-color="#0ff" stop-opacity="0"/></linearGradient><radialGradient xlink:href="#i" id="n" cx="161.543" cy="235.937" fx="161.543" fy="235.937" r="61.171" gradientTransform="matrix(.45973 4.0572 -2.2293 .2526 581.6 -478.7)" gradientUnits="userSpaceOnUse"/><linearGradient id="i"><stop offset="0" stop-color="#054" stop-opacity=".395"/><stop offset="1" stop-color="#054"/></linearGradient><linearGradient gradientTransform="matrix(1.27483 0 0 1.27483 -33.415 -29.112)" xlink:href="#j" id="m" gradientUnits="userSpaceOnUse" x1="70.076" y1="117.417" x2="109.033" y2="121.754"/><linearGradient id="j"><stop offset="0" stop-color="#0ff" stop-opacity="0"/><stop offset="1" stop-color="#1a1a1a"/></linearGradient><linearGradient gradientTransform="matrix(1.27483 0 0 1.27483 -34.628 -34.628)" xlink:href="#k" id="l" x1="124.093" y1="-75.454" x2="125.37" y2="60.797" gradientUnits="userSpaceOnUse"/><linearGradient id="k"><stop offset="0"/><stop offset="1" stop-color="#0ff" stop-opacity="0"/></linearGradient></defs><path d="M123.463 5.397c-11.432 0-21.964 3.886-30.599 10.253-1.195.882-2.475 1.654-3.59 2.634a51.957 51.957 0 0 0-11.396 14.307 51.507 51.507 0 0 0-3.675 8.593 51.933 51.933 0 0 0-2.1 9.35L48.398 235.339l-.002.002c-.7 1.356-.496 2.752 1.337 4.053 5.227 2.681 12.204 4.566 20.318 5.735 1.623.233 3.291.437 5 .615 29.049 3.01 69.808-2.07 98.092-12.084a140.794 140.794 0 0 0 4.857-1.818c12.58-4.98 22.08-11.011 25.983-17.765a3.266 3.266 0 0 0-.2-.814L174.82 50.533a51.943 51.943 0 0 0-2.099-9.349 51.49 51.49 0 0 0-3.675-8.593 51.734 51.734 0 0 0-5.081-7.683 51.97 51.97 0 0 0-6.315-6.624c-.332-.292-.73-.5-1.07-.784-9.032-7.538-20.573-12.103-33.116-12.103z" opacity=".301" fill="#0cf"/><path d="M123.463 5.396c-11.432 0-21.963 3.886-30.598 10.253l-22.27 192.867.222.1c.023-.406-.164-.924-.072-1.29.295-1.187.939-2.175 1.855-2.996.915-.82 2.105-1.474 3.49-1.984 1.386-.51 2.969-.879 4.674-1.136l28.178 1.591s4.625.061 11.516-.572c3.446-.317 7.456-.808 11.74-1.566 4.284-.76 8.84-1.786 13.373-3.175 0 0 17.762-6.034 28.178-9.768 1.706-.238 3.288-.327 4.674-.22 1.385.11 2.575.415 3.49.97.459.277.849.618 1.16 1.025.038.05.05.123.085.175L156.58 17.5c-9.032-7.539-20.572-12.104-33.116-12.104z" fill="url(#l)"/><path d="M92.865 15.65c-1.196.88-2.475 1.653-3.59 2.633A51.956 51.956 0 0 0 77.877 32.59a51.509 51.509 0 0 0-3.675 8.593 51.933 51.933 0 0 0-2.099 9.35L48.393 235.368c.326-.644.84-1.28 1.504-1.893.684-.631 1.508-1.24 2.388-1.807 1.759-1.136 3.742-2.11 5.286-2.802 1.543-.692 2.649-1.1 2.649-1.1 2.847-1.372 5.228-2.388 7.208-3.147a55.328 55.328 0 0 1 4.793-1.611c2.472-.698 3.58-.78 3.817-1.054.237-.274-.396-.742-1.404-2.213a21.668 21.668 0 0 1-1.733-3.06c-.63-1.339-1.292-3.032-1.925-5.177-.328-1.112-.21-1.982-.16-2.888l-.22-.099z" fill="url(#m)"/><path d="M80.764 201.21c-6.822 1.028-11.687 3.86-9.788 10.295 5.062 17.16 12.022 5.286-10.757 16.26 0 0-17.661 6.534-10.486 11.628 33.447 17.157 138.64 1.697 154.249-25.318-.264-2.415-3.18-4.431-9.687-5.761-22.78-4.364-15.82 5.49-10.757-13.139 1.898-6.985-2.967-8.406-9.789-7.454-10.416 3.733-28.177 9.767-28.177 9.767-18.132 5.558-36.63 5.315-36.63 5.315l-28.178-1.592z" fill="url(#n)"/><path d="M92.865 15.65c-1.196.88-2.475 1.653-3.59 2.633A51.956 51.956 0 0 0 77.877 32.59a51.509 51.509 0 0 0-3.675 8.593 51.933 51.933 0 0 0-2.099 9.35L48.393 235.368c.326-.644.84-1.28 1.504-1.893.684-.631 1.508-1.24 2.388-1.807 1.759-1.136 3.742-2.11 5.286-2.802 1.543-.692 2.649-1.1 2.649-1.1 2.847-1.372 5.228-2.388 7.208-3.147a55.328 55.328 0 0 1 4.793-1.611c2.472-.698 3.58-.78 3.817-1.054.237-.274-.396-.742-1.404-2.213a21.668 21.668 0 0 1-1.733-3.06c-.63-1.339-1.292-3.032-1.925-5.177-.328-1.112-.21-1.982-.16-2.888l-.22-.099z" fill="url(#o)"/><path d="M156.579 17.5l26.58 172.17c.257.373.48.777.61 1.26.295 1.1.242 2.5-.232 4.246-.633 2.328-1.294 4.212-1.925 5.734a31.045 31.045 0 0 1-1.733 3.563c-1.008 1.764-1.641 2.414-1.404 2.62.237.205 1.345-.035 3.817-.052a48.23 48.23 0 0 1 4.793.219c1.98.185 4.363.508 7.21 1.053 1.627.333 3.029.71 4.221 1.123 1.193.414 2.176.866 2.963 1.352.788.486 1.38 1.007 1.793 1.556.356.475.516.983.612 1.5L174.82 50.532a51.92 51.92 0 0 0-2.1-9.35 51.533 51.533 0 0 0-8.756-16.276 51.95 51.95 0 0 0-6.315-6.624c-.332-.292-.73-.5-1.07-.784z" fill="url(#p)"/><path d="M156.579 17.5l26.58 172.17c.257.373.48.777.61 1.26.295 1.1.242 2.5-.232 4.246-.633 2.328-1.294 4.212-1.925 5.734a31.045 31.045 0 0 1-1.733 3.563c-1.008 1.764-1.641 2.414-1.404 2.62.237.205 1.345-.035 3.817-.052a48.23 48.23 0 0 1 4.793.219c1.98.185 4.363.508 7.21 1.053 1.627.333 3.029.71 4.221 1.123 1.193.414 2.176.866 2.963 1.352.788.486 1.38 1.007 1.793 1.556.356.475.516.983.612 1.5L174.82 50.532a51.92 51.92 0 0 0-2.1-9.35 51.533 51.533 0 0 0-8.756-16.276 51.95 51.95 0 0 0-6.315-6.624c-.332-.292-.73-.5-1.07-.784z" fill="url(#q)"/><path d="M123.463 5.396c-11.432 0-21.963 3.886-30.598 10.253l-22.27 192.867.222.1c.023-.406-.164-.924-.072-1.29.295-1.187.939-2.175 1.855-2.996.915-.82 2.105-1.474 3.49-1.984 1.386-.51 2.968-.879 4.674-1.136l28.178 1.591s4.625.061 11.516-.572c3.446-.317 7.456-.808 11.74-1.566 4.284-.76 8.84-1.786 13.373-3.175 0 0 17.762-6.034 28.178-9.768 1.706-.238 3.288-.327 4.674-.22 1.385.11 2.575.415 3.49.97.459.277.849.618 1.16 1.025.038.05.05.123.085.175L156.58 17.5c-9.032-7.539-20.572-12.104-33.116-12.104z" fill="url(#r)"/><path d="M123.463 5.396c-11.432 0-21.963 3.886-30.598 10.253l-22.27 192.867.222.1c.023-.406-.164-.924-.072-1.29.295-1.187.939-2.175 1.855-2.996.915-.82 2.105-1.474 3.49-1.984 1.386-.51 2.968-.879 4.674-1.136l28.178 1.591s4.625.061 11.516-.572c3.446-.317 7.456-.808 11.74-1.566 4.284-.76 8.84-1.786 13.373-3.175 0 0 17.762-6.034 28.178-9.768 1.706-.238 3.288-.327 4.674-.22 1.385.11 2.575.415 3.49.97.459.277.849.618 1.16 1.025.038.05.05.123.085.175L156.58 17.5c-9.032-7.539-20.572-12.104-33.116-12.104z" fill="url(#s)"/><path d="M80.764 201.21c-6.822 1.028-11.687 3.86-9.788 10.295 5.062 17.16 12.022 5.286-10.757 16.26 0 0-17.661 6.534-10.486 11.628 33.447 17.156 138.64 1.697 154.249-25.318-.264-2.415-3.18-4.431-9.687-5.761-22.78-4.364-15.82 5.49-10.757-13.139 1.898-6.985-2.967-8.407-9.789-7.454-10.416 3.733-28.177 9.767-28.177 9.767-18.132 5.558-36.63 5.315-36.63 5.315l-28.178-1.592z" fill="url(#t)"/><path d="M145.122 89.03c-5.345 0-9.68-4.333-9.68-9.68V60.465c0-5.346 4.335-9.68 9.68-9.68 5.346 0 9.68 4.334 9.68 9.68v18.887c0 5.346-4.334 9.68-9.68 9.68zM106.878 89.03c-5.346 0-9.68-4.333-9.68-9.68V60.465c0-5.346 4.334-9.68 9.68-9.68 5.345 0 9.68 4.334 9.68 9.68v18.887c-.001 5.346-4.335 9.68-9.68 9.68z" opacity=".541" fill="#002b22"/><path d="M106.86 62.861a5.494 5.69 0 0 0-5.495 5.692 5.494 5.69 0 0 0 5.495 5.69 5.494 5.69 0 0 0 5.493-5.69 5.494 5.69 0 0 0-5.493-5.692zm38.245 0a5.494 5.69 0 0 0-5.495 5.692 5.494 5.69 0 0 0 5.495 5.69 5.494 5.69 0 0 0 5.493-5.69 5.494 5.69 0 0 0-5.493-5.692z" opacity=".541" fill="#afe" fill-rule="evenodd"/></svg>