<?xml version="1.0" encoding="UTF-8" standalone="no"?>
<svg
   viewBox="0 0 16 16"
   version="1.1"
   id="svg1"
   sodipodi:docname="folder-publicshare-symbolic.svg"
   inkscape:version="1.3.2 (091e20ef0f, 2023-11-25)"
   xmlns:inkscape="http://www.inkscape.org/namespaces/inkscape"
   xmlns:sodipodi="http://sodipodi.sourceforge.net/DTD/sodipodi-0.dtd"
   xmlns="http://www.w3.org/2000/svg"
   xmlns:svg="http://www.w3.org/2000/svg">
  <defs
     id="defs1" />
  <sodipodi:namedview
     id="namedview1"
     pagecolor="#ffffff"
     bordercolor="#000000"
     borderopacity="0.25"
     inkscape:showpageshadow="2"
     inkscape:pageopacity="0.0"
     inkscape:pagecheckerboard="0"
     inkscape:deskcolor="#d1d1d1"
     inkscape:zoom="30.75"
     inkscape:cx="8"
     inkscape:cy="8"
     inkscape:window-width="1366"
     inkscape:window-height="696"
     inkscape:window-x="0"
     inkscape:window-y="0"
     inkscape:window-maximized="1"
     inkscape:current-layer="svg1" />
  <path
     d="M15 2.5C15 1.125 13.875 0 12.5 0A2.508 2.508 0 0 0 10 2.5C10 3.875 11.125 5 12.5 5S15 3.875 15 2.5zm0 10c0-1.375-1.125-2.5-2.5-2.5a2.508 2.508 0 0 0-2.5 2.5c0 1.375 1.125 2.5 2.5 2.5s2.5-1.125 2.5-2.5zm-1-10c0 .834-.666 1.5-1.5 1.5S11 3.334 11 2.5 11.666 1 12.5 1s1.5.666 1.5 1.5zm0 10c0 .834-.666 1.5-1.5 1.5s-1.5-.666-1.5-1.5.666-1.5 1.5-1.5 1.5.666 1.5 1.5zM9.734 4.61a3.495 3.495 0 0 1-.494-.872L5.387 5.881A2.487 2.487 0 0 0 3.5 5 2.508 2.508 0 0 0 1 7.5C1 8.875 2.125 10 3.5 10c.755 0 1.427-.347 1.887-.88l3.853 2.142c.122-.316.29-.606.494-.871L5.873 8.246C5.948 8.01 6 7.761 6 7.5s-.052-.509-.127-.746zM5 7.5C5 8.334 4.334 9 3.5 9S2 8.334 2 7.5 2.666 6 3.5 6 5 6.666 5 7.5z"
     fill="gray"
     font-family="sans-serif"
     font-weight="400"
     overflow="visible"
     style="font-feature-settings:normal;font-variant-alternates:normal;font-variant-caps:normal;font-variant-ligatures:normal;font-variant-numeric:normal;font-variant-position:normal;isolation:auto;mix-blend-mode:normal;shape-padding:0;text-decoration-color:#000;text-decoration-line:none;text-decoration-style:solid;text-indent:0;text-orientation:mixed;text-transform:none;fill:#fcfcfc;fill-opacity:1"
     white-space="normal"
     id="path1" />
</svg>
