<?xml version="1.0" encoding="UTF-8" standalone="no"?>
<svg
   viewBox="0 0 16 16"
   version="1.1"
   id="svg1"
   sodipodi:docname="folder-videos-symbolic.svg"
   inkscape:version="1.3.2 (091e20ef0f, 2023-11-25)"
   xmlns:inkscape="http://www.inkscape.org/namespaces/inkscape"
   xmlns:sodipodi="http://sodipodi.sourceforge.net/DTD/sodipodi-0.dtd"
   xmlns="http://www.w3.org/2000/svg"
   xmlns:svg="http://www.w3.org/2000/svg">
  <defs
     id="defs1" />
  <sodipodi:namedview
     id="namedview1"
     pagecolor="#ffffff"
     bordercolor="#000000"
     borderopacity="0.25"
     inkscape:showpageshadow="2"
     inkscape:pageopacity="0.0"
     inkscape:pagecheckerboard="0"
     inkscape:deskcolor="#d1d1d1"
     inkscape:zoom="30.75"
     inkscape:cx="8"
     inkscape:cy="8"
     inkscape:window-width="1366"
     inkscape:window-height="696"
     inkscape:window-x="0"
     inkscape:window-y="0"
     inkscape:window-maximized="1"
     inkscape:current-layer="svg1" />
  <path
     d="M1 2v13h1v-1h1v1h11v-1h1v1h1V2h-1v1h-1V2H3v1H2V2zm3 1h9v5H4zM2 4h1v1H2zm12 0h1v1h-1zM2 6h1v1H2zm12 0h1v1h-1zM2 8h1v1H2zm12 0h1v1h-1zM4 9h9v5H4zm-2 1h1v1H2zm12 0h1v1h-1zM2 12h1v1H2zm12 0h1v1h-1z"
     fill="gray"
     overflow="visible"
     id="path1"
     style="fill:#fcfcfc;fill-opacity:1" />
</svg>
