<?xml version="1.0" encoding="UTF-8" standalone="no"?>
<svg
   viewBox="0 0 16 16"
   version="1.1"
   id="svg2"
   sodipodi:docname="folder-templates-symbolic.svg"
   inkscape:version="1.3.2 (091e20ef0f, 2023-11-25)"
   xmlns:inkscape="http://www.inkscape.org/namespaces/inkscape"
   xmlns:sodipodi="http://sodipodi.sourceforge.net/DTD/sodipodi-0.dtd"
   xmlns="http://www.w3.org/2000/svg"
   xmlns:svg="http://www.w3.org/2000/svg">
  <defs
     id="defs2" />
  <sodipodi:namedview
     id="namedview2"
     pagecolor="#ffffff"
     bordercolor="#000000"
     borderopacity="0.25"
     inkscape:showpageshadow="2"
     inkscape:pageopacity="0.0"
     inkscape:pagecheckerboard="0"
     inkscape:deskcolor="#d1d1d1"
     inkscape:zoom="30.75"
     inkscape:cx="8"
     inkscape:cy="8"
     inkscape:window-width="1366"
     inkscape:window-height="696"
     inkscape:window-x="0"
     inkscape:window-y="0"
     inkscape:window-maximized="1"
     inkscape:current-layer="svg2" />
  <g
     fill="gray"
     font-weight="400"
     id="g2"
     style="fill:#fcfcfc;fill-opacity:1">
    <path
       d="M11 16l-.479-.922a19.554 19.554 0 0 1-1.126-2.666 14.225 14.225 0 0 1-.383-1.271L9 11.084V1s0-1 1-1h2s1 0 1 1v10.084l-.012.057c-.028.122-.136.547-.383 1.271a19.588 19.588 0 0 1-1.126 2.666zm-.209-3.043h.416c.14-.315.294-.65.377-.893.225-.66.417-1.07.416-1.064h-2c-.002-.009.189.403.414 1.064.083.244.238.578.377.893zM10 3h2V1h-2z"
       font-family="Ubuntu"
       font-size="15"
       letter-spacing="0"
       text-anchor="middle"
       word-spacing="0"
       id="path1"
       style="fill:#fcfcfc;fill-opacity:1" />
    <path
       d="M3 0v15h5V0zm1 1h3v1H6v1h1v1H6v1h1v1H6v1h1v1H6v1h1v1H6v1h1v1H6v1h1v1H4z"
       font-family="sans-serif"
       overflow="visible"
       style="font-feature-settings:normal;font-variant-alternates:normal;font-variant-caps:normal;font-variant-ligatures:normal;font-variant-numeric:normal;font-variant-position:normal;isolation:auto;mix-blend-mode:normal;shape-padding:0;text-decoration-color:#000;text-decoration-line:none;text-decoration-style:solid;text-indent:0;text-orientation:mixed;text-transform:none;fill:#fcfcfc;fill-opacity:1"
       white-space="normal"
       id="path2" />
  </g>
</svg>
