<?xml version="1.0" encoding="UTF-8" standalone="no"?>
<svg
   version="1.1"
   viewBox="0 0 16.125 16"
   id="svg3"
   sodipodi:docname="folder-pictures-symbolic.svg"
   inkscape:version="1.3.2 (091e20ef0f, 2023-11-25)"
   xmlns:inkscape="http://www.inkscape.org/namespaces/inkscape"
   xmlns:sodipodi="http://sodipodi.sourceforge.net/DTD/sodipodi-0.dtd"
   xmlns="http://www.w3.org/2000/svg"
   xmlns:svg="http://www.w3.org/2000/svg">
  <defs
     id="defs3" />
  <sodipodi:namedview
     id="namedview3"
     pagecolor="#ffffff"
     bordercolor="#000000"
     borderopacity="0.25"
     inkscape:showpageshadow="2"
     inkscape:pageopacity="0.0"
     inkscape:pagecheckerboard="0"
     inkscape:deskcolor="#d1d1d1"
     inkscape:zoom="30.75"
     inkscape:cx="8.0650407"
     inkscape:cy="8"
     inkscape:window-width="1366"
     inkscape:window-height="696"
     inkscape:window-x="0"
     inkscape:window-y="0"
     inkscape:window-maximized="1"
     inkscape:current-layer="svg3" />
  <g
     transform="translate(-312 -40)"
     fill="#808080"
     id="g3"
     style="fill:#fcfcfc;fill-opacity:1">
    <path
       d="m323.5 43c-0.82843 0-1.5 0.67157-1.5 1.5 0 0.82843 0.67157 1.5 1.5 1.5s1.5-0.67158 1.5-1.5c0-0.82843-0.67157-1.5-1.5-1.5z"
       color="#000000"
       id="path1"
       style="fill:#fcfcfc;fill-opacity:1" />
    <path
       d="m315.99 41c-1.2582 0.0145-2.1789-0.0306-2.9316 0.38477-0.37637 0.20766-0.67323 0.55939-0.83789 0.99805-0.16467 0.43867-0.0652 0.97919-0.22461 1.6172v4 4c0 0.65761 0.0599 1.1785 0.22461 1.6172 0.16467 0.43866 0.46152 0.7904 0.83789 0.99805 0.75275 0.41532 1.6734 0.3702 2.9316 0.38477h4e-3 2.002 4.125 2.002 4e-3c1.2582-0.01457 2.1789 0.03055 2.9316-0.38477 0.37637-0.20765 0.67322-0.55939 0.83789-0.99805 0.16453-0.43866 0.22443-0.95958 0.22443-1.6172v-4-4c0-0.65761-0.0599-1.1785-0.22461-1.6172-0.16466-0.43866-0.46152-0.79039-0.83789-0.99805-0.75275-0.41537-1.6734-0.37027-2.9316-0.38477h-4e-3 -2.002-4.125-2.002zm2.0059 1h4.125c2 0 3.4845-0.01562 4.2266 0.22461 0.98348 0.44721 0.77344 1.7754 0.77344 2.7754-8.5e-4 2.1232-0.0362 4.677-0.125 7h-4.875-4.125-4.875c-0.0888-2.323-0.12415-4.8768-0.125-7 0-1-0.21004-2.3282 0.77344-2.7754 0.74219-0.24023 2.2266-0.22461 4.2266-0.22461z"
       color="#000000"
       id="path2"
       style="fill:#fcfcfc;fill-opacity:1" />
    <path
       d="m318 45.5-3 5.5h2.7182 5.2818l-2.5-4.5-1 1.5z"
       color="#000000"
       id="path3"
       style="fill:#fcfcfc;fill-opacity:1" />
  </g>
</svg>
