<?xml version="1.0" encoding="UTF-8" standalone="no"?>
<svg
   viewBox="0 0 16 16"
   version="1.1"
   id="svg1"
   sodipodi:docname="network-workgroup-symbolic.svg"
   inkscape:version="1.3.2 (091e20ef0f, 2023-11-25)"
   xmlns:inkscape="http://www.inkscape.org/namespaces/inkscape"
   xmlns:sodipodi="http://sodipodi.sourceforge.net/DTD/sodipodi-0.dtd"
   xmlns="http://www.w3.org/2000/svg"
   xmlns:svg="http://www.w3.org/2000/svg">
  <defs
     id="defs1" />
  <sodipodi:namedview
     id="namedview1"
     pagecolor="#ffffff"
     bordercolor="#000000"
     borderopacity="0.25"
     inkscape:showpageshadow="2"
     inkscape:pageopacity="0.0"
     inkscape:pagecheckerboard="0"
     inkscape:deskcolor="#d1d1d1"
     inkscape:zoom="30.75"
     inkscape:cx="8"
     inkscape:cy="8"
     inkscape:window-width="1366"
     inkscape:window-height="696"
     inkscape:window-x="0"
     inkscape:window-y="0"
     inkscape:window-maximized="1"
     inkscape:current-layer="svg1" />
  <path
     d="M8 0C3.586 0 0 3.586 0 8s3.586 8 8 8 8-3.586 8-8-3.586-8-8-8zm-.04 1.002l-.02.617.915.137.618-.598a6.932 6.932 0 0 1 1.732.625l-.215.346.61.54-.61.51.238.61 1.356-.644.848.644.044-.139c.184.232.35.477.504.73l-.855.155-.508-.543-1.558.102-.95 1.492.645 1.592 2.101.644.407 2.475.507 1.287.358-.203A7.002 7.002 0 0 1 8 15c-3.862 0-7-3.138-7-7 0-.812.145-1.589.4-2.314l.034.136 1.084.305 1.423 1.05.034 1.526.916 1.254.54 3.39.983.61-.27-1.254 1.66-2.305.712-1.558-1.66-1.56-1.797-.846-.745.439-.882-1.322-.508.238-.44-.746.78-.406.744.44 1.289-1.593L7.16 2.332l-.508-.95-1.525.544-.19-.211a6.947 6.947 0 0 1 3.024-.713z"
     fill="gray"
     font-family="sans-serif"
     font-weight="400"
     overflow="visible"
     style="font-feature-settings:normal;font-variant-alternates:normal;font-variant-caps:normal;font-variant-ligatures:normal;font-variant-numeric:normal;font-variant-position:normal;isolation:auto;mix-blend-mode:normal;shape-padding:0;text-decoration-color:#000;text-decoration-line:none;text-decoration-style:solid;text-indent:0;text-transform:none;fill:#fcfcfc;fill-opacity:1"
     white-space="normal"
     id="path1" />
</svg>
