<?xml version="1.0" encoding="UTF-8" standalone="no"?>
<svg
   version="1.1"
   viewBox="0 0 16 16"
   id="svg1"
   sodipodi:docname="user-desktop-symbolic.svg"
   inkscape:version="1.3.2 (091e20ef0f, 2023-11-25)"
   xmlns:inkscape="http://www.inkscape.org/namespaces/inkscape"
   xmlns:sodipodi="http://sodipodi.sourceforge.net/DTD/sodipodi-0.dtd"
   xmlns="http://www.w3.org/2000/svg"
   xmlns:svg="http://www.w3.org/2000/svg">
  <defs
     id="defs1" />
  <sodipodi:namedview
     id="namedview1"
     pagecolor="#ffffff"
     bordercolor="#000000"
     borderopacity="0.25"
     inkscape:showpageshadow="2"
     inkscape:pageopacity="0.0"
     inkscape:pagecheckerboard="0"
     inkscape:deskcolor="#d1d1d1"
     inkscape:zoom="30.75"
     inkscape:cx="8"
     inkscape:cy="8"
     inkscape:window-width="1366"
     inkscape:window-height="696"
     inkscape:window-x="0"
     inkscape:window-y="0"
     inkscape:window-maximized="1"
     inkscape:current-layer="svg1" />
  <g
     transform="translate(-352,-60)"
     id="g1"
     style="fill:#fcfcfc;fill-opacity:1">
    <path
       d="m355.99 62c-1.2582 0.0145-2.1788-0.0306-2.9316 0.38477-0.37641 0.20768-0.67518 0.55943-0.83984 0.99805-0.16465 0.43863-0.22266 0.9596-0.22266 1.6172v7c0 0.65759 0.058 1.1786 0.22266 1.6172 0.16466 0.43862 0.46343 0.79037 0.83984 0.99805 0.75281 0.41535 1.6734 0.37023 2.9316 0.38477h4e-3 8.0039 4e-3c1.2582-0.0145 2.1788 0.0306 2.9316-0.38477 0.37641-0.20768 0.67324-0.55943 0.83789-0.99805 0.16415-0.43863 0.22443-0.9596 0.22443-1.6172v-7c0-0.65759-0.06-1.1786-0.22461-1.6172-0.16465-0.43862-0.46148-0.79037-0.83789-0.99805-0.75281-0.41536-1.6734-0.37023-2.9316-0.38477h-4e-3 -8.0059zm0.00586 1h8c1.2596 0.0147 2.0871 0.0578 2.4531 0.25977 0.1834 0.10118 0.28915 0.21465 0.38672 0.47461 0.09746 0.25994 0.16016 0.67322 0.16016 1.2656v7c0 0.59241-0.0626 1.0057-0.16016 1.2656-0.0976 0.25995-0.20334 0.37343-0.38672 0.47461-0.36607 0.20198-1.1936 0.24508-2.4531 0.25977h-6e-3 -7.994z"
       color="#000000"
       color-rendering="auto"
       fill="#808080"
       image-rendering="auto"
       shape-rendering="auto"
       solid-color="#000000"
       style="isolation:auto;mix-blend-mode:normal;text-decoration-color:#000000;text-decoration-line:none;text-decoration-style:solid;text-indent:0;text-transform:none;white-space:normal;fill:#fcfcfc;fill-opacity:1"
       id="path1" />
  </g>
</svg>
