<?xml version="1.0" encoding="UTF-8" standalone="no"?>
<svg
   viewBox="0 0 16 16.001"
   version="1.1"
   id="svg1"
   sodipodi:docname="user-trash-symbolic.svg"
   inkscape:version="1.3.2 (091e20ef0f, 2023-11-25)"
   xmlns:inkscape="http://www.inkscape.org/namespaces/inkscape"
   xmlns:sodipodi="http://sodipodi.sourceforge.net/DTD/sodipodi-0.dtd"
   xmlns="http://www.w3.org/2000/svg"
   xmlns:svg="http://www.w3.org/2000/svg">
  <defs
     id="defs1" />
  <sodipodi:namedview
     id="namedview1"
     pagecolor="#ffffff"
     bordercolor="#000000"
     borderopacity="0.25"
     inkscape:showpageshadow="2"
     inkscape:pageopacity="0.0"
     inkscape:pagecheckerboard="0"
     inkscape:deskcolor="#d1d1d1"
     inkscape:zoom="30.748079"
     inkscape:cx="8.0004997"
     inkscape:cy="8.0004997"
     inkscape:window-width="1366"
     inkscape:window-height="696"
     inkscape:window-x="0"
     inkscape:window-y="0"
     inkscape:window-maximized="1"
     inkscape:current-layer="svg1" />
  <path
     d="M7.5 0C6.4 0 5.355.32 5.355.32L5 .428v1.683A13.88 13.88 0 0 0 2.002 3L2 4H1v1h1l.004 9c0 .439.04.788.15 1.082.111.294.311.528.563.668.503.28 1.12.25 1.953.25h5.664c.833 0 1.45.03 1.953-.25.252-.14.45-.374.56-.668.11-.294.153-.643.153-1.082l-.002-8h-1L12 14c0 .376-.04.603-.088.729-.034.09-.078.129-.11.146-.173.097-.611.125-1.468.125H4.67c-.857 0-1.295-.028-1.469-.125a.267.267 0 0 1-.113-.146v-.002c-.046-.122-.084-.348-.084-.727v-.002L3 5h11V4h-1.002L13 3a13.855 13.855 0 0 0-3-.889V.45L9.67.331S8.757.001 7.5.001zm0 1c.89 0 1.29.155 1.5.22v.739a14.05 14.05 0 0 0-1.498-.084c-.502 0-1.003.032-1.502.086v-.734C6.266 1.157 6.772 1 7.5 1zM5 6v6h1V6zm2 0v6h1V6zm2 0v6h1V6z"
     fill="gray"
     font-family="Ubuntu"
     font-size="15"
     font-weight="400"
     letter-spacing="0"
     text-anchor="middle"
     word-spacing="0"
     id="path1"
     style="fill:#fcfcfc;fill-opacity:1" />
</svg>
