<?xml version="1.0" encoding="UTF-8" standalone="no"?>
<svg
   xmlns:dc="http://purl.org/dc/elements/1.1/"
   xmlns:cc="http://creativecommons.org/ns#"
   xmlns:rdf="http://www.w3.org/1999/02/22-rdf-syntax-ns#"
   xmlns:svg="http://www.w3.org/2000/svg"
   xmlns="http://www.w3.org/2000/svg"
   xmlns:xlink="http://www.w3.org/1999/xlink"
   xmlns:sodipodi="http://sodipodi.sourceforge.net/DTD/sodipodi-0.dtd"
   xmlns:inkscape="http://www.inkscape.org/namespaces/inkscape"
   width="32"
   height="32"
   version="1.1"
   id="svg30"
   sodipodi:docname="plasmavault.svg"
   inkscape:version="0.92.4 (5da689c313, 2019-01-14)">
  <metadata
     id="metadata36">
    <rdf:RDF>
      <cc:Work
         rdf:about="">
        <dc:format>image/svg+xml</dc:format>
        <dc:type
           rdf:resource="http://purl.org/dc/dcmitype/StillImage" />
        <dc:title></dc:title>
      </cc:Work>
    </rdf:RDF>
  </metadata>
  <defs
     id="defs34">
    <linearGradient
       xlink:href="#a"
       id="b"
       x1="505.44"
       y1="484.728"
       x2="505.44"
       y2="464.04501"
       gradientUnits="userSpaceOnUse"
       gradientTransform="translate(40)" />
    <linearGradient
       id="a">
      <stop
         stop-color="#3e3e3e"
         id="stop2" />
      <stop
         offset="1"
         stop-color="#494949"
         id="stop4" />
    </linearGradient>
    <linearGradient
       id="c"
       y1="527.01398"
       x1="406.50101"
       y2="539.82501"
       x2="419.974"
       gradientUnits="userSpaceOnUse"
       gradientTransform="matrix(0.69328,0,0,0.69328,242.993,110.881)">
      <stop
         stop-color="#292c2f"
         id="stop8" />
      <stop
         offset="1"
         stop-opacity="0"
         id="stop10" />
    </linearGradient>
    <linearGradient
       xlink:href="#a"
       id="b-3"
       x1="505.44"
       y1="484.728"
       x2="505.44"
       y2="464.04501"
       gradientUnits="userSpaceOnUse"
       gradientTransform="translate(40)" />
    <linearGradient
       id="c-2"
       y1="527.01398"
       x1="406.50101"
       y2="539.82501"
       x2="419.974"
       gradientUnits="userSpaceOnUse"
       gradientTransform="matrix(0.69328,0,0,0.69328,242.993,110.881)">
      <stop
         stop-color="#292c2f"
         id="stop8-9" />
      <stop
         offset="1"
         stop-opacity="0"
         id="stop10-1" />
    </linearGradient>
  </defs>
  <sodipodi:namedview
     pagecolor="#ffffff"
     bordercolor="#666666"
     borderopacity="1"
     objecttolerance="10"
     gridtolerance="10"
     guidetolerance="10"
     inkscape:pageopacity="0"
     inkscape:pageshadow="2"
     inkscape:window-width="1366"
     inkscape:window-height="707"
     id="namedview32"
     showgrid="false"
     inkscape:zoom="7.796875"
     inkscape:cx="16"
     inkscape:cy="16"
     inkscape:window-x="0"
     inkscape:window-y="0"
     inkscape:window-maximized="1"
     inkscape:current-layer="svg30" />
  <g
     id="plasmavault">
    <rect
       width="32"
       height="32"
       x="0"
       y="0"
       style="opacity:0.00100002"
       id="rect7" />
    <g
       id="g856"
       transform="matrix(0.6254688,0,0,0.6254688,1.115116,0.98853186)">
      <path
         d="m 9.81,4.933 a 5.932,6.11 0 0 0 -5.946,6.125 v 10.465 a 5.935,6.113 0 0 0 5.946,6.126 h 27.978 a 5.935,6.113 0 0 0 5.946,-6.126 V 13.99 A 5.932,6.11 0 0 0 37.788,7.866 H 23.799 L 20.951,4.932 h -8.946 z"
         id="path15"
         inkscape:connector-curvature="0"
         style="fill:#2d2d2d;fill-rule:evenodd" />
      <path
         d="M 41.645,9.333 A 6.557,6.754 0 0 0 40.107,8.345 5.824,5.824 0 0 0 37.787,7.867 H 23.8 l -2.848,-2.934 1.424,4.4 z"
         id="path17"
         inkscape:connector-curvature="0"
         style="fill:#ffffff;fill-opacity:0.23500001;fill-rule:evenodd" />
      <path
         d="m 19.527,12.3 -2.847,1.468 h -0.159 c 0.411,0 0.751,0.189 1.061,0.418 -0.306,-0.227 -0.645,-0.411 -1.05,-0.415 H 7.388 a 3.55,3.55 0 0 0 -3.281,2.172 c -0.144,0.34 -0.192,0.723 -0.223,1.108 h 0.06 c 0.023,-0.025 0.033,-0.06 0.057,-0.084 0.108,-0.111 0.235,-0.199 0.352,-0.299 h 13.75 l 0.796,-2.459 c -0.084,-0.044 -0.146,-0.121 -0.234,-0.158 -0.183,-0.077 -0.39,-0.097 -0.594,-0.127 l 1.332,-1.371 0.123,-0.252 z"
         id="path19-3"
         inkscape:connector-curvature="0"
         style="fill-opacity:0.23500001" />
      <path
         d="m 19.527,12.268 -1.59,1.636 c 0.245,0.048 0.505,0.053 0.729,0.147 0.088,0.037 0.15,0.114 0.234,0.158 z"
         id="path21-6"
         inkscape:connector-curvature="0" />
      <path
         transform="matrix(1.42392,0,0,1.46667,-730.27,-667.97)"
         d="m 526.571,463.798 -2,2 h -6.253 a 3.75,3.75 0 0 0 -1.461,0.293 c -0.449,0.19 -0.851,0.464 -1.19,0.803 -0.338,0.338 -0.614,0.74 -0.803,1.19 a 3.75,3.75 0 0 0 -0.293,1.46 v 11.998 a 3.249,3.249 0 0 0 3.256,3.256 h 23.488 a 3.249,3.249 0 0 0 3.256,-3.256 v -14.488 a 3.249,3.249 0 0 0 -3.255,-3.256 z"
         id="path23-7"
         inkscape:connector-curvature="0"
         style="fill:url(#b-3);fill-rule:evenodd" />
      <path
         d="m 2.758,39.916 c 0.025,0.074 0.017,0.164 0.047,0.238 a 4.625,4.764 0 0 0 4.271,2.913 h 33.446 a 4.642,4.781 0 0 0 3.282,-1.395 c 0.418,-0.431 0.754,-0.948 0.99,-1.518 0.03,-0.074 0.02,-0.163 0.046,-0.238 z"
         id="path25-5"
         inkscape:connector-curvature="0"
         style="fill-opacity:0.23500001" />
      <path
         d="M 20.24,12.267 17.39,15.2 h 2.848 z m 0,2.933 v 2.933 h 2.847 V 15.2 Z m 2.847,0 h 2.848 v -2.933 h -2.848 z m 2.848,0 v 2.933 h 2.848 V 15.2 Z m 2.848,0 h 2.848 v -2.933 h -2.848 z m 2.848,0 v 2.933 h 2.847 V 15.2 Z m 2.847,0 h 2.848 v -2.933 h -2.848 z m 2.848,0 v 2.933 h 2.848 V 15.2 Z m 2.848,0 h 2.848 V 13.12 C 42.788,12.962 42.591,12.755 42.33,12.642 a 4.642,4.781 0 0 0 -1.808,-0.375 h -0.348 z m 2.848,0 v 2.933 h 2.136 v -1.09 A 4.9,4.9 0 0 0 44.796,15.2 Z m 0,2.933 h -2.848 v 2.934 h 2.848 z m -2.848,2.934 H 37.326 V 24 h 2.848 z m 0,2.933 v 2.933 h 2.848 V 24 Z m 0,2.933 h -2.848 v 2.934 h 2.848 z m -2.848,0 V 24 h -2.848 v 2.933 z M 34.478,24 V 21.067 H 31.631 V 24 Z m -2.847,-2.933 v -2.934 h -2.848 v 2.934 z m -2.848,0 H 25.935 V 24 h 2.848 z m -2.848,0 v -2.934 h -2.848 v 2.934 z m 8.543,0 h 2.848 V 18.133 H 34.478 Z M 20.24,18.133 h -2.848 v 2.934 h 2.848 z m -2.848,2.934 H 14.545 V 24 h 2.847 z m 0,2.933 v 2.933 H 20.24 V 24 Z m 0,2.933 h -2.847 v 2.934 h 2.847 z m -2.847,0 V 24 h -2.848 v 2.933 z M 11.696,24 V 21.067 H 8.848 V 24 Z M 8.848,21.067 V 18.133 H 6 v 2.934 z M 6,18.133 v -2.566 c -0.097,0.035 -0.212,0.022 -0.306,0.063 -0.638,0.278 -1.21,0.68 -1.695,1.177 -0.057,0.06 -0.08,0.147 -0.135,0.209 v 1.117 z m 2.848,0 h 2.848 V 15.2 H 8.848 Z m 2.848,0 v 2.934 h 2.848 v -2.934 z m 2.848,0 h 2.847 V 15.2 h -2.847 z"
         id="path27"
         inkscape:connector-curvature="0"
         style="opacity:0.6;fill:#5f5f5f" />
      <path
         transform="matrix(1.42392,0,0,1.46667,-730.27,-667.97)"
         d="m 523.764,480.952 3.645,3.646 h 12.706 l 3.875,-4.91 -12.418,-11.77 1.87,9.098 z"
         id="path29"
         inkscape:connector-curvature="0"
         style="opacity:0.4;fill:url(#c-2);fill-rule:evenodd" />
      <path
         d="m 23.799,17.303 c -3.397,0 -5.696,2.467 -5.696,6.058 l 1.424,0.045 c 0,-2.581 2.125,-4.54 4.272,-4.54 2.149,0 4.272,1.96 4.272,4.54 v 3.527 H 15.256 V 37.2 H 32.343 V 26.933 h -2.847 v -3.527 c 0,-3.407 -2.298,-6.103 -5.696,-6.103 z"
         id="path31"
         inkscape:connector-curvature="0"
         style="fill:#d1d8d8" />
      <path
         d="M 19.527,12.27 H 19.525 L 16.678,15.2 H 7.773 A 5.34,5.5 0 0 0 7.24,15.228 5.34,5.5 0 0 0 6.713,15.308 5.34,5.5 0 0 0 6.195,15.442 5.34,5.5 0 0 0 5.693,15.63 c -0.592,0.258 -1.112,0.644 -1.572,1.092 l 13.983,-0.055 1.423,-4.398 z"
         id="path33"
         inkscape:connector-curvature="0"
         style="fill:#ffffff;fill-opacity:0.23500001" />
    </g>
  </g>
  <g
     id="22-22-plasmavault"
     transform="translate(-12.769536,4.8977962)">
    <rect
       style="opacity:0.00100002"
       width="22"
       height="22"
       x="45"
       y="5"
       id="rect2" />
    <path
       id="path4-2"
       class="ColorScheme-Text"
       d="m 49.832497,7.9999979 c -0.944,0 -1.64,0.725 -1.78,1.629 V 22.318998 c 0.115,0.931 0.837,1.681 1.801,1.681 h 12.21 a 1.88,1.88 0 0 0 1.884,-1.885 v -10.165 a 1.88,1.88 0 0 0 -1.885,-1.885 h -4.832 l -2.097,-2.0650001 -0.01,0.008 v -0.008 z m -0.153,1 h 4.854 l 1.004,1.0040001 -4.02,3.996 h -2.57 V 9.7319979 c 0,-0.405 0.327,-0.732 0.732,-0.732 z m 9.268,5.0000001 a 3,3 0 0 1 3,3 v 1 h 1 v 5 h -8 v -5 h 1 v -1 a 3,3 0 0 1 3,-3 z m 0,1 a 2,2 0 0 0 -2,2 v 1 h 4 v -1 a 2,2 0 0 0 -2,-2 z"
       style="fill:#dfdfdf;fill-opacity:1;stroke:none"
       inkscape:connector-curvature="0" />
  </g>
</svg>
