<?xml version="1.0" encoding="UTF-8" standalone="no"?>
<svg
   xmlns:dc="http://purl.org/dc/elements/1.1/"
   xmlns:cc="http://creativecommons.org/ns#"
   xmlns:rdf="http://www.w3.org/1999/02/22-rdf-syntax-ns#"
   xmlns:svg="http://www.w3.org/2000/svg"
   xmlns="http://www.w3.org/2000/svg"
   xmlns:xlink="http://www.w3.org/1999/xlink"
   xmlns:sodipodi="http://sodipodi.sourceforge.net/DTD/sodipodi-0.dtd"
   xmlns:inkscape="http://www.inkscape.org/namespaces/inkscape"
   width="32"
   height="32"
   version="1.1"
   id="svg49"
   sodipodi:docname="plasmavault-error.svg"
   inkscape:version="0.92.4 (5da689c313, 2019-01-14)">
  <metadata
     id="metadata53">
    <rdf:RDF>
      <cc:Work
         rdf:about="">
        <dc:format>image/svg+xml</dc:format>
        <dc:type
           rdf:resource="http://purl.org/dc/dcmitype/StillImage" />
        <dc:title></dc:title>
      </cc:Work>
    </rdf:RDF>
  </metadata>
  <sodipodi:namedview
     pagecolor="#ffffff"
     bordercolor="#666666"
     borderopacity="1"
     objecttolerance="10"
     gridtolerance="10"
     guidetolerance="10"
     inkscape:pageopacity="0"
     inkscape:pageshadow="2"
     inkscape:window-width="1366"
     inkscape:window-height="707"
     id="namedview51"
     showgrid="false"
     inkscape:zoom="5.2149125"
     inkscape:cx="1.4237288"
     inkscape:cy="16"
     inkscape:window-x="0"
     inkscape:window-y="0"
     inkscape:window-maximized="1"
     inkscape:current-layer="svg49" />
  <defs
     id="defs19">
    <linearGradient
       id="b">
      <stop
         stop-color="#a02c2c"
         id="stop2" />
      <stop
         stop-color="#c83737"
         offset="1"
         id="stop4" />
    </linearGradient>
    <linearGradient
       id="a">
      <stop
         stop-color="#3e3e3e"
         id="stop7" />
      <stop
         offset="1"
         stop-color="#494949"
         id="stop9" />
    </linearGradient>
    <linearGradient
       xlink:href="#b"
       id="d"
       x1="505.44"
       y1="484.728"
       x2="505.44"
       y2="464.045"
       gradientUnits="userSpaceOnUse"
       gradientTransform="matrix(0.89062,0,0,0.91736,-420.021,-416.806)" />
    <linearGradient
       id="c"
       y1="527.014"
       x1="406.501"
       y2="539.825"
       x2="419.974"
       gradientUnits="userSpaceOnUse"
       gradientTransform="matrix(.61745 0 0 .63598 -239.232 -315.088)">
      <stop
         stop-color="#292c2f"
         id="stop13" />
      <stop
         offset="1"
         stop-opacity="0"
         id="stop15" />
    </linearGradient>
    <linearGradient
       xlink:href="#c"
       id="e"
       x1="12.69"
       y1="19.9"
       x2="21.154"
       y2="28.172"
       gradientUnits="userSpaceOnUse" />
  </defs>
  <g
     id="22-22-plasmavault-error">
    <path
       id="path21"
       d="M32.23 9.898h22v22h-22z"
       opacity=".001" />
    <path
       id="path23"
       fill="#dfdfdf"
       d="M37.063 12.898c-.945 0-1.64.725-1.78 1.63v12.689c.115.93.837 1.681 1.801 1.681h12.21a1.88 1.88 0 001.884-1.884V16.848a1.88 1.88 0 00-1.885-1.885h-4.832l-2.098-2.065-.01.008v-.008h-5.29zm-.153 1h4.854l1.004 1.004-4.02 3.996h-2.57v-4.27a.73.73 0 01.732-.73zm8.436 4.803h1.525v6.104h-1.525V18.7zm0 7.63h1.525v1.524h-1.525V26.33z" />
  </g>
  <g
     id="plasmavault-error">
    <path
       d="M 0,0 H 32 V 32 H 0 Z"
       id="path25"
       inkscape:connector-curvature="0"
       style="opacity:0.00100002" />
    <g
       id="g881">
      <path
         style="fill:#782121;fill-rule:evenodd"
         inkscape:connector-curvature="0"
         id="path27"
         d="m 7.251,4.074 a 3.71,3.822 0 0 0 -3.72,3.831 v 6.545 a 3.712,3.823 0 0 0 3.72,3.832 h 17.5 A 3.712,3.823 0 0 0 28.469,14.45 V 9.74 A 3.71,3.822 0 0 0 24.75,5.91 H 16 L 14.22,4.074 H 8.623 Z" />
      <path
         style="fill:#ffffff;fill-opacity:0.23500001;fill-rule:evenodd"
         inkscape:connector-curvature="0"
         id="path29"
         d="M 27.163,6.826 A 4.101,4.224 0 0 0 26.201,6.208 3.643,3.643 0 0 0 24.75,5.909 H 16 l -1.78,-1.835 0.89,2.752 z" />
      <path
         style="fill-opacity:0.23500001"
         inkscape:connector-curvature="0"
         id="path31"
         d="M 13.329,8.682 11.548,9.6 h -0.1 c 0.258,0 0.47,0.118 0.664,0.261 C 11.921,9.719 11.709,9.604 11.455,9.601 H 5.736 a 2.22,2.22 0 0 0 -2.052,1.36 c -0.09,0.212 -0.12,0.452 -0.14,0.692 h 0.038 c 0.014,-0.015 0.02,-0.037 0.036,-0.052 0.067,-0.07 0.147,-0.125 0.22,-0.187 h 8.6 L 12.936,9.876 C 12.883,9.848 12.845,9.8 12.789,9.777 12.675,9.729 12.546,9.717 12.418,9.697 L 13.251,8.84 13.328,8.682 Z" />
      <path
         inkscape:connector-curvature="0"
         id="path33"
         d="m 13.329,8.662 -0.995,1.023 c 0.153,0.03 0.316,0.033 0.456,0.092 0.055,0.023 0.094,0.071 0.146,0.099 z" />
      <path
         inkscape:connector-curvature="0"
         style="fill:url(#d);fill-rule:evenodd"
         id="path35"
         d="m 13.327,8.662 -1.78,1.835 h -5.57 a 3.34,3.44 0 0 0 -1.301,0.269 c -0.4,0.174 -0.758,0.425 -1.06,0.736 -0.3,0.31 -0.547,0.68 -0.715,1.092 A 3.34,3.44 0 0 0 2.64,13.934 V 24.94 a 2.894,2.98 0 0 0 2.9,2.987 h 20.919 a 2.894,2.98 0 0 0 2.9,-2.987 V 11.65 a 2.894,2.98 0 0 0 -2.9,-2.988 z" />
      <path
         style="fill-opacity:0.23500001"
         inkscape:connector-curvature="0"
         id="path37"
         d="m 2.84,25.955 c 0.016,0.046 0.01,0.102 0.03,0.149 a 2.893,2.98 0 0 0 2.67,1.822 h 20.92 a 2.903,2.99 0 0 0 2.053,-0.873 c 0.262,-0.27 0.472,-0.593 0.62,-0.95 0.018,-0.046 0.012,-0.101 0.028,-0.148 z" />
      <path
         style="opacity:0.6;fill:#de8787"
         inkscape:connector-curvature="0"
         id="path39"
         d="m 13.775,8.661 -1.783,1.835 h 1.781 z m 0,1.835 v 1.834 h 1.78 v -1.834 z m 1.78,0 h 1.782 V 8.66 h -1.782 z m 1.782,0 v 1.834 h 1.781 v -1.834 z m 1.781,0 h 1.781 V 8.66 h -1.781 z m 1.781,0 v 1.834 h 1.781 v -1.834 z m 1.781,0 h 1.781 V 8.66 H 22.68 Z m 1.781,0 v 1.834 h 1.782 v -1.834 z m 1.782,0 h 1.781 V 9.195 c -0.146,-0.1 -0.27,-0.229 -0.433,-0.3 a 2.903,2.99 0 0 0 -1.13,-0.234 h -0.218 z m 1.781,0 v 1.834 h 1.336 v -0.682 a 3.065,3.065 0 0 0 -0.226,-1.152 z m 0,1.834 h -1.781 v 1.835 h 1.781 z m -1.781,1.835 H 24.46 V 16 h 1.782 z m 0,1.835 v 1.834 h 1.781 V 16 Z m 0,1.834 H 24.46 v 1.835 h 1.782 z m -1.782,0 V 16 H 22.68 v 1.834 z M 22.68,16 V 14.165 H 20.9 V 16 Z M 20.9,14.165 V 12.33 h -1.782 v 1.835 z m -1.782,0 H 17.337 V 16 h 1.781 z m -1.781,0 V 12.33 h -1.782 v 1.835 z m 5.343,0 h 1.781 V 12.33 H 22.68 Z M 13.775,12.33 h -1.782 v 1.835 h 1.782 z m -1.782,1.835 h -1.78 V 16 h 1.78 z m 0,1.835 v 1.834 h 1.782 V 16 Z m 0,1.834 h -1.78 v 1.835 h 1.78 z m -1.78,0 V 16 H 8.43 v 1.834 z M 8.43,16 V 14.165 H 6.649 V 16 Z M 6.648,14.165 V 12.33 h -1.78 v 1.835 z M 4.868,12.33 v -1.605 c -0.06,0.022 -0.133,0.014 -0.191,0.04 a 3.355,3.355 0 0 0 -1.06,0.736 c -0.036,0.037 -0.05,0.092 -0.085,0.13 v 0.7 z m 1.781,0 H 8.431 V 10.496 H 6.649 Z m 1.782,0 v 1.835 h 1.78 V 12.33 Z m 1.78,0 h 1.782 v -1.834 h -1.781 z" />
      <path
         style="fill:#ffffff;fill-opacity:0.23500001"
         inkscape:connector-curvature="0"
         id="path41"
         d="m 13.329,8.663 h -0.002 l -1.78,1.833 h -5.57 a 3.34,3.44 0 0 0 -0.334,0.017 3.34,3.44 0 0 0 -0.33,0.05 3.34,3.44 0 0 0 -0.323,0.084 3.34,3.44 0 0 0 -0.314,0.118 c -0.37,0.161 -0.696,0.402 -0.983,0.683 l 8.746,-0.035 z" />
      <path
         inkscape:connector-curvature="0"
         style="opacity:0.4;fill:url(#e)"
         id="path43"
         d="m 18.926,27.926 h 7.533 a 2.894,2.98 0 0 0 0.289,-0.014 2.894,2.98 0 0 0 0.285,-0.043 2.894,2.98 0 0 0 0.281,-0.074 2.894,2.98 0 0 0 0.272,-0.102 2.894,2.98 0 0 0 0.262,-0.129 2.894,2.98 0 0 0 0.246,-0.154 2.894,2.98 0 0 0 0.23,-0.18 2.894,2.98 0 0 0 0.213,-0.203 2.894,2.98 0 0 0 0.192,-0.222 2.894,2.98 0 0 0 0.167,-0.243 2.894,2.98 0 0 0 0.145,-0.257 2.894,2.98 0 0 0 0.12,-0.274 2.894,2.98 0 0 0 0.091,-0.281 2.894,2.98 0 0 0 0.062,-0.291 2.894,2.98 0 0 0 0.038,-0.295 2.894,2.98 0 0 0 0.007,-0.225 v -0.58 L 17,12 l -2,8 2,2 -2,2 z" />
      <path
         style="fill:#d1d8d8"
         inkscape:connector-curvature="0"
         id="path45"
         d="m 15,12 v 8 h 2 v -8 z m 0,10 v 2 h 2 v -2 z" />
    </g>
  </g>
</svg>
