<?xml version="1.0" encoding="UTF-8" standalone="no"?>
<svg
   width="128"
   height="128"
   viewBox="0 0 33.866666 33.866668"
   version="1.1"
   id="svg1829"
   inkscape:version="1.2.2 (b0a8486541, 2022-12-01)"
   sodipodi:docname="vroid-studio.svg"
   xmlns:inkscape="http://www.inkscape.org/namespaces/inkscape"
   xmlns:sodipodi="http://sodipodi.sourceforge.net/DTD/sodipodi-0.dtd"
   xmlns:xlink="http://www.w3.org/1999/xlink"
   xmlns="http://www.w3.org/2000/svg"
   xmlns:svg="http://www.w3.org/2000/svg"
   xmlns:rdf="http://www.w3.org/1999/02/22-rdf-syntax-ns#"
   xmlns:cc="http://creativecommons.org/ns#"
   xmlns:dc="http://purl.org/dc/elements/1.1/">
  <defs
     id="defs1823">
    <linearGradient
       inkscape:collect="always"
       id="linearGradient934">
      <stop
         style="stop-color:#ffe447;stop-opacity:1"
         offset="0"
         id="stop930" />
      <stop
         style="stop-color:#ffb702;stop-opacity:1"
         offset="1"
         id="stop932" />
    </linearGradient>
    <radialGradient
       inkscape:collect="always"
       xlink:href="#linearGradient934"
       id="radialGradient908"
       cx="16.936953"
       cy="3.2428353"
       fx="16.936953"
       fy="3.2428353"
       r="14.54372"
       gradientUnits="userSpaceOnUse"
       gradientTransform="matrix(4.4791718,0,0,2.0391647,-58.926568,-3.3698399)" />
  </defs>
  <sodipodi:namedview
     id="base"
     pagecolor="#ffffff"
     bordercolor="#666666"
     borderopacity="1.0"
     inkscape:pageopacity="0.0"
     inkscape:pageshadow="2"
     inkscape:zoom="0.70000001"
     inkscape:cx="-117.85714"
     inkscape:cy="77.857142"
     inkscape:document-units="mm"
     inkscape:current-layer="layer1"
     inkscape:document-rotation="0"
     showgrid="false"
     units="px"
     inkscape:window-width="1920"
     inkscape:window-height="1016"
     inkscape:window-x="0"
     inkscape:window-y="0"
     inkscape:window-maximized="1"
     inkscape:showpageshadow="2"
     inkscape:pagecheckerboard="0"
     inkscape:deskcolor="#d1d1d1" />
  <metadata
     id="metadata1826">
    <rdf:RDF>
      <cc:Work
         rdf:about="">
        <dc:format>image/svg+xml</dc:format>
        <dc:type
           rdf:resource="http://purl.org/dc/dcmitype/StillImage" />
      </cc:Work>
    </rdf:RDF>
  </metadata>
  <g
     inkscape:label="Capa 1"
     inkscape:groupmode="layer"
     id="layer1">
    <g
       id="g1702"
       transform="matrix(0.97573206,0,0,0.97573206,-65.58674,-37.192363)"
       style="opacity:0.296765">
      <rect
         style="fill:none;fill-opacity:1;stroke:#000000;stroke-width:0.1;stroke-linecap:round;stroke-linejoin:round;stroke-miterlimit:4;stroke-dasharray:none;stroke-opacity:0.02"
         id="rect1634"
         width="29.810888"
         height="29.810888"
         x="69.839508"
         y="40.709618"
         rx="6.6098609"
         ry="6.6098609" />
      <rect
         ry="6.6098609"
         rx="6.6098609"
         y="40.709618"
         x="69.839508"
         height="29.810888"
         width="29.810888"
         id="rect1638"
         style="fill:none;fill-opacity:1;stroke:#000000;stroke-width:0.2;stroke-linecap:round;stroke-linejoin:round;stroke-miterlimit:4;stroke-dasharray:none;stroke-opacity:0.02" />
      <rect
         style="fill:none;fill-opacity:1;stroke:#000000;stroke-width:0.3;stroke-linecap:round;stroke-linejoin:round;stroke-miterlimit:4;stroke-dasharray:none;stroke-opacity:0.02"
         id="rect1640"
         width="29.810888"
         height="29.810888"
         x="69.839508"
         y="40.709618"
         rx="6.6098609"
         ry="6.6098609" />
      <rect
         ry="6.6098609"
         rx="6.6098609"
         y="40.709618"
         x="69.839508"
         height="29.810888"
         width="29.810888"
         id="rect1642"
         style="fill:none;fill-opacity:1;stroke:#000000;stroke-width:0.4;stroke-linecap:round;stroke-linejoin:round;stroke-miterlimit:4;stroke-dasharray:none;stroke-opacity:0.02" />
      <rect
         style="fill:none;fill-opacity:1;stroke:#000000;stroke-width:0.5;stroke-linecap:round;stroke-linejoin:round;stroke-miterlimit:4;stroke-dasharray:none;stroke-opacity:0.02"
         id="rect1644"
         width="29.810888"
         height="29.810888"
         x="69.839508"
         y="40.709618"
         rx="6.6098609"
         ry="6.6098609" />
      <rect
         ry="6.6098609"
         rx="6.6098609"
         y="40.709618"
         x="69.839508"
         height="29.810888"
         width="29.810888"
         id="rect1646"
         style="fill:none;fill-opacity:1;stroke:#000000;stroke-width:0.6;stroke-linecap:round;stroke-linejoin:round;stroke-miterlimit:4;stroke-dasharray:none;stroke-opacity:0.02" />
      <rect
         style="fill:none;fill-opacity:1;stroke:#000000;stroke-width:0.7;stroke-linecap:round;stroke-linejoin:round;stroke-miterlimit:4;stroke-dasharray:none;stroke-opacity:0.02"
         id="rect1648"
         width="29.810888"
         height="29.810888"
         x="69.839508"
         y="40.709618"
         rx="6.6098609"
         ry="6.6098609" />
      <rect
         ry="6.6098609"
         rx="6.6098609"
         y="40.709618"
         x="69.839508"
         height="29.810888"
         width="29.810888"
         id="rect1650"
         style="fill:none;fill-opacity:1;stroke:#000000;stroke-width:0.8;stroke-linecap:round;stroke-linejoin:round;stroke-miterlimit:4;stroke-dasharray:none;stroke-opacity:0.02" />
      <rect
         style="fill:none;fill-opacity:1;stroke:#000000;stroke-width:1;stroke-linecap:round;stroke-linejoin:round;stroke-miterlimit:4;stroke-dasharray:none;stroke-opacity:0.02"
         id="rect1652"
         width="29.810888"
         height="29.810888"
         x="69.839508"
         y="40.709618"
         rx="6.6098609"
         ry="6.6098609" />
      <rect
         ry="6.6098609"
         rx="6.6098609"
         y="40.709618"
         x="69.839508"
         height="29.810888"
         width="29.810888"
         id="rect1654"
         style="fill:none;fill-opacity:1;stroke:#000000;stroke-width:1.2;stroke-linecap:round;stroke-linejoin:round;stroke-miterlimit:4;stroke-dasharray:none;stroke-opacity:0.02" />
      <rect
         style="fill:none;fill-opacity:1;stroke:#000000;stroke-width:1.4;stroke-linecap:round;stroke-linejoin:round;stroke-miterlimit:4;stroke-dasharray:none;stroke-opacity:0.02"
         id="rect1656"
         width="29.810888"
         height="29.810888"
         x="69.839508"
         y="40.709618"
         rx="6.6098609"
         ry="6.6098609" />
      <rect
         ry="6.6098609"
         rx="6.6098609"
         y="40.709618"
         x="69.839508"
         height="29.810888"
         width="29.810888"
         id="rect1658"
         style="fill:none;fill-opacity:1;stroke:#000000;stroke-width:1.6;stroke-linecap:round;stroke-linejoin:round;stroke-miterlimit:4;stroke-dasharray:none;stroke-opacity:0.02" />
      <rect
         style="fill:none;fill-opacity:1;stroke:#000000;stroke-width:1.8;stroke-linecap:round;stroke-linejoin:round;stroke-miterlimit:4;stroke-dasharray:none;stroke-opacity:0.02"
         id="rect1660"
         width="29.810888"
         height="29.810888"
         x="69.839508"
         y="40.709618"
         rx="6.6098609"
         ry="6.6098609" />
      <rect
         ry="6.6098609"
         rx="6.6098609"
         y="40.709618"
         x="69.839508"
         height="29.810888"
         width="29.810888"
         id="rect1662"
         style="fill:none;fill-opacity:1;stroke:#000000;stroke-width:2;stroke-linecap:round;stroke-linejoin:round;stroke-miterlimit:4;stroke-dasharray:none;stroke-opacity:0.02" />
      <rect
         style="fill:none;fill-opacity:1;stroke:#000000;stroke-width:2.2;stroke-linecap:round;stroke-linejoin:round;stroke-miterlimit:4;stroke-dasharray:none;stroke-opacity:0.02"
         id="rect1664"
         width="29.810888"
         height="29.810888"
         x="69.839508"
         y="40.709618"
         rx="6.6098609"
         ry="6.6098609" />
      <rect
         ry="6.6098609"
         rx="6.6098609"
         y="40.709618"
         x="69.839508"
         height="29.810888"
         width="29.810888"
         id="rect1666"
         style="fill:none;fill-opacity:1;stroke:#000000;stroke-width:2.6;stroke-linecap:round;stroke-linejoin:round;stroke-miterlimit:4;stroke-dasharray:none;stroke-opacity:0.02" />
      <rect
         style="fill:none;fill-opacity:1;stroke:#000000;stroke-width:3;stroke-linecap:round;stroke-linejoin:round;stroke-miterlimit:4;stroke-dasharray:none;stroke-opacity:0.02"
         id="rect1668"
         width="29.810888"
         height="29.810888"
         x="69.839508"
         y="40.709618"
         rx="6.6098609"
         ry="6.6098609" />
      <rect
         ry="6.6098609"
         rx="6.6098609"
         y="40.709618"
         x="69.839508"
         height="29.810888"
         width="29.810888"
         id="rect1670"
         style="fill:none;fill-opacity:1;stroke:#000000;stroke-width:3.4;stroke-linecap:round;stroke-linejoin:round;stroke-miterlimit:4;stroke-dasharray:none;stroke-opacity:0.02" />
      <rect
         style="fill:none;fill-opacity:1;stroke:#000000;stroke-width:3.8;stroke-linecap:round;stroke-linejoin:round;stroke-miterlimit:4;stroke-dasharray:none;stroke-opacity:0.02"
         id="rect1672"
         width="29.810888"
         height="29.810888"
         x="69.839508"
         y="40.709618"
         rx="6.6098609"
         ry="6.6098609" />
      <rect
         ry="6.6098609"
         rx="6.6098609"
         y="40.709618"
         x="69.839508"
         height="29.810888"
         width="29.810888"
         id="rect1674"
         style="fill:none;fill-opacity:1;stroke:#000000;stroke-width:4.2;stroke-linecap:round;stroke-linejoin:round;stroke-miterlimit:4;stroke-dasharray:none;stroke-opacity:0.02" />
      <rect
         style="fill:none;fill-opacity:1;stroke:#000000;stroke-width:4.6;stroke-linecap:round;stroke-linejoin:round;stroke-miterlimit:4;stroke-dasharray:none;stroke-opacity:0.02"
         id="rect1676"
         width="29.810888"
         height="29.810888"
         x="69.839508"
         y="40.709618"
         rx="6.6098609"
         ry="6.6098609" />
      <rect
         ry="6.6098609"
         rx="6.6098609"
         y="40.709618"
         x="69.839508"
         height="29.810888"
         width="29.810888"
         id="rect1678"
         style="fill:none;fill-opacity:1;stroke:#000000;stroke-width:5;stroke-linecap:round;stroke-linejoin:round;stroke-miterlimit:4;stroke-dasharray:none;stroke-opacity:0.02" />
    </g>
    <rect
       style="fill:url(#radialGradient908);fill-opacity:1;stroke-width:2.68769;stroke-linecap:round;stroke-linejoin:round"
       id="rect849-5"
       width="29.08744"
       height="29.08744"
       x="2.5579116"
       y="2.5293181"
       rx="6.4494534"
       ry="6.4494534" />
    <path
       id="path2"
       style="opacity:0.2;stroke-width:0.602615"
       d="M 4.2457357 17.683158 C 4.1651749 17.89694 4.1774739 18.183523 4.2855265 18.371488 C 5.2976799 20.128714 9.1922315 26.915877 10.204028 28.673702 C 10.32937 28.891847 10.638487 29.067643 10.893392 29.066443 C 12.988086 29.058613 21.191224 29.019032 23.285917 29.010632 C 23.540824 29.010027 23.851046 28.833725 23.979415 28.617375 C 25.010493 26.878224 28.977945 20.196506 30.009021 18.456755 C 30.120617 18.267895 30.135336 17.976463 30.053463 17.760673 C 30.040919 17.793777 30.02611 17.825286 30.009021 17.854207 C 28.977945 19.593959 25.010493 26.275679 23.979415 28.014827 C 23.851046 28.231178 23.540824 28.407482 23.285917 28.408085 C 21.191224 28.416485 12.988086 28.456056 10.893392 28.463896 C 10.638487 28.465096 10.32937 28.289301 10.204028 28.071155 C 9.1922375 26.313325 5.29768 19.526169 4.2855265 17.768941 C 4.2702247 17.742323 4.2572456 17.713254 4.2457357 17.683158 z " />
    <path
       style="fill:#ffffff;stroke-width:0.602615;fill-opacity:0.50435418"
       d="m 4.2909792,16.983524 c 1.051505,-1.767473 5.157011,-8.6585124 6.2079738,-10.4258661 0.128369,-0.2160315 0.438705,-0.3910407 0.694214,-0.3904953 2.059143,0.00433 10.003436,0.024054 12.062575,0.02783 0.254908,4.826e-4 0.564651,0.176514 0.691201,0.3938113 1.030474,1.775065 5.034258,8.7055771 6.064733,10.4802831 0.12595,0.217533 0.125334,0.568868 -0.0025,0.785209 -1.031077,1.739753 -4.998702,8.421565 -6.029781,10.160715 -0.128369,0.216351 -0.438703,0.392304 -0.69361,0.392907 -2.094695,0.0084 -10.297511,0.04822 -12.392207,0.05606 -0.254905,0.0012 -0.56405,-0.174761 -0.689392,-0.392907 -1.0117918,-1.757832 -4.9062631,-8.5451 -5.9184176,-10.30233 -0.1254055,-0.218149 -0.1234169,-0.569473 0.00512,-0.785209 z"
       id="path4" />
    <path
       style="fill:#feb924;stroke-width:0.602615"
       d="m 15.651324,24.160686 6.731829,-10.452384 c 0.136788,-0.21332 0.406164,-0.35494 0.67071,-0.296486 l 2.773243,0.61045 c 0.04942,0.0065 0.07593,0.05664 0.05001,0.09582 l -5.888165,9.758169 c -0.133781,0.222362 -0.399534,0.351325 -0.677944,0.352529 l -3.606055,0.01685 c -0.04761,0 -0.07772,-0.047 -0.05363,-0.08497 z"
       id="path6" />
    <path
       style="fill:#feb924;stroke-width:0.602615"
       d="m 9.0394172,14.448318 1.6306788,-2.455662 c 0.219949,-0.332044 0.30854,-0.401946 0.42364,-0.401946 h 2.81904 c 0.252496,-0.0036 0.422434,0.196443 0.57128,0.401946 l 2.966681,4.08634 -1.933194,2.631628 c -0.115083,0.156084 -0.351326,0.146427 -0.453166,-0.01867 l -2.491218,-4.039347 c -0.0076,-0.01273 -0.02163,-0.02119 -0.03735,-0.02119 l -3.4837258,-0.06086 c -0.06206,-0.047 -0.03435,-0.05301 -0.01273,-0.122328 z"
       id="path8" />
    <path
       style="opacity:0.2;stroke-width:0.602615"
       d="m 11.093736,11.59071 c -0.115083,0 -0.203686,0.0699 -0.42364,0.401341 l -1.6300768,2.456267 c -0.02232,0.06931 -0.05062,0.07532 0.01203,0.122327 l 0.303115,0.0048 1.3149088,-1.980803 c 0.219949,-0.331437 0.308541,-0.401342 0.42364,-0.401342 h 2.819039 c 0.2531,-0.0036 0.423037,0.195853 0.571882,0.401342 l 2.746125,3.782625 0.21995,-0.298897 -2.966081,-4.086343 c -0.1488,-0.205452 -0.318741,-0.404926 -0.571839,-0.40131 z"
       id="path10" />
    <path
       style="opacity:0.2;stroke-width:0.602615"
       d="m 22.789317,14.306099 c -0.263345,-0.0025 -0.508608,0.124132 -0.648415,0.333248 l -6.321446,9.490004 c -0.03615,0.05062 -0.0904,0.08677 -0.153055,0.102445 0.01091,0.0076 0.02351,0.01385 0.03917,0.01385 l 0.438706,-0.0025 5.996638,-9.001282 c 0.139794,-0.209107 0.38507,-0.335657 0.648413,-0.333247 l 2.599085,0.01866 c 0,0 0.498966,-0.811122 0.498966,-0.837033 0.0025,0.06148 -0.03193,-0.0904 -0.03193,-0.0904 -6.01e-4,0 -0.0012,0 -0.0025,0 z"
       id="path12" />
    <path
       style="fill:#feffff;stroke-width:0.602615"
       d="m 9.2497292,14.271146 3.2619648,-0.02232 a 0.73922963,0.69252685 0 0 1 0.641182,0.338067 l 2.316459,3.648844 a 0.25994466,0.24352334 0 0 0 0.442922,0.0059 l 4.261705,-6.321447 a 0.75507844,0.70741148 0 0 1 0.650825,-0.32963 l 2.959449,0.04399 a 0.79816552,0.74772652 0 0 1 0.65625,0.339275 l 1.410124,2.024187 a 0.22739129,0.21301889 0 0 1 -0.19223,0.329027 l -2.869661,-0.02163 a 0.75712735,0.70927959 0 0 0 -0.648417,0.333853 l -6.32024,9.490003 a 0.26421118,0.2475187 0 0 1 -0.448347,-6.03e-4 l -6.3214458,-9.51712 a 0.23762373,0.22260651 0 0 1 0.199472,-0.34048 z"
       id="path14" />
    <path
       style="opacity:0.2;fill:#ffffff;stroke-width:0.602615"
       d="m 25.597511,14.575469 -5.609759,9.300783 c -0.133781,0.221769 -0.400739,0.351324 -0.678546,0.353133 l -3.648841,0.01503 -0.0091,0.518855 c -0.02471,0.03797 0.0059,0.08497 0.05363,0.08497 l 3.60425,-0.01617 c 0.277807,-0.0019 0.544765,-0.131375 0.678545,-0.353134 l 5.885119,-9.758765 c 0.0253,-0.03917 0.0084,-0.583334 0.01026,-0.718922 -0.08497,0.195851 -0.148249,0.401944 -0.285638,0.574295 z"
       id="path16" />
    <path
       style="opacity:0.2;fill:#ffffff;stroke-width:0.602615"
       d="M 11.192566,6.1671626 C 10.937658,6.1666172 10.626708,6.3418543 10.498352,6.5578971 9.4473872,8.3252507 5.342364,15.216652 4.2908585,16.983524 c -0.1134134,0.191022 -0.1218491,0.481491 -0.037663,0.697829 0.012474,-0.03193 0.020908,-0.0669 0.037663,-0.09521 1.0515055,-1.767476 5.157736,-8.6582726 6.2086988,-10.4256263 0.128369,-0.2160301 0.437498,-0.3912785 0.693009,-0.3907373 2.05914,0.00433 10.004037,0.02446 12.063176,0.028263 0.254908,4.839e-4 0.56405,0.1757868 0.690597,0.3930882 1.030476,1.7750651 5.034862,8.7064814 6.065337,10.4811844 0.01503,0.02651 0.02232,0.05965 0.03376,0.08919 0.08377,-0.215142 0.07652,-0.501979 -0.03376,-0.691803 C 28.981201,15.294401 24.977417,8.3635881 23.946339,6.5885201 23.82039,6.3711446 23.51065,6.1959145 23.255742,6.1954348 21.196603,6.1915164 13.251706,6.1715207 11.192566,6.1671712 Z"
       id="path18" />
  </g>
</svg>
