<?xml version="1.0" encoding="UTF-8" standalone="no"?>
<!-- Created with Inkscape (http://www.inkscape.org/) -->

<svg
   xmlns:dc="http://purl.org/dc/elements/1.1/"
   xmlns:cc="http://creativecommons.org/ns#"
   xmlns:rdf="http://www.w3.org/1999/02/22-rdf-syntax-ns#"
   xmlns:svg="http://www.w3.org/2000/svg"
   xmlns="http://www.w3.org/2000/svg"
   xmlns:sodipodi="http://sodipodi.sourceforge.net/DTD/sodipodi-0.dtd"
   xmlns:inkscape="http://www.inkscape.org/namespaces/inkscape"
   width="120"
   height="56.000004"
   viewBox="0 0 120 56.000004"
   id="svg2"
   version="1.1"
   inkscape:version="0.92.4 (5da689c313, 2019-01-14)"
   sodipodi:docname="panel-background.svg">
  <defs
     id="defs39" />
  <sodipodi:namedview
     id="base"
     pagecolor="#ffffff"
     bordercolor="#000000"
     borderopacity="1"
     inkscape:pageopacity="1"
     inkscape:pageshadow="2"
     inkscape:zoom="6.2654867"
     inkscape:cx="56.5"
     inkscape:cy="30.99999"
     inkscape:document-units="px"
     inkscape:current-layer="layer1"
     showgrid="true"
     inkscape:showpageshadow="false"
     borderlayer="true"
     units="px"
     inkscape:window-width="1366"
     inkscape:window-height="709"
     inkscape:window-x="0"
     inkscape:window-y="0"
     inkscape:window-maximized="1"
     showguides="true"
     fit-margin-top="0"
     fit-margin-left="0"
     fit-margin-right="0"
     fit-margin-bottom="0" />
  <metadata
     id="metadata7">
    <rdf:RDF>
      <cc:Work
         rdf:about="">
        <dc:format>image/svg+xml</dc:format>
        <dc:type
           rdf:resource="http://purl.org/dc/dcmitype/StillImage" />
        <dc:title></dc:title>
      </cc:Work>
    </rdf:RDF>
  </metadata>
  <g
     inkscape:label="Layer 1"
     inkscape:groupmode="layer"
     id="layer1"
     transform="translate(0,-904.36218)">
    <rect
       style="opacity:1;fill:#008080;fill-opacity:1;stroke:none"
       id="hint-tile-center"
       width="5"
       height="5"
       x="0"
       y="904.36218" />
    <rect
       y="-51"
       x="-916.36218"
       height="32"
       width="6"
       id="top"
       style="opacity:1;fill:#000000;fill-opacity:0.58823529;stroke:none"
       transform="matrix(0,-1,-1,0,0,0)" />
    <path
       style="opacity:1;fill:#000000;fill-opacity:0.58823529"
       d="m 14,910.36218 c -0.553986,0 -1,0.44601 -1,1 v 4 1 h 4 1 1 v -1 -4 -1 h -1 -1 z"
       id="topleft" />
    <path
       style="opacity:1;fill:#000000;fill-opacity:0.58823529"
       d="m 51,910.36218 v 1 4 1 h 1 1 3 1 v -1 -4 c 0,-0.55399 -0.446014,-1 -1,-1 h -3 -1 z"
       id="topright" />
    <rect
       transform="rotate(90)"
       style="opacity:1;fill:#000000;fill-opacity:0.58823529;stroke:none"
       id="bottom"
       width="6"
       height="32"
       x="948.36218"
       y="-50.999985" />
    <path
       inkscape:connector-curvature="0"
       style="opacity:1;fill:#000000;fill-opacity:0.58823529"
       d="m 19,954.36216 v -1 -4 -1 h -1 -1 -3 -1 v 1 4 c 0,0.55399 0.446014,1 1,1 h 3 1 z"
       id="bottomleft" />
    <path
       id="bottomright"
       d="m 51,954.36218 v -1 -4 -1 h 1 1 3 1 v 1 4 c 0,0.55399 -0.446014,1 -1,1 h -3 -1 z"
       style="opacity:1;fill:#000000;fill-opacity:0.58823529" />
    <rect
       transform="scale(-1,1)"
       style="opacity:1;fill:#000000;fill-opacity:0.58823529;stroke:none"
       id="left"
       width="5.9999995"
       height="32"
       x="-19.000004"
       y="916.36218" />
    <rect
       y="916.36218"
       x="50.999985"
       height="32"
       width="5.9999995"
       id="right"
       style="opacity:1;fill:#000000;fill-opacity:0.58823529" />
    <rect
       inkscape:label="#rect4401"
       y="916.36218"
       x="19.000004"
       height="32"
       width="32"
       id="center"
       style="opacity:1;fill:#000000;fill-opacity:0.58823529;stroke:none" />
    <rect
       style="fill:#008080;fill-opacity:1;stroke:none"
       id="hint-top-margin"
       width="4"
       height="1.9999769"
       x="33"
       y="910.36218" />
    <rect
       y="952.36218"
       x="33"
       height="2.0000231"
       width="4"
       id="hint-bottom-margin"
       style="fill:#008080;fill-opacity:1;stroke:none" />
    <rect
       y="-56.999985"
       x="930.36218"
       height="1.9999847"
       width="3.9999769"
       id="hint-right-margin"
       style="fill:#008080;fill-opacity:1;stroke:none"
       transform="rotate(90)" />
    <rect
       style="fill:#008080;fill-opacity:1;stroke:none"
       id="hint-left-margin"
       width="4"
       height="2.0000019"
       x="930.36218"
       y="-14.999996"
       transform="rotate(90)" />
    <g
       id="mask-top"
       transform="translate(56)">
      <rect
         transform="matrix(0,-1,-1,0,0,0)"
         style="opacity:0.97000002;fill:#000000;fill-opacity:1;stroke:none"
         id="rect4265"
         width="4.9999771"
         height="32.000015"
         x="-915.36218"
         y="-51" />
    </g>
    <g
       id="mask-topleft"
       transform="translate(56)">
      <path
         style="opacity:0.97000002;fill:#000000;fill-opacity:1"
         d="m 130,6 c -0.55399,0 -1,0.4460137 -1,1 v 4 h 5 V 6 h -1 z"
         transform="translate(-116,904.36218)"
         id="path4277"
         inkscape:connector-curvature="0" />
    </g>
    <g
       id="mask-topright"
       transform="translate(56)">
      <path
         style="opacity:0.97000002;fill:#000000;fill-opacity:1"
         d="m 168,6 v 5 h 5 V 7 c 0,-0.5539863 -0.44601,-1 -1,-1 h -3 z"
         transform="translate(-116,904.36218)"
         id="path4287"
         inkscape:connector-curvature="0" />
    </g>
    <g
       id="mask-bottom"
       transform="translate(56)">
      <rect
         y="-51"
         x="949.36218"
         height="32.000015"
         width="5.0000229"
         id="rect4291"
         style="opacity:0.97000002;fill:#000000;fill-opacity:1;stroke:none"
         transform="rotate(90)" />
    </g>
    <g
       id="mask-bottomleft"
       transform="translate(56)">
      <path
         style="opacity:0.97000002;fill:#000000;fill-opacity:1"
         d="m 129,45 v 4 c 0,0.55399 0.44601,1 1,1 h 3 1 v -5 z"
         transform="translate(-116,904.36218)"
         id="path4303"
         inkscape:connector-curvature="0" />
    </g>
    <g
       id="mask-bottomright"
       transform="translate(56)">
      <path
         style="opacity:0.97000002;fill:#000000;fill-opacity:1"
         d="m 168,45 v 5 h 1 3 c 0.55399,0 1,-0.44601 1,-1 v -4 z"
         transform="translate(-116,904.36218)"
         id="path4313"
         inkscape:connector-curvature="0" />
    </g>
    <g
       id="mask-left"
       transform="translate(56)">
      <rect
         y="916.36218"
         x="-18"
         height="32.000023"
         width="4.9999962"
         id="rect4317"
         style="opacity:0.97000002;fill:#000000;fill-opacity:1;stroke:none"
         transform="scale(-1,1)" />
    </g>
    <g
       id="mask-right"
       transform="translate(56)">
      <rect
         style="opacity:0.97000002;fill:#000000;fill-opacity:1;stroke:none"
         id="rect4323"
         width="4.9999847"
         height="32.000023"
         x="52"
         y="916.36218" />
    </g>
    <g
       id="mask-center"
       transform="translate(56)">
      <rect
         style="opacity:1;fill:none;fill-opacity:1;stroke:none"
         id="rect4329"
         width="32"
         height="32"
         x="19.000004"
         y="916.36218" />
      <rect
         y="916.36218"
         x="19.000004"
         height="32"
         width="32"
         id="rect4331"
         style="opacity:0.97000002;fill:#000000;fill-opacity:1;stroke:none" />
    </g>
  </g>
</svg>
