<?xml version="1.0" encoding="UTF-8" standalone="no"?>
<svg
   xmlns:dc="http://purl.org/dc/elements/1.1/"
   xmlns:cc="http://creativecommons.org/ns#"
   xmlns:rdf="http://www.w3.org/1999/02/22-rdf-syntax-ns#"
   xmlns:svg="http://www.w3.org/2000/svg"
   xmlns="http://www.w3.org/2000/svg"
   xmlns:sodipodi="http://sodipodi.sourceforge.net/DTD/sodipodi-0.dtd"
   xmlns:inkscape="http://www.inkscape.org/namespaces/inkscape"
   version="1.1"
   id="whatsapp-logo-notext"
   x="0px"
   y="0px"
   viewBox="0 0 512 512"
   xml:space="preserve"
   sodipodi:docname="icon.svg"
   inkscape:version="0.92.4 5da689c313, 2019-01-14"
   width="512"
   height="512"><metadata
     id="metadata13"><rdf:RDF><cc:Work
         rdf:about=""><dc:format>image/svg+xml</dc:format><dc:type
           rdf:resource="http://purl.org/dc/dcmitype/StillImage" /><dc:title></dc:title><dc:title></dc:title></cc:Work></rdf:RDF></metadata><defs
     id="defs11" /><sodipodi:namedview
     pagecolor="#ffffff"
     bordercolor="#666666"
     borderopacity="1"
     objecttolerance="10"
     gridtolerance="10"
     guidetolerance="10"
     inkscape:pageopacity="0"
     inkscape:pageshadow="2"
     inkscape:window-width="1920"
     inkscape:window-height="990"
     id="namedview9"
     showgrid="false"
     inkscape:zoom="0.75641026"
     inkscape:cx="323.62585"
     inkscape:cy="141.28092"
     inkscape:window-x="0"
     inkscape:window-y="0"
     inkscape:window-maximized="1"
     inkscape:current-layer="whatsapp-logo-notext"
     showguides="false"
     inkscape:pagecheckerboard="true"><inkscape:grid
       type="xygrid"
       id="grid822" /></sodipodi:namedview><style
     type="text/css"
     id="style2">
                            .logo_white{fill:#FFFFFF;}
                            .logo_green{fill:#00E676;}
                        </style><g
     id="g2018"
     transform="matrix(1.5625,0,0,1.5625,34.571831,3.5956575)"><path
       id="path12-3"
       d="m 107.47024,3.0414802 c 34.33847,-2.853931 70.37883,-2.087203 102.8819,6.1977191 26.32953,6.6449747 48.6879,19.6580527 60.50112,36.1427027 18.12032,24.982553 25.0614,52.56346 28.56535,79.803598 3.80423,36.24919 3.27033,72.83917 -4.57179,108.87538 -5.50617,21.44706 -13.34829,44.04426 -36.10712,60.95487 -23.09254,16.9745 -58.69909,24.25841 -92.87071,25.96225 -36.04038,1.68254 -74.049605,0 -106.58605,-10.88326 C 40.294971,303.64144 24.176928,293.52488 14.766387,281.12945 3.3536142,266.28474 -2.9201069,250.07697 -7.3250365,233.84791 -20.606569,182.39192 -23.810167,129.14694 -5.6564765,77.989138 1.8185602,58.693153 12.697395,38.886013 34.788819,24.33948 54.01035,11.880151 80.773664,5.448155 107.47024,3.0414802 Z"
       style="fill:#41cd52;stroke-width:2.66595101"
       inkscape:connector-curvature="0" /><path
       sodipodi:nodetypes="ccccccccccccccc"
       id="path8"
       d="m 75.773642,27.798168 c 20.17334,-13.34667 45.119998,-16.72 68.839998,-16.50667 22.58666,0.28 46.29334,4.24 65.01333,17.72 13.6,9.56 22.44,24.32 28.33333,39.58667 9.53333,25.06666 12.33333,52.133332 12.65333,78.773332 0.04,26.82667 -1.17333,54.24 -10.05333,79.8 -5.94666,17.38667 -17.26666,32.82667 -32.2,43.54667 l 0.42275,36.36319 -42.96941,-22.53653 c -15.61334,2.56 -31.58667,2.36 -47.28,0.62667 -18.799998,-2.25334 -37.959998,-7.98667 -52.466658,-20.64 -11.14667,-9.65333 -18.14667,-23.16 -22.93334,-36.89333 -7.84,-23.22667 -9.94666,-47.94667 -10.30666,-72.32 -0.18667,-26.34667 1.49333,-53.10667 9.44,-78.386672 6.14666,-19.01333 16.32,-37.98666 33.50666,-49.13333 z"
       style="fill:#ffffff;stroke-width:1.33333325"
       inkscape:connector-curvature="0" /><path
       sodipodi:nodetypes="cccccccccccccc"
       id="path12"
       d="m 126.62698,49.624838 c 13.71999,-1.78667 28.11999,-1.30667 41.10666,3.88 10.52,4.15999 19.45334,12.30666 24.17334,22.62666 7.24,15.64 10.01332,32.906662 11.41332,49.960002 1.52,22.69333 1.30667,45.6 -1.82666,68.16 -2.19999,13.42667 -5.33333,27.57333 -14.42666,38.16 l 0.3232,39.16832 -37.42988,-22.91499 c -14.4,1.05334 -29.58666,0 -42.58666,-6.81333 -7.586658,-4.04 -14.026658,-10.37333 -17.786658,-18.13333 -4.56,-9.29334 -7.06667,-19.44 -8.82667,-29.6 -5.30667,-32.21334 -6.58667,-65.54667 0.66667,-97.573342 2.98666,-12.08 7.33333,-24.48 16.16,-33.58666 7.679998,-7.8 18.373328,-11.82667 29.039998,-13.33333 z"
       style="fill:#41cd52;stroke-width:1.33333325"
       inkscape:connector-curvature="0" /></g></svg>