<?xml version="1.0" encoding="UTF-8" standalone="no"?>
<svg
   xmlns:dc="http://purl.org/dc/elements/1.1/"
   xmlns:cc="http://creativecommons.org/ns#"
   xmlns:rdf="http://www.w3.org/1999/02/22-rdf-syntax-ns#"
   xmlns:svg="http://www.w3.org/2000/svg"
   xmlns="http://www.w3.org/2000/svg"
   xmlns:sodipodi="http://sodipodi.sourceforge.net/DTD/sodipodi-0.dtd"
   xmlns:inkscape="http://www.inkscape.org/namespaces/inkscape"
   viewBox="0 0 54 32"
   id="svg2"
   version="1.1"
   sodipodi:docname="start.svg"
   inkscape:version="0.92.4 (5da689c313, 2019-01-14)">
  <sodipodi:namedview
     pagecolor="#000000"
     bordercolor="#000000"
     borderopacity="1"
     objecttolerance="10"
     gridtolerance="10"
     guidetolerance="10"
     inkscape:pageopacity="0"
     inkscape:pageshadow="2"
     inkscape:window-width="1366"
     inkscape:window-height="709"
     id="namedview17"
     showgrid="true"
     inkscape:zoom="7.3540483"
     inkscape:cx="18.985272"
     inkscape:cy="15.987272"
     inkscape:window-x="0"
     inkscape:window-y="0"
     inkscape:window-maximized="1"
     inkscape:current-layer="svg2"
     showguides="true"
     inkscape:guide-bbox="true">
  </sodipodi:namedview>
  <metadata
     id="metadata21">
    <rdf:RDF>
      <cc:Work
         rdf:about="">
        <dc:format>image/svg+xml</dc:format>
        <dc:type
           rdf:resource="http://purl.org/dc/dcmitype/StillImage" />
        <dc:title></dc:title>
      </cc:Work>
    </rdf:RDF>
  </metadata>
  <g
     id="start-here-kde"
     inkscape:label="#g859">
    <path
       inkscape:connector-curvature="0"
       id="path833"
       d="m 35.429504,4 c -6.5,0 -7.500003,6 -7.445312,9.427734 C 28.107174,26.54508 35.177023,29.720723 48.929504,28 c -2,-2 -6,-1 -6,-15 l -0.02148,-0.002 C 42.9295,7.0000469 39.322116,4.1340888 35.429504,4 Z m -3.5,7 a 1,1 0 0 1 1,1 1,1 0 0 1 -1,1 1,1 0 0 1 -1,-1 1,1 0 0 1 1,-1 z m 7,0 a 1,1 0 0 1 1,1 1,1 0 0 1 -1,1 1,1 0 0 1 -1,-1 1,1 0 0 1 1,-1 z m -3.5,4 a 4.5,1 0 0 1 4.5,1 4.5,1 0 0 1 -4.5,1 4.5,1 0 0 1 -4.5,-1 4.5,1 0 0 1 4.5,-1 z"
       style="opacity:1;fill:#eff0f1;fill-opacity:1;fill-rule:nonzero;stroke:none;stroke-width:0.5;stroke-linejoin:miter;stroke-miterlimit:4;stroke-dasharray:none;stroke-opacity:1" />
    <rect
       style="fill:none;fill-rule:evenodd;stroke:none;stroke-width:1px;stroke-linecap:butt;stroke-linejoin:miter;stroke-opacity:1"
       id="rect3343"
       width="32"
       height="32"
       x="22"
       y="0" />
  </g>
  <g
     transform="matrix(0.6875,0,0,0.6875,-15.133731,9.9933789)"
     id="22-22-start-here-kde"
     inkscape:label="#g859">
    <path
       inkscape:connector-curvature="0"
       id="path833-6"
       d="m 35.429504,4 c -6.5,0 -7.500003,6 -7.445312,9.427734 C 28.107174,26.54508 35.177023,29.720723 48.929504,28 c -2,-2 -6,-1 -6,-15 l -0.02148,-0.002 C 42.9295,7.0000469 39.322116,4.1340888 35.429504,4 Z m -3.5,7 a 1,1 0 0 1 1,1 1,1 0 0 1 -1,1 1,1 0 0 1 -1,-1 1,1 0 0 1 1,-1 z m 7,0 a 1,1 0 0 1 1,1 1,1 0 0 1 -1,1 1,1 0 0 1 -1,-1 1,1 0 0 1 1,-1 z m -3.5,4 a 4.5,1 0 0 1 4.5,1 4.5,1 0 0 1 -4.5,1 4.5,1 0 0 1 -4.5,-1 4.5,1 0 0 1 4.5,-1 z"
       style="opacity:1;fill:#eff0f1;fill-opacity:1;fill-rule:nonzero;stroke:none;stroke-width:0.5;stroke-linejoin:miter;stroke-miterlimit:4;stroke-dasharray:none;stroke-opacity:1" />
    <rect
       style="fill:none;fill-rule:evenodd;stroke:none;stroke-width:1px;stroke-linecap:butt;stroke-linejoin:miter;stroke-opacity:1"
       id="rect3343-7"
       width="32"
       height="32"
       x="22"
       y="0" />
  </g>
  <g
     transform="matrix(0.5,0,0,0.5,-27.029456,16.025456)"
     id="16-16-start-here-kde"
     inkscape:label="#g859">
    <path
       inkscape:connector-curvature="0"
       id="path833-6-3"
       d="m 35.429504,4 c -6.5,0 -7.500003,6 -7.445312,9.427734 C 28.107174,26.54508 35.177023,29.720723 48.929504,28 c -2,-2 -6,-1 -6,-15 l -0.02148,-0.002 C 42.9295,7.0000469 39.322116,4.1340888 35.429504,4 Z m -3.5,7 a 1,1 0 0 1 1,1 1,1 0 0 1 -1,1 1,1 0 0 1 -1,-1 1,1 0 0 1 1,-1 z m 7,0 a 1,1 0 0 1 1,1 1,1 0 0 1 -1,1 1,1 0 0 1 -1,-1 1,1 0 0 1 1,-1 z m -3.5,4 a 4.5,1 0 0 1 4.5,1 4.5,1 0 0 1 -4.5,1 4.5,1 0 0 1 -4.5,-1 4.5,1 0 0 1 4.5,-1 z"
       style="opacity:1;fill:#eff0f1;fill-opacity:1;fill-rule:nonzero;stroke:none;stroke-width:0.5;stroke-linejoin:miter;stroke-miterlimit:4;stroke-dasharray:none;stroke-opacity:1" />
    <rect
       style="fill:none;fill-rule:evenodd;stroke:none;stroke-width:1px;stroke-linecap:butt;stroke-linejoin:miter;stroke-opacity:1"
       id="rect3343-7-5"
       width="32"
       height="32"
       x="22"
       y="0" />
  </g>
</svg>
