<?xml version="1.0" encoding="UTF-8"?>
<svg xmlns="http://www.w3.org/2000/svg" xmlns:xlink="http://www.w3.org/1999/xlink" width="16px" height="16px" viewBox="0 0 16 16" version="1.1">
<g id="surface149606">
<path style=" stroke:none;fill-rule:nonzero;fill:rgb(14.117648%,12.156863%,19.215687%);fill-opacity:1;" d="M 4 3 L 12 3 L 12 5 L 4 5 Z M 4 3 "/>
<path style=" stroke:none;fill-rule:nonzero;fill:rgb(14.117648%,12.156863%,19.215687%);fill-opacity:1;" d="M 4 11 L 12 11 L 12 13 L 4 13 Z M 4 11 "/>
<path style=" stroke:none;fill-rule:nonzero;fill:rgb(14.117648%,12.156863%,19.215687%);fill-opacity:1;" d="M 3 1 L 6 1 L 6 2 L 3 2 Z M 3 1 "/>
<path style=" stroke:none;fill-rule:nonzero;fill:rgb(14.117648%,12.156863%,19.215687%);fill-opacity:1;" d="M 3 14 L 6 14 L 6 15 L 3 15 Z M 3 14 "/>
<path style=" stroke:none;fill-rule:nonzero;fill:rgb(14.117648%,12.156863%,19.215687%);fill-opacity:1;" d="M 2 1 L 3 1 L 3 15 L 2 15 Z M 2 1 "/>
<path style=" stroke:none;fill-rule:nonzero;fill:rgb(14.117648%,12.156863%,19.215687%);fill-opacity:1;" d="M 13 1 L 10 1 L 10 2 L 13 2 Z M 13 1 "/>
<path style=" stroke:none;fill-rule:nonzero;fill:rgb(14.117648%,12.156863%,19.215687%);fill-opacity:1;" d="M 13 14 L 10 14 L 10 15 L 13 15 Z M 13 14 "/>
<path style=" stroke:none;fill-rule:nonzero;fill:rgb(14.117648%,12.156863%,19.215687%);fill-opacity:1;" d="M 14 1 L 13 1 L 13 15 L 14 15 Z M 14 1 "/>
<path style=" stroke:none;fill-rule:nonzero;fill:rgb(14.117648%,12.156863%,19.215687%);fill-opacity:1;" d="M 0 3 L 1 3 L 1 5 L 0 5 Z M 0 3 "/>
<path style=" stroke:none;fill-rule:nonzero;fill:rgb(14.117648%,12.156863%,19.215687%);fill-opacity:1;" d="M 0 11 L 1 11 L 1 13 L 0 13 Z M 0 11 "/>
<path style=" stroke:none;fill-rule:nonzero;fill:rgb(14.117648%,12.156863%,19.215687%);fill-opacity:1;" d="M 15 3 L 16 3 L 16 5 L 15 5 Z M 15 3 "/>
<path style=" stroke:none;fill-rule:nonzero;fill:rgb(14.117648%,12.156863%,19.215687%);fill-opacity:1;" d="M 15 11 L 16 11 L 16 13 L 15 13 Z M 15 11 "/>
<path style=" stroke:none;fill-rule:nonzero;fill:rgb(14.117648%,12.156863%,19.215687%);fill-opacity:1;" d="M 5 5 L 6 5 L 6 11 L 5 11 Z M 5 5 "/>
<path style=" stroke:none;fill-rule:nonzero;fill:rgb(14.117648%,12.156863%,19.215687%);fill-opacity:1;" d="M 10 5 L 11 5 L 11 11 L 10 11 Z M 10 5 "/>
</g>
</svg>
