<?xml version="1.0" encoding="UTF-8" standalone="no"?>
<svg
   width="22"
   height="22"
   version="1.1"
   id="svg7"
   sodipodi:docname="network-wired.svg"
   inkscape:version="1.1.2 (0a00cf5339, 2022-02-04)"
   xmlns:inkscape="http://www.inkscape.org/namespaces/inkscape"
   xmlns:sodipodi="http://sodipodi.sourceforge.net/DTD/sodipodi-0.dtd"
   xmlns="http://www.w3.org/2000/svg"
   xmlns:svg="http://www.w3.org/2000/svg">
  <sodipodi:namedview
     id="namedview9"
     pagecolor="#ffffff"
     bordercolor="#666666"
     borderopacity="1.0"
     inkscape:pageshadow="2"
     inkscape:pageopacity="0.0"
     inkscape:pagecheckerboard="0"
     showgrid="false"
     inkscape:zoom="28.636364"
     inkscape:cx="10.092063"
     inkscape:cy="11.331746"
     inkscape:window-width="1920"
     inkscape:window-height="995"
     inkscape:window-x="0"
     inkscape:window-y="0"
     inkscape:window-maximized="1"
     inkscape:current-layer="svg7" />
  <defs
     id="defs3">
    <style
       id="current-color-scheme"
       type="text/css">.ColorScheme-Text {
        color:#363636;
      }</style>
  </defs>
  <path
     style="fill:#f5f5f5;fill-opacity:1;fill-rule:evenodd;stroke:none;stroke-width:2.59765;stroke-linecap:round;stroke-linejoin:round;stroke-miterlimit:4;stroke-dasharray:none;stroke-dashoffset:0;stroke-opacity:1"
     d="m 4.2055548,4.1773314 c -1.1686306,0 -2.1084564,0.9398504 -2.1084564,2.1085564 v 8.9748362 c 0,1.16862 0.9398258,2.108469 2.1084564,2.108469 H 17.898495 c 1.168631,0 2.108457,-0.939849 2.108457,-2.108469 V 6.2858878 c 0,-1.168706 -0.939826,-2.1085564 -2.108457,-2.1085564 z M 5.8289857,6.4441403 H 16.275063 c 0.710638,0 1.282712,0.5720748 1.282712,1.2825936 v 1.7417307 1.4190534 0.320216 c 0,0.53302 -0.429022,0.962075 -0.962034,0.962075 h -0.298634 v 0.230453 c 0,0.761357 -0.611522,1.372834 -1.372901,1.372834 h -0.298634 v 0.09192 c 0,0.685229 -0.551373,1.236589 -1.236616,1.236589 h -4.67387 c -0.6852412,0 -1.236613,-0.55136 -1.236613,-1.236589 v -0.09192 H 7.1818449 c -0.761381,0 -1.3749065,-0.611477 -1.3749065,-1.372834 V 12.169809 H 5.5083063 c -0.5330091,0 -0.9620328,-0.429401 -0.9620328,-0.962075 V 10.887518 9.4684646 7.7267339 c 1.3e-6,-0.7105188 0.5720711,-1.2825936 1.2827122,-1.2825936 z m 2.244744,0.8257458 c -0.4695219,0 -0.847791,0.3780453 -0.847791,0.8477981 v 1.0521845 c 0,0.4697955 0.3782704,0.8477983 0.847791,0.8477983 0.4695222,0 0.8477927,-0.378046 0.8477927,-0.8477983 V 8.1176842 c 0,-0.4698385 -0.3782661,-0.8477981 -0.8477927,-0.8477981 z m 2.9782943,0 c -0.469518,0 -0.847792,0.3780453 -0.847792,0.8477981 v 1.0521845 c 0,0.4697955 0.378271,0.8477983 0.847792,0.8477983 0.469522,0 0.845788,-0.378046 0.845788,-0.8477983 V 8.1176842 c 0,-0.4698385 -0.376272,-0.8477981 -0.845788,-0.8477981 z m 2.976292,0 c -0.469518,0 -0.847792,0.3780453 -0.847792,0.8477981 v 1.0521845 c 0,0.4697955 0.378265,0.8477983 0.847792,0.8477983 0.469517,0 0.847792,-0.378046 0.847792,-0.8477983 V 8.1176842 c 0,-0.4698385 -0.37827,-0.8477981 -0.847792,-0.8477981 z"
     id="rect815"
     inkscape:connector-curvature="0" />
</svg>
