<?xml version="1.0" encoding="UTF-8" standalone="no"?>
<svg
   viewBox="0 0 16 16"
   version="1.1"
   id="svg6"
   sodipodi:docname="edit-cut.svg"
   inkscape:version="1.1.2 (0a00cf5339, 2022-02-04)"
   xmlns:inkscape="http://www.inkscape.org/namespaces/inkscape"
   xmlns:sodipodi="http://sodipodi.sourceforge.net/DTD/sodipodi-0.dtd"
   xmlns="http://www.w3.org/2000/svg"
   xmlns:svg="http://www.w3.org/2000/svg">
  <sodipodi:namedview
     id="namedview8"
     pagecolor="#ffffff"
     bordercolor="#666666"
     borderopacity="1.0"
     inkscape:pageshadow="2"
     inkscape:pageopacity="0.0"
     inkscape:pagecheckerboard="0"
     showgrid="false"
     inkscape:zoom="29.375"
     inkscape:cx="8"
     inkscape:cy="8"
     inkscape:window-width="1366"
     inkscape:window-height="696"
     inkscape:window-x="0"
     inkscape:window-y="0"
     inkscape:window-maximized="1"
     inkscape:current-layer="svg6" />
  <defs
     id="defs3051">
    <style
       type="text/css"
       id="current-color-scheme">
      .ColorScheme-Text {
        color:#eff0f1;
      }
      </style>
  </defs>
  <path
     id="path4"
     style="fill:currentColor;fill-opacity:1;stroke:none"
     class="ColorScheme-Text"
     d="M 7.9980469 8 L 8 8 C 8.276 8 8.5 8.224 8.5 8.5 C 8.5 8.754 8.3075 8.968 8.0625 9 L 7.9375 9 C 7.6925 8.968 7.4980469 8.754 7.4980469 8.5 C 7.4980469 8.224 7.7220469 8 7.9980469 8 z " />
  <path
     id="path1237"
     style="fill:#3daee9;fill-opacity:1;stroke:none"
     class="ColorScheme-Text"
     d="M 10.089844 10.210938 A 2.5534132 2.5534132 0 0 0 9.9882812 10.265625 A 2.5534132 2.5534132 0 0 0 9.5996094 10.583984 A 2.5534132 2.5534132 0 0 0 9.34375 10.896484 L 9.34375 10.90625 C 9.13775 11.22125 8.9980469 11.595 8.9980469 12 C 8.9980469 13.105 9.8930468 14 10.998047 14 C 12.103047 14 12.998047 13.105 12.998047 12 C 12.998047 10.895 12.103047 10 10.998047 10 C 10.673047 10 10.36475 10.08075 10.09375 10.21875 L 10.089844 10.210938 z M 10.998047 11 C 11.550047 11 11.998047 11.448 11.998047 12 C 11.998047 12.552 11.550047 13 10.998047 13 C 10.446047 13 9.9980469 12.552 9.9980469 12 C 9.9980469 11.448 10.446047 11 10.998047 11 z " />
  <path
     id="path1235"
     style="fill:#3daee9;fill-opacity:1;stroke:none"
     class="ColorScheme-Text"
     d="M 6.6582031 10.873047 A 2.1420379 2.1420379 0 0 0 6.5859375 10.775391 A 2.1420379 2.1420379 0 0 0 6.4824219 10.654297 A 2.1420379 2.1420379 0 0 0 6.3691406 10.541016 A 2.1420379 2.1420379 0 0 0 6.2460938 10.435547 A 2.1420379 2.1420379 0 0 0 6.1171875 10.341797 A 2.1420379 2.1420379 0 0 0 5.9824219 10.255859 A 2.1420379 2.1420379 0 0 0 5.9082031 10.216797 L 5.90625 10.21875 C 5.63425 10.08075 5.325 10 5 10 C 3.895 10 3 10.895 3 12 C 3 13.105 3.895 14 5 14 C 6.105 14 7 13.105 7 12 C 7 11.595 6.86325 11.22125 6.65625 10.90625 C 6.65125 10.89825 6.66125 10.882 6.65625 10.875 L 6.6582031 10.873047 z M 4.9980469 11 C 5.5500469 11 5.9980469 11.448 5.9980469 12 C 5.9980469 12.552 5.5500469 13 4.9980469 13 C 4.4460469 13 3.9980469 12.552 3.9980469 12 C 3.9980469 11.448 4.4460469 11 4.9980469 11 z " />
  <path
     id="path1344"
     style="fill:currentColor;fill-opacity:1;stroke:none"
     class="ColorScheme-Text"
     d="M 5 2 C 4.567 2.75 4.34825 2.75 4.78125 3.5 L 7.40625 8 L 5.9082031 10.216797 A 2.1420379 2.1420379 0 0 1 5.9824219 10.255859 A 2.1420379 2.1420379 0 0 1 6.1171875 10.341797 A 2.1420379 2.1420379 0 0 1 6.2460938 10.435547 A 2.1420379 2.1420379 0 0 1 6.3691406 10.541016 A 2.1420379 2.1420379 0 0 1 6.4824219 10.654297 A 2.1420379 2.1420379 0 0 1 6.5859375 10.775391 A 2.1420379 2.1420379 0 0 1 6.6582031 10.873047 L 7.09375 10.25 C 7.89575 10.225 8.008 9.65725 8.5 9.65625 C 8.511 9.65625 8.52025 9.65525 8.53125 9.65625 L 8.5625 9.71875 L 9.34375 10.875 L 9.34375 10.896484 A 2.5534132 2.5534132 0 0 1 9.5996094 10.583984 A 2.5534132 2.5534132 0 0 1 9.9882812 10.265625 A 2.5534132 2.5534132 0 0 1 10.089844 10.210938 L 8.59375 8 C 8.59375 8 11.22875 3.492 11.21875 3.5 C 11.65175 2.75 11.431047 2.75 10.998047 2 L 7.9980469 7.125 L 5 2 z " />
</svg>
