<?xml version="1.0" encoding="UTF-8" standalone="no"?>
<svg
   viewBox="0 0 16 16"
   version="1.1"
   id="svg7"
   sodipodi:docname="edit-copy-path.svg"
   inkscape:version="1.1.2 (0a00cf5339, 2022-02-04)"
   xmlns:inkscape="http://www.inkscape.org/namespaces/inkscape"
   xmlns:sodipodi="http://sodipodi.sourceforge.net/DTD/sodipodi-0.dtd"
   xmlns="http://www.w3.org/2000/svg"
   xmlns:svg="http://www.w3.org/2000/svg">
  <sodipodi:namedview
     id="namedview9"
     pagecolor="#ffffff"
     bordercolor="#666666"
     borderopacity="1.0"
     inkscape:pageshadow="2"
     inkscape:pageopacity="0.0"
     inkscape:pagecheckerboard="0"
     showgrid="false"
     inkscape:zoom="35.25"
     inkscape:cx="-1.6737589"
     inkscape:cy="8"
     inkscape:window-width="1366"
     inkscape:window-height="696"
     inkscape:window-x="0"
     inkscape:window-y="0"
     inkscape:window-maximized="1"
     inkscape:current-layer="svg7" />
  <defs
     id="defs3">
    <style
       type="text/css"
       id="current-color-scheme">
            .ColorScheme-Text {
                color:#eff0f1;
            }
        </style>
  </defs>
  <path
     class="ColorScheme-Text"
     style="fill:currentColor; fill-opacity:1; stroke:none"
     d="M 2 2 L 2 3 L 3 3 L 3 13 L 2 13 L 2 14 L 5 14 L 5 13 L 4 13 L 4 3 L 5 3 L 5 2 L 2 2 z M 6 3 L 6 4 L 13 4 L 13 12 L 6 12 L 6 13 L 14 13 L 14 3 L 6 3 z M 9 5 L 7 11 L 8 11 L 10 5 L 9 5 z M 11 5 L 9 11 L 10 11 L 12 5 L 11 5 z M 5 10 L 5 11 L 6 11 L 6 10 L 5 10 z "
     id="path5" />
  <path
     d="m 2,2.0000001 v 1 H 3 V 13 H 2 v 1 H 5 V 13 H 4 V 3.0000001 h 1 v -1 z"
     style="color:#eff0f1;fill:#3daee9;fill-opacity:1;stroke:none"
     id="path851" />
</svg>
